<svg xmlns="http://www.w3.org/2000/svg" viewBox="0 0 529.9 552.92"><defs><style>.cls-1{fill:#f27e88;}.cls-2{fill:#8c4a69;}.cls-3{fill:#97a9ed;}.cls-4{fill:#cc5085;}.cls-5{fill:#889abc;}.cls-6{fill:#a49bda;}.cls-7{fill:#99adbf;}.cls-8{fill:#e7ff80;}.cls-9{fill:#266b8c;}.cls-10{fill:#b6d3fd;}.cls-11{fill:#56593f;}.cls-12{fill:#ab976b;}.cls-13{fill:#ef97d4;}.cls-14{fill:#ff4e96;}.cls-15{fill:#47d1c4;}.cls-16{fill:#c3e1d6;}.cls-17{fill:#4149df;}.cls-18{fill:#e5637f;}.cls-19{fill:#984a68;}.cls-20{fill:#74b1ab;}.cls-21{fill:#0476d9;}.cls-22{fill:#e83ccc;}.cls-23{fill:#8b425a;}.cls-24{fill:#d9bacb;}.cls-25{fill:#4e848d;}.cls-26{fill:#f28705;}.cls-27{fill:#1e9eb7;}</style></defs><g id="圖層_2" data-name="圖層 2"><g id="圖層_1-2" data-name="圖層 1"><path class="cls-1" d="M78,231.08,76,239.92l-.64,2.92,2.27-2L84.51,235c1,5.14-1.72,13.84-7.1,21.95-6.19,9.31-17.72,13.14-21.23,14.12-.46-3.62-1.41-15.74,4.77-25,5.24-7.89,11.87-13.67,17-14.95m1.3-1.24c-5.42.49-13.1,6.53-19.14,15.64-7.64,11.5-4.77,26.84-4.77,26.84S70.6,269,78.24,257.51c6.27-9.44,8.83-19.22,6.78-24.26l-8,6.88,2.27-10.29Z"/><path class="cls-1" d="M33.08,228.84c5,1.67,11.13,8.41,15.46,17.12,5,10,2.52,21.92,1.62,25.45-3.37-1.41-14.34-6.64-19.31-16.66-4.21-8.47-5.9-17.11-4.44-22.21l6.68,6.11,2.2,2-.55-2.94-1.66-8.89m-1.26-1.32,1.94,10.39L26,230.8c-2.3,4.94-.9,14.61,4,24.4,6.15,12.37,20.87,17.55,20.87,17.55s4.76-14.86-1.38-27.23c-5-10.15-12.23-17.25-17.62-18Z"/><path class="cls-1" d="M21.06,265.35c1.16,0,2.35,0,3.53.12,11.16.69,20.24,8.77,22.84,11.32-2.76,2.1-12,8.44-22.46,8.44-.54,0-1.08,0-1.61-.05-9.45-.59-17.78-3.45-21.46-7.26l8.63-2.72,2.85-.91-2.82-1-8.53-3c3.42-3,10.63-4.94,19-4.94m0-1c-9.74,0-17.82,2.55-20.81,6.38l10,3.51-10,3.18c3.13,4.45,12.21,8.08,23.11,8.76.56,0,1.12.05,1.68.05,13.05,0,24-9.34,24-9.34s-10.5-11.56-24.28-12.42c-1.21-.08-2.41-.12-3.59-.12Z"/><path class="cls-1" d="M50.73,281.84c.46,3.62,1.42,15.73-4.77,25.05-5.24,7.89-11.87,13.67-17,14.95L30.9,313l.64-2.92L29.27,312l-6.86,5.88c-1.05-5.15,1.71-13.84,7.09-22,6.19-9.31,17.72-13.14,21.23-14.12m.83-1.24s-15.25,3.3-22.89,14.81c-6.27,9.43-8.83,19.21-6.78,24.26l8-6.88-2.27,10.29c5.42-.49,13.1-6.53,19.14-15.64,7.64-11.5,4.77-26.84,4.77-26.84Z"/><path class="cls-1" d="M56.76,281.51c3.36,1.41,14.33,6.64,19.3,16.66,4.21,8.47,5.9,17.11,4.44,22.21l-6.68-6.11-2.2-2,.55,2.94,1.66,8.89c-5-1.67-11.13-8.41-15.46-17.12-5-10-2.52-21.92-1.61-25.45m-.67-1.34S51.33,295,57.47,307.4c5,10.14,12.23,17.25,17.62,18L73.15,315l7.77,7.11c2.3-4.94.9-14.61-4-24.4-6.15-12.37-20.87-17.55-20.87-17.55Z"/><path class="cls-1" d="M81.94,267.69c.54,0,1.09,0,1.62.05,9.44.59,17.77,3.44,21.45,7.25l-8.63,2.73-2.85.91,2.82,1,8.53,3c-3.42,3-10.63,4.95-19,4.95-1.16,0-2.35,0-3.53-.12-11.16-.7-20.24-8.78-22.84-11.33,2.75-2.1,12-8.43,22.46-8.43m0-1c-13,0-24,9.34-24,9.34s10.5,11.56,24.28,12.42c1.22.08,2.42.11,3.59.11,9.74,0,17.82-2.54,20.81-6.37l-10-3.51,10-3.18c-3.13-4.45-12.21-8.08-23.11-8.76-.56,0-1.12-.05-1.68-.05Z"/><path class="cls-2" d="M267.89,224.75c3.72,3.71,6.23,12.48,6.23,22.21,0,11.18-7.49,20.75-9.87,23.51-2.39-2.75-9.88-12.31-9.88-23.51,0-9.46,2.33-18,5.9-21.86l3.26,8.44,1.08,2.79.82-2.88,2.46-8.7m-.54-1.75-2.88,10.18-3.8-9.83c-4.25,3.4-7.3,12.69-7.3,23.61,0,13.81,10.88,25,10.88,25s10.87-11.2,10.87-25c0-11.32-3.27-20.89-7.77-24Z"/><path class="cls-2" d="M225,247.67c5.26,0,12.35,2.28,19,6.1,9.68,5.59,14.22,16.87,15.42,20.31a46.89,46.89,0,0,1-8.59.8c-6.49,0-12.11-1.34-16.71-4-8.2-4.73-14.39-11-16-16l8.94,1.4,3,.46-2.09-2.15-6.29-6.48a13.14,13.14,0,0,1,3.38-.39m0-1a12.16,12.16,0,0,0-5.17,1l7.37,7.59-10.41-1.62c.82,5.38,7.33,12.66,16.8,18.13,5.67,3.27,12.06,4.13,17.21,4.13a44.79,44.79,0,0,0,9.88-1.05s-4.26-15-16.21-21.93c-7.07-4.08-14.2-6.23-19.47-6.23Z"/><path class="cls-2" d="M251.54,279.26a45.55,45.55,0,0,1,8.58.81c-1.19,3.44-5.73,14.72-15.42,20.31-6.61,3.81-13.7,6.09-19,6.09a13.65,13.65,0,0,1-2.92-.28l5.67-7,1.88-2.33-2.9.73-8.76,2.22c1.35-5.08,7.69-11.64,16.12-16.5a33,33,0,0,1,16.71-4m0-1c-5.15,0-11.54.86-17.21,4.14-9.81,5.66-16.46,13.29-16.87,18.71l10.26-2.59-6.62,8.21a12.94,12.94,0,0,0,4.64.74c5.27,0,12.39-2.14,19.46-6.23,12-6.9,16.22-21.92,16.22-21.92a44.39,44.39,0,0,0-9.88-1.06Z"/><path class="cls-2" d="M265.66,282.45c2.39,2.76,9.88,12.32,9.88,23.51,0,9.46-2.33,18-5.9,21.86l-3.26-8.44-1.08-2.79-.82,2.88-2.46,8.7c-3.72-3.71-6.23-12.48-6.23-22.21,0-11.19,7.49-20.75,9.87-23.51m0-1.5s-10.87,11.2-10.87,25c0,11.32,3.27,20.89,7.77,24l2.88-10.18,3.8,9.83c4.25-3.4,7.3-12.69,7.3-23.61,0-13.81-10.88-25-10.88-25Z"/><path class="cls-2" d="M279.08,278c6.49,0,12.11,1.34,16.71,4,8.2,4.73,14.39,11,16,16l-8.94-1.4-3-.46,2.09,2.14,6.29,6.49a13.6,13.6,0,0,1-3.38.39c-5.26,0-12.35-2.28-19-6.1-9.69-5.59-14.23-16.87-15.42-20.31a46.65,46.65,0,0,1,8.58-.8m0-1a44.79,44.79,0,0,0-9.88,1s4.26,15,16.22,21.92c7.07,4.09,14.19,6.24,19.46,6.24a12,12,0,0,0,5.17-1l-7.37-7.58,10.41,1.62c-.82-5.38-7.33-12.66-16.8-18.13-5.67-3.27-12.06-4.13-17.21-4.13Z"/><path class="cls-2" d="M304.17,246.45a13.65,13.65,0,0,1,2.92.28l-5.67,7-1.88,2.33,2.9-.74,8.76-2.21c-1.35,5.08-7.69,11.64-16.12,16.5-4.6,2.66-10.22,4-16.71,4a46.65,46.65,0,0,1-8.58-.8c1.19-3.44,5.73-14.72,15.42-20.31,6.61-3.82,13.7-6.09,19-6.09m0-1c-5.27,0-12.39,2.14-19.46,6.23-12,6.9-16.22,21.92-16.22,21.92a44.79,44.79,0,0,0,9.88,1c5.15,0,11.54-.86,17.21-4.13,9.81-5.67,16.46-13.29,16.87-18.71L302.2,254.4l6.61-8.21a12.94,12.94,0,0,0-4.64-.74Z"/><path class="cls-3" d="M162.14,224.75c3.72,3.71,6.23,12.48,6.23,22.21,0,11.18-7.49,20.75-9.87,23.51-2.39-2.75-9.88-12.31-9.88-23.51,0-9.46,2.33-18,5.9-21.86l3.26,8.44,1.08,2.79.82-2.88,2.46-8.7M161.6,223l-2.88,10.18-3.8-9.83c-4.25,3.4-7.3,12.69-7.3,23.61,0,13.81,10.88,25,10.88,25s10.87-11.2,10.87-25c0-11.32-3.27-20.89-7.77-24Z"/><path class="cls-3" d="M119.28,247.67c5.26,0,12.35,2.28,19,6.1,9.68,5.59,14.22,16.87,15.42,20.31a46.89,46.89,0,0,1-8.59.8c-6.49,0-12.11-1.34-16.71-4-8.2-4.73-14.39-11-16-16l8.94,1.4,3,.46-2.09-2.15-6.29-6.48a13.14,13.14,0,0,1,3.38-.39m0-1a12.16,12.16,0,0,0-5.17,1l7.37,7.59-10.41-1.62c.82,5.38,7.33,12.66,16.8,18.13,5.67,3.27,12.06,4.13,17.21,4.13a44.79,44.79,0,0,0,9.88-1.05s-4.26-15-16.21-21.93c-7.07-4.08-14.2-6.23-19.47-6.23Z"/><path class="cls-3" d="M145.79,279.26a45.55,45.55,0,0,1,8.58.81c-1.19,3.44-5.73,14.72-15.42,20.31-6.61,3.81-13.7,6.09-19,6.09a13.65,13.65,0,0,1-2.92-.28l5.67-7,1.88-2.33-2.9.73L113,299.77c1.35-5.08,7.69-11.64,16.12-16.5a33,33,0,0,1,16.71-4m0-1c-5.15,0-11.54.86-17.21,4.14-9.81,5.66-16.46,13.29-16.87,18.71L122,298.52l-6.62,8.21a12.94,12.94,0,0,0,4.64.74c5.27,0,12.39-2.14,19.46-6.23,12-6.9,16.22-21.92,16.22-21.92a44.39,44.39,0,0,0-9.88-1.06Z"/><path class="cls-3" d="M159.91,282.45c2.39,2.76,9.88,12.32,9.88,23.51,0,9.46-2.33,18-5.9,21.86l-3.26-8.44-1.08-2.79-.82,2.88-2.46,8.7C152.55,324.46,150,315.69,150,306c0-11.19,7.49-20.75,9.87-23.51m0-1.5S149,292.15,149,306c0,11.32,3.27,20.89,7.77,24l2.88-10.18,3.8,9.83c4.25-3.4,7.3-12.69,7.3-23.61,0-13.81-10.88-25-10.88-25Z"/><path class="cls-3" d="M173.33,278c6.49,0,12.11,1.34,16.71,4,8.2,4.73,14.39,11,16,16l-8.94-1.4-3-.46,2.09,2.14,6.29,6.49a13.6,13.6,0,0,1-3.38.39c-5.26,0-12.35-2.28-19-6.1-9.69-5.59-14.23-16.87-15.42-20.31a46.65,46.65,0,0,1,8.58-.8m0-1a44.79,44.79,0,0,0-9.88,1s4.26,15,16.22,21.92c7.07,4.09,14.19,6.24,19.46,6.24a12,12,0,0,0,5.17-1l-7.37-7.58,10.41,1.62c-.82-5.38-7.33-12.66-16.8-18.13-5.67-3.27-12.06-4.13-17.21-4.13Z"/><path class="cls-3" d="M198.42,246.45a13.65,13.65,0,0,1,2.92.28l-5.67,7-1.88,2.33,2.9-.74,8.76-2.21c-1.35,5.08-7.69,11.64-16.12,16.5-4.6,2.66-10.22,4-16.71,4a46.65,46.65,0,0,1-8.58-.8c1.19-3.44,5.73-14.72,15.42-20.31,6.61-3.82,13.7-6.09,19-6.09m0-1c-5.27,0-12.39,2.14-19.46,6.23-12,6.9-16.22,21.92-16.22,21.92a44.79,44.79,0,0,0,9.88,1c5.15,0,11.54-.86,17.21-4.13,9.81-5.67,16.46-13.29,16.87-18.71l-10.25,2.59,6.61-8.21a12.94,12.94,0,0,0-4.64-.74Z"/><path class="cls-4" d="M502.87,232.16l-2.33,8.74-.77,2.9,2.36-1.85,7.11-5.59c.82,5.19-2.3,13.76-8,21.63C494.64,267,483,270.37,479.4,271.2c-.3-3.63-.74-15.78,5.83-24.82,5.57-7.66,12.45-13.16,17.64-14.22m1.34-1.18c-5.43.25-13.36,6-19.78,14.81-8.12,11.17-5.91,26.62-5.91,26.62s15.38-2.66,23.5-13.83c6.66-9.16,9.64-18.83,7.81-23.95l-8.32,6.53,2.7-10.18Z"/><path class="cls-4" d="M458.12,228c4.91,1.88,10.77,8.87,14.72,17.76,4.55,10.22,1.59,22,.53,25.5-3.29-1.55-14-7.23-18.58-17.47-3.85-8.64-5.17-17.35-3.49-22.37l6.41,6.38,2.12,2.11-.43-3L458.12,228m-1.21-1.38,1.5,10.47L451,229.68c-2.5,4.83-1.52,14.56,2.93,24.54,5.61,12.62,20.1,18.42,20.1,18.42s5.39-14.65-.22-27.26c-4.61-10.35-11.49-17.76-16.85-18.74Z"/><path class="cls-4" d="M442.29,263.94a57.06,57.06,0,0,1,5.79.31c11.12,1.17,19.85,9.63,22.35,12.29-2.75,1.91-11.65,7.5-21.67,7.5-.93,0-1.85-.05-2.75-.14-9.41-1-17.61-4.2-21.13-8.16l8.74-2.36,2.89-.78-2.78-1.12-8.39-3.36c3.21-2.6,9.49-4.18,17-4.18m0-1c-8.7,0-15.86,2.13-18.75,5.54l9.82,3.93-10.17,2.75c2.94,4.58,11.85,8.59,22.72,9.73a27.35,27.35,0,0,0,2.85.15c12.53,0,23.15-8.35,23.15-8.35s-10-12-23.72-13.43a54.62,54.62,0,0,0-5.9-.32Z"/><path class="cls-4" d="M473.51,281.72c.3,3.63.74,15.78-5.83,24.82-5.57,7.66-12.45,13.16-17.64,14.22l2.33-8.75.77-2.89L450.78,311l-7.1,5.59c-.83-5.19,2.29-13.76,8-21.63,6.57-9.05,18.26-12.38,21.81-13.21m.88-1.21s-15.38,2.66-23.5,13.83c-6.66,9.16-9.63,18.82-7.81,24l8.32-6.53-2.7,10.18c5.43-.25,13.36-6,19.79-14.81,8.11-11.17,5.9-26.62,5.9-26.62Z"/><path class="cls-4" d="M479.54,281.64c3.3,1.55,14,7.25,18.58,17.46,3.85,8.65,5.17,17.36,3.49,22.38l-6.41-6.38L493.08,313l.43,3,1.28,8.95C489.88,323,484,316,480.07,307.14c-4.55-10.22-1.59-22-.53-25.5m-.61-1.36s-5.39,14.65.23,27.26c4.6,10.35,11.48,17.76,16.84,18.74l-1.5-10.47,7.46,7.43c2.5-4.84,1.52-14.56-2.93-24.54-5.61-12.62-20.1-18.42-20.1-18.42Z"/><path class="cls-4" d="M504.15,268.88c.93,0,1.85.05,2.75.14,9.41,1,17.61,4.2,21.13,8.16l-8.74,2.36-2.89.78,2.78,1.12,8.39,3.36c-3.2,2.6-9.49,4.18-16.94,4.18a57.1,57.1,0,0,1-5.8-.31C493.71,287.5,485,279,482.48,276.38c2.75-1.91,11.63-7.5,21.67-7.5m0-1c-12.53,0-23.15,8.34-23.15,8.34s10,12,23.72,13.44a54.8,54.8,0,0,0,5.91.32c8.69,0,15.85-2.13,18.74-5.54l-9.82-3.93,10.17-2.75c-2.94-4.58-11.85-8.59-22.72-9.73a24.85,24.85,0,0,0-2.85-.15Z"/><path class="cls-5" d="M373.64,224.75c3.72,3.71,6.23,12.48,6.23,22.21,0,11.18-7.49,20.75-9.87,23.51-2.39-2.76-9.88-12.33-9.88-23.51,0-9.46,2.33-18,5.9-21.86l3.26,8.44,1.08,2.79.82-2.88,2.46-8.7M373.1,223l-2.88,10.18-3.8-9.83c-4.25,3.4-7.3,12.69-7.3,23.61,0,13.81,10.88,25,10.88,25s10.87-11.2,10.87-25c0-11.32-3.27-20.89-7.77-24Z"/><path class="cls-5" d="M330.78,247.67c5.26,0,12.35,2.28,19,6.1,9.68,5.59,14.22,16.87,15.42,20.31a46.69,46.69,0,0,1-8.59.8c-6.49,0-12.11-1.34-16.71-4-8.2-4.73-14.39-11-16-16l8.94,1.4,3,.46-2.09-2.15-6.29-6.48a13.14,13.14,0,0,1,3.38-.39m0-1a12.16,12.16,0,0,0-5.17,1l7.37,7.59-10.41-1.62c.82,5.38,7.33,12.66,16.8,18.13,5.67,3.27,12.06,4.13,17.21,4.13a44.79,44.79,0,0,0,9.88-1.05s-4.26-15-16.21-21.93c-7.07-4.08-14.2-6.23-19.47-6.23Z"/><path class="cls-5" d="M357.29,279.26a45.78,45.78,0,0,1,8.59.81c-1.2,3.44-5.72,14.71-15.43,20.31-6.61,3.81-13.7,6.09-19,6.09a13.65,13.65,0,0,1-2.92-.28l5.67-7,1.88-2.33-2.9.73-8.76,2.22c1.35-5.08,7.69-11.64,16.12-16.5a33,33,0,0,1,16.71-4m0-1c-5.15,0-11.54.86-17.21,4.14-9.81,5.66-16.46,13.29-16.87,18.71l10.26-2.59-6.62,8.21a12.94,12.94,0,0,0,4.64.74c5.27,0,12.39-2.14,19.46-6.23,12-6.9,16.22-21.92,16.22-21.92a44.39,44.39,0,0,0-9.88-1.06Z"/><path class="cls-5" d="M371.41,282.45c2.39,2.76,9.88,12.32,9.88,23.51,0,9.46-2.33,18-5.9,21.86l-3.26-8.44-1.08-2.79-.82,2.88-2.46,8.7c-3.72-3.71-6.23-12.48-6.23-22.21,0-11.19,7.49-20.75,9.87-23.51m0-1.5s-10.87,11.2-10.87,25c0,11.32,3.27,20.89,7.77,24l2.88-10.18,3.8,9.83c4.25-3.4,7.3-12.69,7.3-23.61,0-13.81-10.88-25-10.88-25Z"/><path class="cls-5" d="M384.83,278c6.49,0,12.11,1.34,16.71,4,8.2,4.73,14.39,11,16,16l-8.94-1.4-3-.46,2.09,2.14,6.29,6.49a13.6,13.6,0,0,1-3.38.39c-5.26,0-12.35-2.28-19-6.1-9.69-5.59-14.23-16.87-15.42-20.31a46.65,46.65,0,0,1,8.58-.8m0-1a44.79,44.79,0,0,0-9.88,1s4.26,15,16.22,21.92c7.07,4.09,14.19,6.24,19.46,6.24a12,12,0,0,0,5.17-1l-7.37-7.58,10.41,1.62c-.82-5.38-7.33-12.66-16.8-18.13C396.37,277.9,390,277,384.83,277Z"/><path class="cls-5" d="M409.92,246.45a13.65,13.65,0,0,1,2.92.28l-5.67,7-1.88,2.33,2.9-.74,8.76-2.21c-1.35,5.08-7.69,11.64-16.12,16.5-4.6,2.66-10.22,4-16.71,4a46.65,46.65,0,0,1-8.58-.8c1.19-3.44,5.73-14.72,15.42-20.31,6.61-3.82,13.7-6.09,19-6.09m0-1c-5.27,0-12.39,2.14-19.46,6.23-12,6.9-16.22,21.92-16.22,21.92a44.79,44.79,0,0,0,9.88,1c5.15,0,11.54-.86,17.21-4.13,9.81-5.67,16.46-13.29,16.87-18.71L408,254.4l6.61-8.21a12.94,12.94,0,0,0-4.64-.74Z"/><path class="cls-6" d="M56.39,336.25c3.72,3.71,6.23,12.48,6.23,22.21,0,11.18-7.49,20.75-9.87,23.51-2.39-2.75-9.88-12.31-9.88-23.51,0-9.46,2.33-17.95,5.9-21.86L52,345l1.08,2.79.82-2.88,2.46-8.7m-.54-1.75L53,344.68l-3.8-9.83c-4.25,3.4-7.3,12.69-7.3,23.61,0,13.81,10.88,25,10.88,25s10.87-11.2,10.87-25c0-11.32-3.27-20.89-7.77-24Z"/><path class="cls-6" d="M13.53,359.17c5.26,0,12.35,2.28,19,6.1,9.68,5.59,14.22,16.87,15.42,20.31a46.89,46.89,0,0,1-8.59.8c-6.49,0-12.11-1.34-16.71-4-8.2-4.73-14.39-11-16-16.05l8.94,1.4,3,.46L16.44,366l-6.29-6.48a13.14,13.14,0,0,1,3.38-.39m0-1a12.16,12.16,0,0,0-5.17,1l7.37,7.59L5.32,365.12c.82,5.38,7.33,12.66,16.8,18.13,5.67,3.27,12.06,4.13,17.21,4.13a44.79,44.79,0,0,0,9.88-1.05S45,371.31,33,364.4c-7.07-4.08-14.2-6.23-19.47-6.23Z"/><path class="cls-6" d="M40,390.76a45.78,45.78,0,0,1,8.59.81c-1.2,3.44-5.72,14.71-15.43,20.31-6.61,3.81-13.7,6.09-19,6.09a13.65,13.65,0,0,1-2.92-.28l5.67-7,1.88-2.33-2.9.73-8.76,2.22c1.35-5.08,7.69-11.64,16.12-16.5a33,33,0,0,1,16.71-4m0-1c-5.15,0-11.54.86-17.21,4.14C13,399.56,6.37,407.19,6,412.61L16.22,410,9.6,418.23a12.94,12.94,0,0,0,4.64.74c5.27,0,12.39-2.14,19.46-6.23,12-6.9,16.22-21.92,16.22-21.92A44.39,44.39,0,0,0,40,389.76Z"/><path class="cls-6" d="M54.16,394c2.39,2.76,9.88,12.32,9.88,23.51,0,9.46-2.33,18-5.9,21.86l-3.26-8.44-1.08-2.79L53,431l-2.46,8.7c-3.72-3.71-6.23-12.48-6.23-22.21,0-11.19,7.49-20.75,9.87-23.51m0-1.5s-10.87,11.2-10.87,25c0,11.32,3.27,20.89,7.77,24l2.88-10.18,3.8,9.83c4.25-3.4,7.3-12.69,7.3-23.61,0-13.81-10.88-25-10.88-25Z"/><path class="cls-6" d="M67.58,389.54c6.49,0,12.11,1.34,16.71,4,8.2,4.73,14.39,11,16,16l-8.94-1.4-3-.46,2.09,2.14,6.29,6.49a13.6,13.6,0,0,1-3.38.39c-5.26,0-12.35-2.28-19-6.1-9.69-5.59-14.23-16.87-15.42-20.31a45.57,45.57,0,0,1,8.58-.8m0-1a44.79,44.79,0,0,0-9.88,1s4.26,15,16.22,21.92c7.07,4.09,14.19,6.24,19.46,6.24a12,12,0,0,0,5.17-1l-7.37-7.58,10.41,1.62c-.82-5.38-7.33-12.66-16.8-18.13-5.67-3.27-12.06-4.13-17.21-4.13Z"/><path class="cls-6" d="M92.67,358a13.65,13.65,0,0,1,2.92.28l-5.67,7L88,367.6l2.9-.74,8.76-2.21c-1.35,5.08-7.69,11.64-16.12,16.5-4.6,2.66-10.22,4-16.71,4a46.65,46.65,0,0,1-8.58-.8C59.48,380.91,64,369.64,73.71,364c6.61-3.82,13.7-6.09,19-6.09m0-1c-5.27,0-12.39,2.14-19.46,6.23C61.25,370.08,57,385.1,57,385.1a44.79,44.79,0,0,0,9.88,1c5.15,0,11.54-.86,17.21-4.13,9.81-5.67,16.46-13.29,16.87-18.71L90.7,365.9l6.61-8.21a12.94,12.94,0,0,0-4.64-.74Z"/><path class="cls-7" d="M267.89,336.25c3.72,3.71,6.23,12.48,6.23,22.21,0,11.18-7.49,20.75-9.87,23.51-2.39-2.75-9.88-12.31-9.88-23.51,0-9.46,2.33-17.95,5.9-21.86l3.26,8.44,1.08,2.79.82-2.88,2.46-8.7m-.54-1.75-2.88,10.18-3.8-9.83c-4.25,3.4-7.3,12.69-7.3,23.61,0,13.81,10.88,25,10.88,25s10.87-11.2,10.87-25c0-11.32-3.27-20.89-7.77-24Z"/><path class="cls-7" d="M225,359.17c5.26,0,12.35,2.28,19,6.1,9.68,5.59,14.22,16.87,15.42,20.31a46.89,46.89,0,0,1-8.59.8c-6.49,0-12.11-1.34-16.71-4-8.2-4.73-14.39-11-16-16.05l8.94,1.4,3,.46L227.94,366l-6.29-6.48a13.14,13.14,0,0,1,3.38-.39m0-1a12.16,12.16,0,0,0-5.17,1l7.37,7.59-10.41-1.62c.82,5.38,7.33,12.66,16.8,18.13,5.67,3.27,12.06,4.13,17.21,4.13a44.79,44.79,0,0,0,9.88-1.05s-4.26-15-16.21-21.93c-7.07-4.08-14.2-6.23-19.47-6.23Z"/><path class="cls-7" d="M251.54,390.76a45.78,45.78,0,0,1,8.59.81c-1.2,3.44-5.72,14.71-15.43,20.31-6.61,3.81-13.7,6.09-19,6.09a13.65,13.65,0,0,1-2.92-.28l5.67-7,1.88-2.33-2.9.73-8.76,2.22c1.35-5.08,7.69-11.64,16.12-16.5a33,33,0,0,1,16.71-4m0-1c-5.15,0-11.54.86-17.21,4.14-9.81,5.66-16.46,13.29-16.87,18.71L227.72,410l-6.62,8.21a12.94,12.94,0,0,0,4.64.74c5.27,0,12.39-2.14,19.46-6.23,12-6.9,16.22-21.92,16.22-21.92a44.39,44.39,0,0,0-9.88-1.06Z"/><path class="cls-7" d="M265.66,394c2.39,2.76,9.88,12.32,9.88,23.51,0,9.46-2.33,18-5.9,21.86l-3.26-8.44-1.08-2.79-.82,2.88-2.46,8.7c-3.72-3.71-6.23-12.48-6.23-22.21,0-11.19,7.49-20.75,9.87-23.51m0-1.5s-10.87,11.2-10.87,25c0,11.32,3.27,20.89,7.77,24l2.88-10.18,3.8,9.83c4.25-3.4,7.3-12.69,7.3-23.61,0-13.81-10.88-25-10.88-25Z"/><path class="cls-7" d="M279.08,389.54c6.49,0,12.11,1.34,16.71,4,8.2,4.73,14.39,11,16,16l-8.94-1.4-3-.46,2.09,2.14,6.29,6.49a13.6,13.6,0,0,1-3.38.39c-5.26,0-12.35-2.28-19-6.1-9.69-5.59-14.23-16.87-15.42-20.31a46.65,46.65,0,0,1,8.58-.8m0-1a44.79,44.79,0,0,0-9.88,1s4.26,15,16.22,21.92c7.07,4.09,14.19,6.24,19.46,6.24a12,12,0,0,0,5.17-1l-7.37-7.58,10.41,1.62c-.82-5.38-7.33-12.66-16.8-18.13-5.67-3.27-12.06-4.13-17.21-4.13Z"/><path class="cls-7" d="M304.17,358a13.65,13.65,0,0,1,2.92.28l-5.67,7-1.88,2.33,2.9-.74,8.76-2.21c-1.35,5.08-7.69,11.64-16.12,16.5-4.6,2.66-10.22,4-16.71,4a46.65,46.65,0,0,1-8.58-.8c1.19-3.44,5.72-14.71,15.42-20.31,6.61-3.82,13.7-6.09,19-6.09m0-1c-5.27,0-12.39,2.14-19.46,6.23-12,6.9-16.22,21.92-16.22,21.92a44.79,44.79,0,0,0,9.88,1c5.15,0,11.54-.86,17.21-4.13,9.81-5.67,16.46-13.29,16.87-18.71L302.2,365.9l6.61-8.21a12.94,12.94,0,0,0-4.64-.74Z"/><path class="cls-8" d="M183.09,342.25l-1.83,8.86-.6,2.93,2.24-2,6.79-6c1.12,5.13-1.53,13.86-6.8,22-6.06,9.4-17.54,13.38-21,14.41-.51-3.6-1.63-15.7,4.43-25.11,5.13-8,11.69-13.83,16.81-15.18m1.28-1.25c-5.41.55-13,6.7-18.93,15.89C158,368.5,161,383.8,161,383.8s15.21-3.52,22.69-15.13c6.14-9.52,8.56-19.33,6.45-24.35l-7.94,7L184.37,341Z"/><path class="cls-9" d="M138.19,340.63c5,1.59,11.24,8.25,15.69,16.9,5.11,10,2.82,21.88,2,25.43-3.38-1.37-14.42-6.45-19.53-16.4-4.33-8.41-6.14-17-4.75-22.14l6.76,6,2.24,2-.59-2.93-1.78-8.86m-1.29-1.31L139,349.69l-7.87-7c-2.23,5-.7,14.62,4.3,24.34,6.31,12.28,21.1,17.27,21.1,17.27s4.56-14.93-1.75-27.21C149.59,347,142.3,340,136.9,339.32Z"/><path class="cls-8" d="M127.42,377.29c.91,0,1.85,0,2.77.07,11.17.55,20.36,8.5,23,11-2.76,2.16-12,8.74-22.71,8.74l-1.25,0c-9.46-.46-17.82-3.2-21.56-7l8.59-2.85,2.85-.94-2.84-1-8.56-2.88c3.49-3.16,11.1-5.21,19.71-5.21m0-1c-10.08,0-18.48,2.69-21.49,6.66l10,3.38-10,3.32c3.19,4.41,12.31,7.91,23.23,8.44.43,0,.87,0,1.3,0,13.22,0,24.2-9.67,24.2-9.67S144,377,130.24,376.36c-1-.05-1.89-.07-2.82-.07Z"/><path class="cls-9" d="M156.56,393.38c.51,3.61,1.62,15.71-4.43,25.11-5.13,8-11.69,13.83-16.81,15.18l1.83-8.86.6-2.93-2.24,2-6.79,6c-1.11-5.13,1.53-13.86,6.8-22,6.06-9.4,17.54-13.38,21-14.41m.81-1.26s-15.21,3.52-22.69,15.12c-6.14,9.53-8.56,19.34-6.45,24.36l7.94-7L134,434.92c5.41-.55,13-6.7,18.93-15.89,7.48-11.61,4.4-26.91,4.4-26.91Z"/><path class="cls-8" d="M162.57,393c3.38,1.37,14.42,6.45,19.53,16.39,4.33,8.42,6.14,17,4.75,22.15l-6.76-6-2.24-2,.59,2.93,1.79,8.86c-5-1.59-11.25-8.25-15.7-16.9-5.11-9.95-2.82-21.89-2-25.43m-.68-1.33s-4.56,14.93,1.75,27.21c5.18,10.08,12.47,17.08,17.87,17.76l-2.09-10.37,7.87,7c2.23-5,.7-14.62-4.3-24.34-6.31-12.28-21.1-17.27-21.1-17.27Z"/><path class="cls-9" d="M187.93,378.8l1.25,0c9.46.46,17.82,3.2,21.56,7l-8.59,2.85-2.84.94,2.83.95,8.56,2.89c-3.49,3.16-11.1,5.21-19.71,5.21-.91,0-1.85,0-2.77-.07-11.17-.55-20.36-8.5-23-11,2.76-2.16,12-8.74,22.71-8.74m0-1c-13.22,0-24.2,9.67-24.2,9.67s10.65,11.41,24.44,12.09c1,0,1.9.07,2.82.07,10.09,0,18.48-2.69,21.49-6.66l-10-3.38,10-3.32c-3.19-4.41-12.31-7.91-23.23-8.44-.43,0-.87,0-1.3,0Z"/><path class="cls-10" d="M479.39,336.25c3.72,3.71,6.23,12.48,6.23,22.21,0,11.18-7.49,20.75-9.87,23.51-2.39-2.76-9.88-12.33-9.88-23.51,0-9.46,2.33-17.95,5.9-21.86L475,345l1.08,2.79.82-2.88,2.46-8.7m-.54-1.75L476,344.68l-3.8-9.83c-4.25,3.4-7.3,12.69-7.3,23.61,0,13.81,10.88,25,10.88,25s10.87-11.2,10.87-25c0-11.32-3.27-20.89-7.77-24Z"/><path class="cls-10" d="M436.53,359.17c5.26,0,12.35,2.28,19,6.1,9.68,5.59,14.22,16.87,15.42,20.31a46.89,46.89,0,0,1-8.59.8c-6.49,0-12.11-1.34-16.71-4-8.2-4.73-14.39-11-16-16.05l8.94,1.4,3,.46L439.44,366l-6.29-6.48a13.14,13.14,0,0,1,3.38-.39m0-1a12.16,12.16,0,0,0-5.17,1l7.37,7.59-10.41-1.62c.82,5.38,7.33,12.66,16.8,18.13,5.67,3.27,12.06,4.13,17.21,4.13a44.79,44.79,0,0,0,9.88-1.05S468,371.31,456,364.4c-7.07-4.08-14.2-6.23-19.47-6.23Z"/><path class="cls-10" d="M463,390.76a45.55,45.55,0,0,1,8.58.81c-1.19,3.44-5.73,14.72-15.42,20.31-6.61,3.81-13.7,6.09-19,6.09a13.65,13.65,0,0,1-2.92-.28l5.67-7,1.88-2.33-2.9.73-8.76,2.22c1.35-5.08,7.69-11.64,16.12-16.5a33,33,0,0,1,16.71-4m0-1c-5.15,0-11.54.86-17.21,4.14-9.81,5.66-16.46,13.29-16.87,18.71L439.22,410l-6.62,8.21a12.94,12.94,0,0,0,4.64.74c5.27,0,12.39-2.14,19.46-6.23,12-6.9,16.22-21.92,16.22-21.92a44.39,44.39,0,0,0-9.88-1.06Z"/><path class="cls-10" d="M477.16,394c2.39,2.76,9.88,12.32,9.88,23.51,0,9.46-2.33,18-5.9,21.86l-3.26-8.44-1.08-2.79L476,431l-2.46,8.7c-3.72-3.71-6.23-12.48-6.23-22.21,0-11.19,7.49-20.75,9.87-23.51m0-1.5s-10.87,11.2-10.87,25c0,11.32,3.27,20.89,7.77,24l2.88-10.18,3.8,9.83c4.25-3.4,7.3-12.69,7.3-23.61,0-13.81-10.88-25-10.88-25Z"/><path class="cls-10" d="M490.58,389.54c6.49,0,12.11,1.34,16.71,4,8.2,4.73,14.39,11,16,16l-8.94-1.4-3-.46,2.09,2.14,6.29,6.49a13.6,13.6,0,0,1-3.38.39c-5.26,0-12.35-2.28-19-6.1-9.69-5.59-14.23-16.87-15.42-20.31a46.65,46.65,0,0,1,8.58-.8m0-1a44.79,44.79,0,0,0-9.88,1s4.26,15,16.22,21.92c7.07,4.09,14.19,6.24,19.46,6.24a12,12,0,0,0,5.17-1l-7.37-7.58,10.41,1.62c-.82-5.38-7.33-12.66-16.8-18.13-5.67-3.27-12.06-4.13-17.21-4.13Z"/><path class="cls-10" d="M515.67,358a13.65,13.65,0,0,1,2.92.28l-5.67,7L511,367.6l2.9-.74,8.76-2.21c-1.35,5.08-7.69,11.64-16.12,16.5-4.6,2.66-10.22,4-16.71,4a46.65,46.65,0,0,1-8.58-.8c1.19-3.44,5.72-14.71,15.42-20.31,6.61-3.82,13.7-6.09,19-6.09m0-1c-5.27,0-12.39,2.14-19.46,6.23-12,6.9-16.22,21.92-16.22,21.92a44.79,44.79,0,0,0,9.88,1c5.15,0,11.54-.86,17.21-4.13,9.81-5.67,16.46-13.29,16.87-18.71L513.7,365.9l6.61-8.21a12.94,12.94,0,0,0-4.64-.74Z"/><path class="cls-11" d="M394.33,342.11,392.55,351l-.59,2.93,2.24-2,6.75-6c1.14,5.12-1.45,13.87-6.67,22.08-6,9.43-17.47,13.48-21,14.53-.53-3.61-1.71-15.71,4.29-25.14,5.08-8,11.61-13.9,16.72-15.28m1.27-1.26c-5.41.59-13,6.78-18.83,16-7.42,11.65-4.25,26.94-4.25,26.94s15.19-3.61,22.6-15.26c6.08-9.55,8.45-19.38,6.31-24.38l-7.9,7,2.07-10.33Z"/><path class="cls-12" d="M349.41,340.75c5,1.57,11.3,8.18,15.79,16.81,5.17,9.92,2.95,21.87,2.11,25.42-3.39-1.34-14.45-6.35-19.63-16.28-4.37-8.4-6.23-17-4.87-22.12l6.8,6,2.24,2-.6-2.93-1.84-8.85m-1.29-1.31,2.15,10.36-7.91-7c-2.2,5-.61,14.63,4.44,24.32C353.18,379.4,368,384.3,368,384.3s4.47-14.95-1.91-27.2c-5.23-10-12.56-17-18-17.66Z"/><path class="cls-11" d="M339.18,377.47c.81,0,1.63,0,2.45.06,11.17.48,20.41,8.38,23.06,10.88-2.76,2.19-12.09,8.88-22.8,8.88l-1.11,0c-9.46-.4-17.84-3.1-21.59-6.84l8.57-2.89,2.84-1-2.84-.94-8.59-2.84c3.52-3.22,11.25-5.32,20-5.32m0-1c-10.23,0-18.76,2.76-21.78,6.79l10,3.32-10,3.37c3.21,4.39,12.36,7.84,23.28,8.31.38,0,.77,0,1.15,0,13.28,0,24.3-9.82,24.3-9.82s-10.72-11.35-24.51-11.94c-.85,0-1.68-.06-2.5-.06Z"/><path class="cls-12" d="M368.09,393.39c.53,3.61,1.71,15.71-4.29,25.14-5.08,8-11.61,13.89-16.72,15.28l1.78-8.88.59-2.93-2.24,2-6.75,6c-1.14-5.12,1.45-13.87,6.67-22.08,6-9.43,17.47-13.48,21-14.53m.8-1.26s-15.19,3.6-22.6,15.25c-6.08,9.56-8.45,19.39-6.31,24.39l7.9-7-2.07,10.33c5.41-.59,13-6.79,18.83-16,7.42-11.65,4.25-26.94,4.25-26.94Z"/><path class="cls-11" d="M374.1,392.94c3.39,1.35,14.46,6.37,19.63,16.28,4.37,8.4,6.23,17,4.87,22.12l-6.8-6-2.24-2,.6,2.93,1.84,8.85c-5-1.57-11.3-8.19-15.79-16.82-5.17-9.91-2.95-21.86-2.11-25.41m-.69-1.32s-4.47,14.95,1.91,27.2c5.23,10,12.56,17,18,17.65l-2.15-10.35,7.91,7c2.2-5,.61-14.63-4.44-24.32-6.38-12.24-21.2-17.14-21.2-17.14Z"/><path class="cls-12" d="M399.53,378.63l1.1,0c9.46.41,17.84,3.11,21.59,6.85l-8.57,2.89-2.84,1,2.84.94,8.59,2.84c-3.52,3.22-11.25,5.32-20,5.32-.81,0-1.63,0-2.45-.06-11.17-.48-20.41-8.38-23.06-10.88,2.76-2.19,12.1-8.88,22.81-8.88m0-1c-13.29,0-24.3,9.81-24.3,9.81s10.71,11.36,24.51,11.95q1.26.06,2.49.06c10.23,0,18.76-2.76,21.78-6.79l-10-3.32L424,386c-3.21-4.39-12.36-7.84-23.28-8.31q-.57,0-1.14,0Z"/><path class="cls-13" d="M56.39,113.25c3.72,3.71,6.23,12.48,6.23,22.21,0,11.18-7.49,20.75-9.87,23.51-2.39-2.75-9.88-12.31-9.88-23.51,0-9.46,2.33-18,5.9-21.86L52,122l1.08,2.79.82-2.88,2.46-8.7m-.54-1.75L53,121.68l-3.8-9.83c-4.25,3.4-7.3,12.69-7.3,23.61,0,13.81,10.88,25,10.88,25s10.87-11.2,10.87-25c0-11.32-3.27-20.89-7.77-24Z"/><path class="cls-13" d="M13.53,136.17c5.26,0,12.35,2.28,19,6.1,9.68,5.59,14.22,16.87,15.42,20.31a46.89,46.89,0,0,1-8.59.8c-6.49,0-12.11-1.34-16.71-4-8.2-4.73-14.39-11-16-16l8.94,1.4,3,.46L16.44,143l-6.29-6.48a13.14,13.14,0,0,1,3.38-.39m0-1a12.16,12.16,0,0,0-5.17,1l7.37,7.59L5.32,142.12c.82,5.38,7.33,12.66,16.8,18.13,5.67,3.27,12.06,4.13,17.21,4.13a44.79,44.79,0,0,0,9.88-1S45,148.31,33,141.4c-7.07-4.08-14.2-6.23-19.47-6.23Z"/><path class="cls-13" d="M40,167.76a45.55,45.55,0,0,1,8.58.81c-1.19,3.44-5.73,14.72-15.42,20.31-6.61,3.81-13.7,6.09-19,6.09a13.65,13.65,0,0,1-2.92-.28l5.67-7,1.88-2.33-2.9.73-8.76,2.22c1.35-5.08,7.69-11.64,16.12-16.5a33,33,0,0,1,16.71-4m0-1c-5.15,0-11.54.86-17.21,4.14C13,176.56,6.37,184.19,6,189.61L16.22,187,9.6,195.23a12.94,12.94,0,0,0,4.64.74c5.27,0,12.39-2.14,19.46-6.23,12-6.9,16.22-21.92,16.22-21.92A44.39,44.39,0,0,0,40,166.76Z"/><path class="cls-13" d="M54.16,171c2.39,2.76,9.88,12.32,9.88,23.51,0,9.46-2.33,17.95-5.9,21.86l-3.26-8.44-1.08-2.79L53,208l-2.46,8.7c-3.72-3.71-6.23-12.48-6.23-22.21,0-11.19,7.49-20.75,9.87-23.51m0-1.5s-10.87,11.2-10.87,25c0,11.32,3.27,20.89,7.77,24l2.88-10.18,3.8,9.83c4.25-3.4,7.3-12.69,7.3-23.61,0-13.81-10.88-25-10.88-25Z"/><path class="cls-13" d="M67.58,166.54c6.49,0,12.11,1.34,16.71,4,8.2,4.73,14.39,11,16,16.05l-8.94-1.4-3-.46,2.09,2.14,6.29,6.49a13.6,13.6,0,0,1-3.38.39c-5.26,0-12.35-2.28-19-6.1-9.69-5.59-14.23-16.87-15.42-20.31a46.65,46.65,0,0,1,8.58-.8m0-1a44.79,44.79,0,0,0-9.88,1.05s4.26,15,16.22,21.92c7.07,4.09,14.19,6.24,19.46,6.24a12,12,0,0,0,5.17-1l-7.37-7.58,10.41,1.62c-.82-5.38-7.33-12.66-16.8-18.13-5.67-3.27-12.06-4.13-17.21-4.13Z"/><path class="cls-13" d="M92.67,135a13.65,13.65,0,0,1,2.92.28l-5.67,7L88,144.6l2.9-.74,8.76-2.21c-1.35,5.08-7.69,11.64-16.12,16.5-4.6,2.66-10.22,4-16.71,4a46.65,46.65,0,0,1-8.58-.8C59.48,157.91,64,146.63,73.71,141c6.61-3.82,13.7-6.09,19-6.09m0-1c-5.27,0-12.39,2.14-19.46,6.23C61.25,147.08,57,162.1,57,162.1a44.79,44.79,0,0,0,9.88,1.05c5.15,0,11.54-.86,17.21-4.13,9.81-5.67,16.46-13.29,16.87-18.71L90.7,142.9l6.61-8.21a12.94,12.94,0,0,0-4.64-.74Z"/><path class="cls-14" d="M267.89,113.25c3.72,3.71,6.23,12.48,6.23,22.21,0,11.18-7.49,20.75-9.87,23.51-2.39-2.75-9.88-12.31-9.88-23.51,0-9.46,2.33-18,5.9-21.86l3.26,8.44,1.08,2.79.82-2.88,2.46-8.7m-.54-1.75-2.88,10.18-3.8-9.83c-4.25,3.4-7.3,12.69-7.3,23.61,0,13.81,10.88,25,10.88,25s10.87-11.2,10.87-25c0-11.32-3.27-20.89-7.77-24Z"/><path class="cls-14" d="M225,136.17c5.26,0,12.35,2.28,19,6.1,9.68,5.59,14.22,16.87,15.42,20.31a46.89,46.89,0,0,1-8.59.8c-6.49,0-12.11-1.34-16.71-4-8.2-4.73-14.39-11-16-16l8.94,1.4,3,.46L227.94,143l-6.29-6.48a13.14,13.14,0,0,1,3.38-.39m0-1a12.16,12.16,0,0,0-5.17,1l7.37,7.59-10.41-1.62c.82,5.38,7.33,12.66,16.8,18.13,5.67,3.27,12.06,4.13,17.21,4.13a44.79,44.79,0,0,0,9.88-1s-4.26-15-16.21-21.93c-7.07-4.08-14.2-6.23-19.47-6.23Z"/><path class="cls-14" d="M251.54,167.76a45.55,45.55,0,0,1,8.58.81c-1.19,3.44-5.73,14.72-15.42,20.31-6.61,3.81-13.7,6.09-19,6.09a13.65,13.65,0,0,1-2.92-.28l5.67-7,1.88-2.33-2.9.73-8.76,2.22c1.35-5.08,7.69-11.64,16.12-16.5a33,33,0,0,1,16.71-4m0-1c-5.15,0-11.54.86-17.21,4.14-9.81,5.66-16.46,13.29-16.87,18.71L227.72,187l-6.62,8.21a12.94,12.94,0,0,0,4.64.74c5.27,0,12.39-2.14,19.46-6.23,12-6.9,16.22-21.92,16.22-21.92a44.39,44.39,0,0,0-9.88-1.06Z"/><path class="cls-14" d="M265.66,171c2.39,2.76,9.88,12.32,9.88,23.51,0,9.46-2.33,17.95-5.9,21.86l-3.26-8.44-1.08-2.79-.82,2.88-2.46,8.7c-3.72-3.71-6.23-12.48-6.23-22.21,0-11.19,7.49-20.75,9.87-23.51m0-1.5s-10.87,11.2-10.87,25c0,11.32,3.27,20.89,7.77,24l2.88-10.18,3.8,9.83c4.25-3.4,7.3-12.69,7.3-23.61,0-13.81-10.88-25-10.88-25Z"/><path class="cls-14" d="M279.08,166.54c6.49,0,12.11,1.34,16.71,4,8.2,4.73,14.39,11,16,16.05l-8.94-1.4-3-.46,2.09,2.14,6.29,6.49a13.6,13.6,0,0,1-3.38.39c-5.26,0-12.35-2.28-19-6.1-9.69-5.59-14.23-16.87-15.42-20.31a46.65,46.65,0,0,1,8.58-.8m0-1a44.79,44.79,0,0,0-9.88,1.05s4.26,15,16.22,21.92c7.07,4.09,14.19,6.24,19.46,6.24a12,12,0,0,0,5.17-1l-7.37-7.58,10.41,1.62c-.82-5.38-7.33-12.66-16.8-18.13-5.67-3.27-12.06-4.13-17.21-4.13Z"/><path class="cls-14" d="M304.17,135a13.65,13.65,0,0,1,2.92.28l-5.67,7-1.88,2.33,2.9-.74,8.76-2.21c-1.35,5.08-7.69,11.64-16.12,16.5-4.6,2.66-10.22,4-16.71,4a46.65,46.65,0,0,1-8.58-.8c1.19-3.44,5.73-14.72,15.42-20.31,6.61-3.82,13.7-6.09,19-6.09m0-1c-5.27,0-12.39,2.14-19.46,6.23-12,6.9-16.22,21.92-16.22,21.92a44.79,44.79,0,0,0,9.88,1.05c5.15,0,11.54-.86,17.21-4.13,9.81-5.67,16.46-13.29,16.87-18.71L302.2,142.9l6.61-8.21a12.94,12.94,0,0,0-4.64-.74Z"/><path class="cls-15" d="M181.3,118.35l-1.49,8.93-.49,2.95,2.17-2.06,6.55-6.23c1.31,5.08-1,13.91-5.94,22.29-5.68,9.63-17,14.05-20.46,15.21-.65-3.58-2.24-15.62,3.45-25.26,4.82-8.15,11.14-14.27,16.21-15.83m1.23-1.3c-5.39.77-12.74,7.21-18.3,16.62-7,11.89-3.35,27.06-3.35,27.06s15.06-4.1,22.08-16c5.77-9.76,7.81-19.66,5.5-24.59l-7.66,7.3,1.73-10.4Z"/><path class="cls-16" d="M136.36,118.48c5.06,1.4,11.56,7.81,16.34,16.28,5.49,9.74,3.67,21.76,3,25.33-3.44-1.23-14.66-5.88-20.16-15.62-4.65-8.24-6.79-16.78-5.6-22l7,5.75,2.31,1.9-.7-2.9-2.13-8.79M135,117.22l2.49,10.28-8.14-6.69c-2,5-.13,14.63,5.24,24.15,6.79,12,21.76,16.43,21.76,16.43s4-15.09-2.81-27.12c-5.56-9.86-13.12-16.58-18.54-17.05Z"/><path class="cls-15" d="M129.23,155.49h.57c11.18.11,20.68,7.7,23.41,10.11-2.76,2.34-12.28,9.64-23.35,9.64h-.26c-9.46-.09-17.93-2.51-21.8-6.12l8.47-3.18,2.8-1-2.87-.85-8.67-2.55c3.67-3.59,12.23-6,21.7-6m0-1c-11.08,0-20.39,3.15-23.46,7.54l10.15,3-9.86,3.7c3.35,4.29,12.61,7.43,23.53,7.54h.27c13.69,0,24.85-10.63,24.85-10.63s-11.09-11-24.9-11.12Z"/><path class="cls-16" d="M156.77,170.48c.65,3.58,2.23,15.63-3.45,25.26-4.82,8.15-11.14,14.27-16.21,15.82l1.49-8.92.49-2.95-2.17,2.06L130.37,208c-1.31-5.08,1-13.91,5.94-22.29,5.68-9.63,17-14.05,20.46-15.21m.76-1.29s-15.06,4.1-22.08,16c-5.77,9.75-7.81,19.66-5.5,24.59l7.66-7.3-1.73,10.4c5.39-.77,12.74-7.21,18.3-16.62,7-11.89,3.35-27.06,3.35-27.06Z"/><path class="cls-15" d="M162.77,169.83c3.43,1.23,14.66,5.88,20.15,15.62,4.65,8.24,6.79,16.78,5.6,22l-7-5.75-2.31-1.9.7,2.9,2.13,8.79c-5.06-1.4-11.56-7.81-16.34-16.28-5.49-9.74-3.67-21.76-2.94-25.33m-.74-1.31s-4,15.1,2.81,27.13c5.56,9.86,13.12,16.58,18.54,17l-2.49-10.28,8.14,6.69c2-5.05.13-14.63-5.24-24.15C177,172.93,162,168.52,162,168.52Z"/><path class="cls-16" d="M188.55,154.67h.26c9.46.09,17.93,2.51,21.8,6.12L202.14,164l-2.8,1.05,2.87.84,8.67,2.56c-3.67,3.59-12.23,6-21.69,6h-.58c-11.18-.11-20.67-7.7-23.41-10.11,2.76-2.34,12.28-9.64,23.35-9.64m0-1c-13.69,0-24.84,10.63-24.84,10.63s11.08,11,24.89,11.12h.59c11.07,0,20.38-3.15,23.45-7.54l-10.15-3,9.86-3.7c-3.35-4.29-12.61-7.43-23.53-7.54Z"/><path class="cls-17" d="M479.39,113.25c3.72,3.71,6.23,12.48,6.23,22.21,0,11.18-7.49,20.75-9.87,23.51-2.39-2.76-9.88-12.33-9.88-23.51,0-9.46,2.33-18,5.9-21.86L475,122l1.08,2.79.82-2.88,2.46-8.7m-.54-1.75L476,121.68l-3.8-9.83c-4.25,3.4-7.3,12.69-7.3,23.61,0,13.81,10.88,25,10.88,25s10.87-11.2,10.87-25c0-11.32-3.27-20.89-7.77-24Z"/><path class="cls-17" d="M436.53,136.17c5.26,0,12.35,2.28,19,6.1,9.68,5.59,14.22,16.87,15.42,20.31a46.69,46.69,0,0,1-8.59.8c-6.49,0-12.11-1.34-16.71-4-8.2-4.73-14.39-11-16-16l8.94,1.4,3,.46L439.44,143l-6.29-6.48a13.14,13.14,0,0,1,3.38-.39m0-1a12.16,12.16,0,0,0-5.17,1l7.37,7.59-10.41-1.62c.82,5.38,7.33,12.66,16.8,18.13,5.67,3.27,12.06,4.13,17.21,4.13a44.79,44.79,0,0,0,9.88-1S468,148.31,456,141.4c-7.07-4.08-14.2-6.23-19.47-6.23Z"/><path class="cls-17" d="M463,167.76a45.78,45.78,0,0,1,8.59.81c-1.2,3.44-5.72,14.71-15.43,20.31-6.61,3.81-13.7,6.09-19,6.09a13.65,13.65,0,0,1-2.92-.28l5.67-7,1.88-2.33-2.9.73-8.76,2.22c1.35-5.08,7.69-11.64,16.12-16.5a33,33,0,0,1,16.71-4m0-1c-5.15,0-11.54.86-17.21,4.14-9.81,5.66-16.46,13.29-16.87,18.71L439.22,187l-6.62,8.21a12.94,12.94,0,0,0,4.64.74c5.27,0,12.39-2.14,19.46-6.23,12-6.9,16.22-21.92,16.22-21.92a44.39,44.39,0,0,0-9.88-1.06Z"/><path class="cls-17" d="M477.16,171c2.39,2.76,9.88,12.32,9.88,23.51,0,9.46-2.33,17.95-5.9,21.86l-3.26-8.44-1.08-2.79L476,208l-2.46,8.7c-3.72-3.71-6.23-12.48-6.23-22.21,0-11.19,7.49-20.75,9.87-23.51m0-1.5s-10.87,11.2-10.87,25c0,11.32,3.27,20.89,7.77,24l2.88-10.18,3.8,9.83c4.25-3.4,7.3-12.69,7.3-23.61,0-13.81-10.88-25-10.88-25Z"/><path class="cls-17" d="M490.58,166.54c6.49,0,12.11,1.34,16.71,4,8.2,4.73,14.39,11,16,16.05l-8.94-1.4-3-.46,2.09,2.14,6.29,6.49a13.6,13.6,0,0,1-3.38.39c-5.26,0-12.35-2.28-19-6.1-9.69-5.59-14.23-16.87-15.42-20.31a46.65,46.65,0,0,1,8.58-.8m0-1a44.79,44.79,0,0,0-9.88,1.05s4.26,15,16.22,21.92c7.07,4.09,14.19,6.24,19.46,6.24a12,12,0,0,0,5.17-1l-7.37-7.58,10.41,1.62c-.82-5.38-7.33-12.66-16.8-18.13-5.67-3.27-12.06-4.13-17.21-4.13Z"/><path class="cls-17" d="M515.67,135a13.65,13.65,0,0,1,2.92.28l-5.67,7L511,144.6l2.9-.74,8.76-2.21c-1.35,5.08-7.69,11.64-16.12,16.5-4.6,2.66-10.22,4-16.71,4a46.65,46.65,0,0,1-8.58-.8c1.19-3.44,5.73-14.72,15.42-20.31,6.61-3.82,13.7-6.09,19-6.09m0-1c-5.27,0-12.39,2.14-19.46,6.23-12,6.9-16.22,21.92-16.22,21.92a44.79,44.79,0,0,0,9.88,1.05c5.15,0,11.54-.86,17.21-4.13,9.81-5.67,16.46-13.29,16.87-18.71L513.7,142.9l6.61-8.21a12.94,12.94,0,0,0-4.64-.74Z"/><path class="cls-18" d="M400.26,154.34c9.43,0,17.9,2.32,21.8,5.88l-8.43,3.27-2.79,1.08,2.88.81,8.7,2.46c-3.71,3.72-12.48,6.24-22.24,6.25-11.17,0-20.73-7.47-23.49-9.85,2.75-2.38,12.3-9.89,23.5-9.9h.07m0-1h-.07c-13.81,0-25,10.9-25,10.9s11.19,10.85,25,10.85h0c11.33,0,20.89-3.3,24-7.8L414,164.42l9.82-3.81c-3.4-4.24-12.66-7.27-23.55-7.27Z"/><path class="cls-19" d="M392.28,118.11l-1.39,8.94-.46,3,2.15-2.09,6.47-6.3c1.38,5.06-.82,13.92-5.68,22.35-5.58,9.69-16.85,14.24-20.29,15.45-.69-3.58-2.42-15.6,3.17-25.31,4.72-8.2,11-14.39,16-16m1.21-1.31c-5.38.82-12.66,7.35-18.11,16.82-6.89,12-3.05,27.09-3.05,27.09s15-4.27,21.91-16.24c5.65-9.82,7.58-19.74,5.22-24.64l-7.58,7.38,1.61-10.41Z"/><path class="cls-18" d="M347.34,118.74c5.08,1.34,11.65,7.68,16.52,16.1,5.6,9.67,3.91,21.71,3.23,25.29-3.44-1.19-14.72-5.72-20.33-15.39-4.74-8.19-7-16.71-5.84-21.89l7.05,5.68,2.33,1.87-.73-2.9-2.23-8.76M346,117.49l2.61,10.26-8.21-6.61c-2,5.08,0,14.64,5.51,24.1,6.92,11.95,21.94,16.19,21.94,16.19s3.81-15.14-3.11-27.09c-5.68-9.81-13.31-16.44-18.74-16.85Z"/><path class="cls-19" d="M341.23,154.83v1c11.17,0,20.73,7.47,23.49,9.85-2.76,2.38-12.32,9.89-23.5,9.9h-.07c-9.43,0-17.9-2.32-21.8-5.88l8.43-3.27,2.79-1.08-2.88-.81-8.7-2.46c3.71-3.72,12.48-6.24,22.21-6.25l0-1m0,0h0c-11.33,0-20.89,3.3-24,7.8l10.18,2.87-9.82,3.81c3.4,4.24,12.66,7.27,23.55,7.27h.07c13.81,0,25-10.91,25-10.91s-11.19-10.84-25-10.84Z"/><path class="cls-18" d="M368.33,170.5c.69,3.58,2.41,15.62-3.17,25.3-4.72,8.21-11,14.4-16,16l1.38-8.94.46-3L348.83,202l-6.47,6.3c-1.38-5.07.83-13.92,5.68-22.35,5.58-9.69,16.85-14.24,20.29-15.45m.75-1.29s-15,4.27-21.91,16.24c-5.65,9.81-7.58,19.74-5.22,24.64l7.58-7.38-1.61,10.41c5.38-.82,12.66-7.35,18.11-16.82,6.89-12,3.05-27.09,3.05-27.09Z"/><path class="cls-19" d="M374.32,169.79c3.44,1.19,14.72,5.72,20.33,15.39,4.74,8.19,7,16.71,5.84,21.88l-7.05-5.67-2.33-1.87.73,2.9,2.23,8.76c-5.08-1.34-11.65-7.68-16.52-16.1-5.6-9.68-3.91-21.71-3.23-25.29m-.75-1.3s-3.81,15.14,3.11,27.09c5.68,9.8,13.31,16.44,18.74,16.85l-2.61-10.26,8.21,6.6c2-5.07,0-14.63-5.51-24.09-6.92-12-21.94-16.19-21.94-16.19Z"/><path class="cls-20" d="M75.16,452.67l-1.41,8.94-.47,3,2.15-2.08,6.5-6.29c1.36,5.07-.87,13.92-5.75,22.34-5.61,9.67-16.89,14.19-20.34,15.38-.67-3.58-2.36-15.62,3.25-25.29,4.74-8.19,11-14.36,16.07-16m1.22-1.31c-5.38.81-12.68,7.31-18.16,16.77-6.92,11.95-3.13,27.09-3.13,27.09s15-4.23,22-16.18c5.68-9.8,7.63-19.72,5.29-24.63l-7.6,7.36,1.64-10.41Z"/><path class="cls-20" d="M30.23,453.17c5.07,1.36,11.62,7.71,16.47,16.15,5.57,9.69,3.85,21.72,3.15,25.3-3.44-1.2-14.7-5.76-20.28-15.45-4.72-8.21-6.93-16.73-5.78-21.9l7,5.69,2.32,1.88-.73-2.9-2.19-8.77m-1.35-1.25,2.57,10.26-8.19-6.62c-2,5.06,0,14.63,5.45,24.11,6.88,12,21.89,16.25,21.89,16.25s3.85-15.13-3-27.1c-5.65-9.82-13.26-16.47-18.69-16.9Z"/><path class="cls-20" d="M23.88,490.24H24c11.19,0,20.74,7.53,23.5,9.92C44.71,502.53,35.14,510,23.94,510c-9.47,0-18-2.37-21.86-5.94l8.45-3.25,2.79-1.08-2.87-.82-8.7-2.48c3.7-3.7,12.44-6.19,22.13-6.19m0-1C12.59,489.24,3.07,492.5,0,497l10.17,2.9L.34,503.66C3.73,507.91,13,511,23.94,511h0c13.79,0,25-10.84,25-10.84s-11.17-10.9-25-10.92Z"/><path class="cls-20" d="M51.07,505c.67,3.58,2.36,15.62-3.25,25.29-4.74,8.19-11,14.36-16.07,16l1.41-8.94.47-3-2.15,2.08L25,542.72c-1.36-5.07.87-13.92,5.75-22.34,5.61-9.67,16.89-14.19,20.34-15.38m.75-1.3s-15,4.23-21.95,16.18c-5.68,9.8-7.64,19.72-5.3,24.63l7.6-7.36-1.64,10.41c5.38-.81,12.68-7.32,18.16-16.77,6.92-11.95,3.13-27.09,3.13-27.09Z"/><path class="cls-20" d="M57.06,504.3c3.44,1.2,14.7,5.76,20.28,15.45,4.72,8.21,6.93,16.73,5.78,21.9l-7-5.69-2.32-1.88.73,2.9,2.19,8.77c-5.07-1.36-11.62-7.71-16.47-16.15-5.57-9.69-3.84-21.72-3.15-25.3m-.75-1.3s-3.85,15.13,3,27.1C65,539.92,72.6,546.57,78,547l-2.57-10.26,8.19,6.62c2-5.07,0-14.63-5.44-24.11-6.89-12-21.9-16.25-21.9-16.25Z"/><path class="cls-20" d="M82.93,487.92l0,1c9.47,0,18,2.36,21.86,5.94l-8.45,3.25-2.79,1.08,2.87.82,8.7,2.48c-3.7,3.69-12.44,6.19-22.13,6.19h-.09c-11.18,0-20.74-7.53-23.49-9.92,2.75-2.38,12.31-9.84,23.48-9.84v-1m0,0c-13.79,0-25,10.84-25,10.84s11.18,10.9,25,10.92H83c11.29,0,20.81-3.26,23.88-7.73l-10.17-2.9,9.83-3.79c-3.39-4.25-12.67-7.32-23.6-7.34Z"/><path class="cls-18" d="M288.84,453.74,287,462.61l-.61,2.93,2.25-2,6.78-6c1.12,5.13-1.52,13.87-6.79,22.05C282.58,489,271.1,493,267.6,494c-.51-3.6-1.64-15.7,4.43-25.11,5.13-8,11.68-13.83,16.81-15.19m1.27-1.25c-5.41.56-13,6.71-18.92,15.9-7.48,11.61-4.4,26.91-4.4,26.91s15.21-3.52,22.69-15.13c6.13-9.52,8.56-19.34,6.44-24.35l-7.93,7,2.12-10.32Z"/><path class="cls-18" d="M243.93,452.13c5,1.6,11.24,8.25,15.69,16.9,5.12,10,2.82,21.88,2,25.43-3.38-1.37-14.43-6.45-19.54-16.39-4.33-8.42-6.13-17-4.75-22.15l6.77,6,2.23,2-.59-2.94-1.78-8.86m-1.29-1.31,2.09,10.37-7.87-7c-2.23,5-.69,14.62,4.3,24.34,6.32,12.28,21.11,17.26,21.11,17.26s4.56-14.93-1.76-27.21c-5.18-10.08-12.47-17.08-17.87-17.76Z"/><path class="cls-18" d="M233.18,488.8c.91,0,1.84,0,2.76.07,11.17.54,20.36,8.49,23,11-2.76,2.16-12,8.75-22.71,8.75-.42,0-.83,0-1.25,0-9.46-.46-17.82-3.2-21.56-7l8.59-2.85,2.84-.94-2.83-1L213.46,494c3.49-3.16,11.1-5.21,19.72-5.21m0-1c-10.09,0-18.49,2.69-21.5,6.66l10,3.38-10,3.31c3.19,4.42,12.32,7.92,23.23,8.45.43,0,.87,0,1.3,0,13.22,0,24.2-9.68,24.2-9.68S249.78,488.54,236,487.87c-1-.05-1.89-.07-2.81-.07Z"/><path class="cls-18" d="M262.31,504.88c.51,3.61,1.63,15.71-4.43,25.11-5.12,8-11.68,13.83-16.8,15.18l1.82-8.86.61-2.93-2.25,2-6.78,6c-1.12-5.14,1.52-13.87,6.79-22.05,6.06-9.4,17.54-13.38,21-14.41m.81-1.26s-15.21,3.52-22.69,15.13c-6.13,9.52-8.56,19.34-6.44,24.35l7.93-7-2.12,10.32c5.41-.56,13-6.71,18.92-15.9,7.48-11.61,4.4-26.91,4.4-26.91Z"/><path class="cls-18" d="M268.32,504.46c3.39,1.36,14.43,6.45,19.54,16.39,4.33,8.42,6.13,17,4.75,22.15l-6.77-6-2.23-2,.59,2.94,1.78,8.86c-5-1.6-11.24-8.25-15.69-16.91-5.11-9.94-2.82-21.88-2-25.42m-.68-1.33s-4.56,14.93,1.76,27.21c5.18,10.08,12.47,17.08,17.87,17.76l-2.09-10.37,7.87,7c2.23-5,.69-14.62-4.3-24.34-6.32-12.28-21.11-17.26-21.11-17.26Z"/><path class="cls-18" d="M293.68,490.29c.42,0,.83,0,1.25,0,9.46.46,17.82,3.2,21.56,7l-8.59,2.85-2.84.94,2.83,1,8.57,2.88c-3.5,3.16-11.11,5.21-19.72,5.21-.92,0-1.85,0-2.77-.07-11.17-.54-20.36-8.49-23-11,2.76-2.16,12-8.75,22.71-8.75m0-1c-13.22,0-24.2,9.68-24.2,9.68s10.65,11.41,24.44,12.08c.95.05,1.89.07,2.82.07,10.08,0,18.48-2.69,21.49-6.66l-10-3.38,10-3.32c-3.19-4.41-12.31-7.91-23.23-8.44-.43,0-.87,0-1.3,0Z"/><path class="cls-21" d="M162.14,447.75c3.72,3.71,6.23,12.48,6.23,22.21,0,11.18-7.49,20.75-9.87,23.51-2.39-2.75-9.88-12.31-9.88-23.51,0-9.46,2.33-17.95,5.9-21.86l3.26,8.44,1.08,2.79.82-2.88,2.46-8.7M161.6,446l-2.88,10.18-3.8-9.83c-4.25,3.4-7.3,12.69-7.3,23.61,0,13.81,10.88,25,10.88,25s10.87-11.2,10.87-25c0-11.32-3.27-20.89-7.77-24Z"/><path class="cls-21" d="M119.28,470.67c5.26,0,12.35,2.28,19,6.1,9.68,5.59,14.22,16.87,15.42,20.31a46.89,46.89,0,0,1-8.59.8c-6.49,0-12.11-1.34-16.71-4-8.2-4.73-14.39-11-16-16.05l8.94,1.4,3,.46-2.09-2.15-6.29-6.48a13.14,13.14,0,0,1,3.38-.39m0-1a12.16,12.16,0,0,0-5.17,1l7.37,7.59-10.41-1.62c.82,5.38,7.33,12.66,16.8,18.13,5.67,3.27,12.06,4.13,17.21,4.13a44.79,44.79,0,0,0,9.88-1.05s-4.26-15-16.21-21.93c-7.07-4.08-14.2-6.23-19.47-6.23Z"/><path class="cls-21" d="M145.79,502.26a45.78,45.78,0,0,1,8.59.81c-1.2,3.44-5.72,14.71-15.43,20.31-6.61,3.81-13.7,6.09-19,6.09a13.65,13.65,0,0,1-2.92-.28l5.67-7,1.88-2.33-2.9.73L113,522.77c1.35-5.08,7.69-11.64,16.12-16.5a33,33,0,0,1,16.71-4m0-1c-5.15,0-11.54.86-17.21,4.14-9.81,5.66-16.46,13.29-16.87,18.71L122,521.52l-6.62,8.21a12.94,12.94,0,0,0,4.64.74c5.27,0,12.39-2.14,19.46-6.23,12-6.9,16.22-21.92,16.22-21.92a44.39,44.39,0,0,0-9.88-1.06Z"/><path class="cls-21" d="M159.91,505.45c2.39,2.76,9.88,12.32,9.88,23.51,0,9.46-2.33,17.95-5.9,21.86l-3.26-8.44-1.08-2.79-.82,2.88-2.46,8.7C152.55,547.46,150,538.69,150,529c0-11.19,7.49-20.75,9.87-23.51m0-1.5S149,515.15,149,529c0,11.32,3.27,20.89,7.77,24l2.88-10.18,3.8,9.83c4.25-3.4,7.3-12.69,7.3-23.61,0-13.81-10.88-25-10.88-25Z"/><path class="cls-21" d="M173.33,501c6.49,0,12.11,1.34,16.71,4,8.2,4.73,14.39,11,16,16.05l-8.94-1.4-3-.46,2.09,2.14,6.29,6.49a13.6,13.6,0,0,1-3.38.39c-5.26,0-12.35-2.28-19-6.1-9.69-5.59-14.23-16.87-15.42-20.31a45.57,45.57,0,0,1,8.58-.8m0-1a44.79,44.79,0,0,0-9.88,1s4.26,15,16.22,21.92c7.07,4.09,14.19,6.24,19.46,6.24a12,12,0,0,0,5.17-1l-7.37-7.58,10.41,1.62c-.82-5.38-7.33-12.66-16.8-18.13-5.67-3.27-12.06-4.13-17.21-4.13Z"/><path class="cls-21" d="M198.42,469.45a13.65,13.65,0,0,1,2.92.28l-5.67,7-1.88,2.33,2.9-.74,8.76-2.21c-1.35,5.08-7.69,11.64-16.12,16.5-4.6,2.66-10.22,4-16.71,4a46.65,46.65,0,0,1-8.58-.8c1.19-3.44,5.72-14.71,15.42-20.31,6.61-3.82,13.7-6.09,19-6.09m0-1c-5.27,0-12.39,2.14-19.46,6.23-12,6.9-16.22,21.92-16.22,21.92a44.79,44.79,0,0,0,9.88,1c5.15,0,11.54-.86,17.21-4.13,9.81-5.67,16.46-13.29,16.87-18.71l-10.25,2.59,6.61-8.21a12.94,12.94,0,0,0-4.64-.74Z"/><path class="cls-22" d="M499.88,453.51l-1.74,8.88-.58,2.93,2.23-2,6.72-6c1.17,5.12-1.38,13.88-6.57,22.11-6,9.46-17.41,13.56-20.89,14.63-.55-3.61-1.8-15.68,4.17-25.16,5-8,11.55-13.95,16.66-15.35m1.26-1.27c-5.41.61-12.94,6.84-18.76,16.09-7.36,11.68-4.13,26.95-4.13,26.95s15.17-3.67,22.53-15.35c6-9.59,8.37-19.43,6.2-24.42l-7.86,7.07,2-10.34Z"/><path class="cls-22" d="M455,452.34c5,1.55,11.33,8.14,15.87,16.75,5.21,9.89,3,21.85,2.22,25.4-3.4-1.33-14.49-6.3-19.7-16.19-4.41-8.38-6.31-17-5-22.1l6.82,5.95,2.26,2-.62-2.92L455,452.34m-1.29-1.29,2.19,10.34-7.94-6.92c-2.18,5-.55,14.63,4.54,24.29,6.44,12.22,21.28,17.05,21.28,17.05s4.41-15-2-27.19c-5.28-10-12.63-16.95-18-17.57Z"/><path class="cls-22" d="M445.13,489.11c.73,0,1.47,0,2.21.05,11.17.43,20.44,8.29,23.1,10.78-2.76,2.2-12.12,9-22.88,9l-1,0c-9.46-.37-17.85-3-21.62-6.75l8.56-2.93,2.83-1-2.84-.93-8.6-2.8c3.54-3.28,11.36-5.41,20.23-5.41m0-1c-10.34,0-19,2.81-22,6.89l10.06,3.27-10,3.42c3.23,4.38,12.39,7.78,23.31,8.21l1,0c13.34,0,24.38-9.93,24.38-9.93s-10.77-11.3-24.57-11.83c-.75,0-1.5-.05-2.24-.05Z"/><path class="cls-22" d="M473.86,504.9c.55,3.61,1.79,15.7-4.17,25.16-5.05,8-11.55,14-16.66,15.35l1.74-8.88.58-2.94-2.23,2-6.72,6c-1.17-5.12,1.38-13.88,6.57-22.11,6-9.46,17.41-13.56,20.89-14.63m.8-1.26s-15.17,3.67-22.53,15.35c-6,9.59-8.37,19.42-6.2,24.42l7.86-7.07-2,10.34c5.41-.61,12.94-6.84,18.76-16.09,7.37-11.68,4.13-27,4.13-27Z"/><path class="cls-22" d="M479.87,504.43c3.4,1.32,14.48,6.28,19.7,16.19,4.41,8.38,6.31,17,5,22.1l-6.82-6-2.26-2,.62,2.92,1.88,8.85c-5-1.55-11.33-8.14-15.87-16.75-5.21-9.89-3-21.85-2.22-25.4m-.69-1.33s-4.41,15,2,27.2c5.28,10,12.63,17,18,17.57l-2.19-10.34,7.94,6.92c2.18-5,.55-14.63-4.54-24.3-6.44-12.21-21.28-17-21.28-17Z"/><path class="cls-22" d="M505.35,490l1,0c9.46.37,17.85,3,21.62,6.75l-8.56,2.93-2.83,1,2.84.93,8.6,2.8c-3.54,3.27-11.36,5.41-20.23,5.41-.73,0-1.47,0-2.21-.05-11.17-.43-20.44-8.29-23.1-10.78,2.76-2.21,12.12-9,22.88-9m0-1C492,489,481,498.92,481,498.92s10.77,11.31,24.57,11.84c.75,0,1.5.05,2.24.05,10.34,0,19-2.81,22-6.89l-10.06-3.27,10-3.42c-3.23-4.38-12.39-7.79-23.31-8.21l-1,0Z"/><path class="cls-15" d="M373.64,447.75c3.72,3.71,6.23,12.48,6.23,22.21,0,11.18-7.49,20.75-9.87,23.51-2.39-2.76-9.88-12.33-9.88-23.51,0-9.46,2.33-17.95,5.9-21.86l3.26,8.44,1.08,2.79.82-2.88,2.46-8.7M373.1,446l-2.88,10.18-3.8-9.83c-4.25,3.4-7.3,12.69-7.3,23.61,0,13.81,10.88,25,10.88,25s10.87-11.2,10.87-25c0-11.32-3.27-20.89-7.77-24Z"/><path class="cls-15" d="M330.78,470.67c5.26,0,12.35,2.28,19,6.1,9.68,5.59,14.22,16.87,15.42,20.31a46.89,46.89,0,0,1-8.59.8c-6.49,0-12.11-1.34-16.71-4-8.2-4.73-14.39-11-16-16.05l8.94,1.4,3,.46-2.09-2.15-6.29-6.48a13.14,13.14,0,0,1,3.38-.39m0-1a12.16,12.16,0,0,0-5.17,1l7.37,7.59-10.41-1.62c.82,5.38,7.33,12.66,16.8,18.13,5.67,3.27,12.06,4.13,17.21,4.13a44.79,44.79,0,0,0,9.88-1.05s-4.26-15-16.21-21.93c-7.07-4.08-14.2-6.23-19.47-6.23Z"/><path class="cls-15" d="M357.29,502.26a45.55,45.55,0,0,1,8.58.81c-1.19,3.44-5.73,14.72-15.42,20.31-6.61,3.81-13.7,6.09-19,6.09a13.65,13.65,0,0,1-2.92-.28l5.67-7,1.88-2.33-2.9.73-8.76,2.22c1.35-5.08,7.69-11.64,16.12-16.5a33,33,0,0,1,16.71-4m0-1c-5.15,0-11.54.86-17.21,4.14-9.81,5.66-16.46,13.29-16.87,18.71l10.26-2.59-6.62,8.21a12.94,12.94,0,0,0,4.64.74c5.27,0,12.39-2.14,19.46-6.23,12-6.9,16.22-21.92,16.22-21.92a44.39,44.39,0,0,0-9.88-1.06Z"/><path class="cls-15" d="M371.41,505.45c2.39,2.76,9.88,12.32,9.88,23.51,0,9.46-2.33,17.95-5.9,21.86l-3.26-8.44-1.08-2.79-.82,2.88-2.46,8.7c-3.72-3.71-6.23-12.48-6.23-22.21,0-11.19,7.49-20.75,9.87-23.51m0-1.5s-10.87,11.2-10.87,25c0,11.32,3.27,20.89,7.77,24l2.88-10.18,3.8,9.83c4.25-3.4,7.3-12.69,7.3-23.61,0-13.81-10.88-25-10.88-25Z"/><path class="cls-15" d="M384.83,501c6.49,0,12.11,1.34,16.71,4,8.2,4.73,14.39,11,16,16.05l-8.94-1.4-3-.46,2.09,2.14,6.29,6.49a13.6,13.6,0,0,1-3.38.39c-5.26,0-12.35-2.28-19-6.1-9.69-5.59-14.23-16.87-15.42-20.31a46.65,46.65,0,0,1,8.58-.8m0-1a44.79,44.79,0,0,0-9.88,1s4.26,15,16.22,21.92c7.07,4.09,14.19,6.24,19.46,6.24a12,12,0,0,0,5.17-1l-7.37-7.58,10.41,1.62c-.82-5.38-7.33-12.66-16.8-18.13C396.37,500.9,390,500,384.83,500Z"/><path class="cls-15" d="M409.92,469.45a13.65,13.65,0,0,1,2.92.28l-5.67,7-1.88,2.33,2.9-.74,8.76-2.21c-1.35,5.08-7.69,11.64-16.12,16.5-4.6,2.66-10.22,4-16.71,4a46.65,46.65,0,0,1-8.58-.8c1.19-3.44,5.72-14.71,15.42-20.31,6.61-3.82,13.7-6.09,19-6.09m0-1c-5.27,0-12.39,2.14-19.46,6.23-12,6.9-16.22,21.92-16.22,21.92a44.79,44.79,0,0,0,9.88,1c5.15,0,11.54-.86,17.21-4.13,9.81-5.67,16.46-13.29,16.87-18.71L408,477.4l6.61-8.21a12.94,12.94,0,0,0-4.64-.74Z"/><path class="cls-23" d="M80.66,9.64l-2.48,8.7-.82,2.88,2.38-1.8L87,14c.74,5.2-2.54,13.71-8.41,21.48-6.73,8.92-18.48,12.05-22,12.81-.24-3.64-.46-15.79,6.27-24.71C68.48,16,75.45,10.61,80.66,9.64M82,8.49C76.59,8.64,68.56,14.21,62,22.94,53.66,34,55.6,49.45,55.6,49.45S71,47.06,79.34,36c6.83-9,10-18.65,8.23-23.81l-8.43,6.39L82,8.49Z"/><path class="cls-23" d="M36,4.7c4.88,2,10.61,9.06,14.4,18,4.36,10.3,1.19,22,.08,25.5-3.27-1.6-13.9-7.48-18.27-17.79C28.51,21.71,27.35,13,29.11,8l6.3,6.5,2.08,2.15-.37-3L36,4.7M34.81,3.3l1.31,10.5L28.79,6.23C26.21,11,27,20.76,31.28,30.82,36.67,43.53,51.05,49.6,51.05,49.6s5.65-14.55.26-27.27C46.9,11.9,40.15,4.38,34.81,3.3Z"/><path class="cls-23" d="M18.59,40.32a55.1,55.1,0,0,1,6.72.42C36.4,42.11,45,50.73,47.43,53.43c-2.74,1.83-11.49,7.12-21.31,7.12a26.59,26.59,0,0,1-3.24-.2c-9.39-1.16-17.53-4.52-21-8.54l8.77-2.2,2.9-.73-2.75-1.16L2.5,44.2c3.11-2.42,9.07-3.88,16.09-3.88m0-1c-8.27,0-15,2-17.9,5.21l9.75,4.11L.22,51.2c2.86,4.64,11.7,8.8,22.54,10.14a27.31,27.31,0,0,0,3.36.21c12.31,0,22.79-7.94,22.79-7.94S39.13,41.44,25.43,39.75a56.19,56.19,0,0,0-6.84-.43Z"/><path class="cls-23" d="M50.41,58.67c.24,3.63.46,15.79-6.27,24.71-5.71,7.56-12.68,12.93-17.89,13.9l2.48-8.7.82-2.88-2.38,1.8L20,93c-.74-5.2,2.54-13.71,8.41-21.48,6.73-8.93,18.48-12.05,22-12.81m.9-1.2S35.89,59.85,27.57,70.88c-6.82,9-10,18.65-8.23,23.81l8.43-6.39L24.88,98.43c5.44-.15,13.47-5.72,20.06-14.45,8.31-11,6.37-26.51,6.37-26.51Z"/><path class="cls-23" d="M56.44,58.7c3.27,1.61,13.91,7.49,18.27,17.79,3.69,8.72,4.85,17.44,3.09,22.44l-6.3-6.5-2.08-2.15.37,3,1.13,9c-4.87-2-10.61-9.06-14.4-18-4.36-10.3-1.19-22-.08-25.5m-.58-1.38s-5.65,14.55-.26,27.27c4.41,10.43,11.16,18,16.5,19l-1.31-10.5,7.33,7.57c2.58-4.79,1.77-14.53-2.49-24.59C70.24,63.38,55.86,57.32,55.86,57.32Z"/><path class="cls-23" d="M80.79,46.37a26.59,26.59,0,0,1,3.24.2c9.39,1.16,17.53,4.51,21,8.54l-8.78,2.2-2.9.73,2.75,1.16,8.33,3.52c-3.11,2.42-9.07,3.88-16.09,3.88a55.1,55.1,0,0,1-6.72-.42c-11.09-1.37-19.67-10-22.12-12.69,2.74-1.83,11.47-7.12,21.31-7.12m0-1C68.48,45.37,58,53.31,58,53.31s9.78,12.17,23.48,13.86a56.19,56.19,0,0,0,6.84.43c8.27,0,15.05-2,17.9-5.21l-9.75-4.11,10.22-2.56c-2.85-4.64-11.69-8.8-22.54-10.14a27.31,27.31,0,0,0-3.36-.21Z"/><path class="cls-24" d="M288.27,7.46l-1.72,8.88L286,19.28l2.22-2,6.71-6.06c1.18,5.12-1.36,13.89-6.53,22.13C282.45,42.81,271,46.94,267.54,48c-.56-3.6-1.82-15.69,4.12-25.17,5-8,11.51-14,16.61-15.38m1.27-1.27c-5.41.62-12.93,6.87-18.73,16.12-7.34,11.7-4.07,27-4.07,27s15.16-3.71,22.5-15.41c6-9.59,8.32-19.44,6.15-24.43l-7.85,7.09,2-10.34Z"/><path class="cls-24" d="M243.35,6.39c5,1.54,11.35,8.11,15.9,16.71,5.24,9.88,3.09,21.85,2.28,25.4-3.4-1.32-14.5-6.27-19.74-16.15-4.43-8.37-6.34-17-5-22.09l6.84,5.93,2.26,2-.63-2.93-1.89-8.84m-1.3-1.29,2.21,10.34-7.95-6.91c-2.17,5-.52,14.63,4.6,24.29,6.46,12.2,21.32,17,21.32,17s4.37-15-2.09-27.19c-5.31-10-12.68-16.92-18.09-17.53Z"/><path class="cls-24" d="M233.73,43.18c.69,0,1.39,0,2.08,0C247,43.63,256.27,51.47,259,54c-2.77,2.22-12.14,9-22.92,9-.31,0-.63,0-.94,0-9.46-.34-17.86-3-21.63-6.69l8.55-3,2.83-1L222,51.42l-8.6-2.78c3.55-3.31,11.41-5.46,20.34-5.46m0-1c-10.39,0-19.08,2.83-22.11,6.93l10.06,3.26-10,3.44c3.25,4.37,12.42,7.75,23.34,8.15.32,0,.64,0,1,0,13.36,0,24.41-10,24.41-10s-10.79-11.28-24.59-11.78c-.71,0-1.42,0-2.12,0Z"/><path class="cls-24" d="M262.37,58.91c.56,3.6,1.83,15.69-4.11,25.16-5,8-11.52,14-16.62,15.39l1.72-8.88.56-2.94-2.22,2-6.71,6c-1.18-5.11,1.36-13.88,6.53-22.12,5.94-9.47,17.37-13.6,20.85-14.67m.8-1.27S248,61.35,240.67,73.05c-6,9.59-8.32,19.44-6.15,24.43l7.85-7.09-2,10.34c5.41-.62,12.93-6.87,18.73-16.12,7.34-11.7,4.07-27,4.07-27Z"/><path class="cls-24" d="M268.39,58.42c3.39,1.32,14.49,6.27,19.73,16.15,4.43,8.36,6.34,17,5,22.09l-6.84-5.94-2.26-2,.63,2.93,1.89,8.84c-5-1.54-11.35-8.11-15.9-16.71-5.23-9.88-3.09-21.85-2.27-25.4m-.7-1.32s-4.38,15,2.09,27.19c5.3,10,12.67,16.92,18.08,17.53l-2.21-10.34,8,6.91c2.17-5,.52-14.63-4.6-24.29-6.46-12.2-21.31-17-21.31-17Z"/><path class="cls-24" d="M293.89,43.94h.93c9.46.35,17.86,3,21.64,6.7l-8.56,3-2.83,1,2.85.92,8.6,2.78c-3.55,3.31-11.41,5.46-20.34,5.46-.69,0-1.39,0-2.08,0C282.92,63.29,273.64,55.45,271,53c2.76-2.22,12.13-9,22.92-9m0-1c-13.37,0-24.42,10-24.42,10s10.79,11.28,24.59,11.79c.71,0,1.42,0,2.12,0,10.39,0,19.08-2.83,22.11-6.94l-10.06-3.25,10-3.44c-3.25-4.37-12.41-7.76-23.34-8.15-.32,0-.64,0-1,0Z"/><path class="cls-25" d="M162.14,1.75c3.72,3.71,6.23,12.48,6.23,22.21,0,11.18-7.49,20.75-9.87,23.51-2.39-2.75-9.88-12.31-9.88-23.51,0-9.46,2.33-18,5.9-21.86l3.26,8.44,1.08,2.79.82-2.88,2.46-8.7M161.6,0l-2.88,10.18L154.92.35c-4.25,3.4-7.3,12.69-7.3,23.61,0,13.81,10.88,25,10.88,25s10.87-11.2,10.87-25c0-11.32-3.27-20.89-7.77-24Z"/><path class="cls-25" d="M119.28,24.67c5.26,0,12.35,2.28,19,6.1,9.68,5.59,14.22,16.87,15.42,20.31a46.89,46.89,0,0,1-8.59.8c-6.49,0-12.11-1.34-16.71-4-8.2-4.73-14.39-11-16-16.05l8.94,1.4,3,.46-2.09-2.15-6.29-6.48a13.14,13.14,0,0,1,3.38-.39m0-1a12.16,12.16,0,0,0-5.17,1l7.37,7.59-10.41-1.62c.82,5.38,7.33,12.66,16.8,18.13,5.67,3.27,12.06,4.13,17.21,4.13A44.79,44.79,0,0,0,155,51.83s-4.26-15-16.21-21.93c-7.07-4.08-14.2-6.23-19.47-6.23Z"/><path class="cls-25" d="M145.79,56.26a45.55,45.55,0,0,1,8.58.81c-1.19,3.44-5.73,14.72-15.42,20.31-6.61,3.81-13.7,6.09-19,6.09a13.65,13.65,0,0,1-2.92-.28l5.67-7,1.88-2.33-2.9.73L113,76.77c1.35-5.08,7.69-11.64,16.12-16.5a33,33,0,0,1,16.71-4m0-1c-5.15,0-11.54.86-17.21,4.14-9.81,5.66-16.46,13.29-16.87,18.71L122,75.52l-6.62,8.21a12.94,12.94,0,0,0,4.64.74c5.27,0,12.39-2.14,19.46-6.23,12-6.9,16.22-21.92,16.22-21.92a44.39,44.39,0,0,0-9.88-1.06Z"/><path class="cls-25" d="M159.91,59.45c2.39,2.76,9.88,12.32,9.88,23.51,0,9.46-2.33,18-5.9,21.86l-3.26-8.44-1.08-2.79-.82,2.88-2.46,8.7C152.55,101.46,150,92.69,150,83c0-11.19,7.49-20.75,9.87-23.51m0-1.5S149,69.15,149,83c0,11.32,3.27,20.89,7.77,24l2.88-10.18,3.8,9.83c4.25-3.4,7.3-12.69,7.3-23.61,0-13.81-10.88-25-10.88-25Z"/><path class="cls-25" d="M173.33,55c6.49,0,12.11,1.34,16.71,4,8.2,4.73,14.39,11,16,16.05l-8.94-1.4-3-.46,2.09,2.14,6.29,6.49a13.6,13.6,0,0,1-3.38.39c-5.26,0-12.35-2.28-19-6.1-9.69-5.59-14.23-16.87-15.42-20.31a46.65,46.65,0,0,1,8.58-.8m0-1a44.79,44.79,0,0,0-9.88,1.05s4.26,15,16.22,21.92c7.07,4.09,14.19,6.24,19.46,6.24a12,12,0,0,0,5.17-1l-7.37-7.58,10.41,1.62c-.82-5.38-7.33-12.66-16.8-18.13C184.87,54.9,178.48,54,173.33,54Z"/><path class="cls-25" d="M198.42,22.45v1a13.65,13.65,0,0,1,2.92.28l-5.67,7-1.88,2.33,2.9-.74,8.76-2.21c-1.35,5.08-7.69,11.64-16.12,16.5-4.6,2.66-10.22,4-16.71,4a46.65,46.65,0,0,1-8.58-.8c1.19-3.44,5.73-14.72,15.42-20.31,6.61-3.82,13.7-6.09,19-6.09v-1m0,0c-5.27,0-12.39,2.14-19.46,6.23-12,6.9-16.22,21.92-16.22,21.92a44.79,44.79,0,0,0,9.88,1c5.15,0,11.54-.86,17.21-4.13,9.81-5.67,16.46-13.29,16.87-18.71L196.45,31.4l6.61-8.21a12.94,12.94,0,0,0-4.64-.74Z"/><path class="cls-26" d="M498.4,6.78l-1.46,8.93-.48,3,2.16-2.07,6.53-6.26c1.33,5.08-.94,13.92-5.86,22.31-5.66,9.65-17,14.11-20.42,15.28-.66-3.58-2.28-15.63,3.37-25.27C487,14.49,493.34,8.35,498.4,6.78m1.22-1.3c-5.38.78-12.71,7.25-18.24,16.67-7,11.92-3.26,27.07-3.26,27.07s15-4.15,22-16.06c5.73-9.77,7.74-19.68,5.41-24.6l-7.63,7.32,1.69-10.4Z"/><path class="cls-26" d="M453.46,7.05c5.07,1.39,11.58,7.77,16.39,16.24,5.53,9.72,3.74,21.74,3,25.31-3.44-1.22-14.68-5.83-20.2-15.55C448,24.82,445.83,16.29,447,11.12l7,5.73,2.32,1.89-.72-2.91-2.15-8.78M452.12,5.8l2.52,10.27-8.15-6.66c-2,5.05-.08,14.63,5.32,24.13,6.82,12,21.81,16.36,21.81,16.36s3.92-15.1-2.9-27.11c-5.6-9.85-13.17-16.54-18.6-17Z"/><path class="cls-26" d="M446.63,44.09H447c11.18.08,20.7,7.64,23.44,10-2.75,2.35-12.28,9.72-23.4,9.72h-.17c-9.47-.07-17.94-2.46-21.83-6.05l8.46-3.21,2.8-1.06-2.87-.84-8.68-2.52c3.68-3.63,12.31-6.08,21.86-6.08m0-1c-11.15,0-20.55,3.19-23.62,7.61l10.16,3-9.85,3.73c3.37,4.27,12.63,7.38,23.56,7.46h.18c13.73,0,24.9-10.71,24.9-10.71s-11.12-11-24.93-11Z"/><path class="cls-26" d="M474,59c.66,3.59,2.29,15.62-3.37,25.28-4.79,8.17-11.1,14.31-16.16,15.88L456,91.2l.48-3-2.16,2.07-6.53,6.26c-1.33-5.08.94-13.92,5.87-22.31,5.65-9.65,17-14.11,20.41-15.29m.75-1.29s-15,4.16-22,16.07c-5.73,9.77-7.74,19.68-5.41,24.6L455,91l-1.69,10.4c5.38-.78,12.71-7.25,18.24-16.67,7-11.92,3.26-27.08,3.26-27.08Z"/><path class="cls-26" d="M480,58.32c3.44,1.22,14.68,5.83,20.21,15.55,4.67,8.23,6.84,16.76,5.67,21.93l-7-5.73-2.32-1.89.72,2.91,2.15,8.78c-5.07-1.39-11.58-7.77-16.39-16.24-5.53-9.72-3.74-21.74-3-25.31m-.74-1.3s-3.92,15.1,2.9,27.11c5.6,9.85,13.17,16.54,18.6,17l-2.52-10.27,8.15,6.66c2-5.05.08-14.63-5.32-24.13C494.28,61.37,479.29,57,479.29,57Z"/><path class="cls-26" d="M505.85,43.07H506c9.47.07,17.94,2.45,21.83,6l-8.46,3.21-2.8,1.06,2.87.83,8.68,2.53c-3.68,3.63-12.31,6.08-21.86,6.08h-.39c-11.18-.08-20.7-7.64-23.44-10,2.75-2.35,12.28-9.72,23.4-9.72m0-1c-13.73,0-24.9,10.71-24.9,10.71s11.12,10.95,24.93,11h.4c11.15,0,20.55-3.19,23.62-7.61l-10.16-3,9.85-3.73C526.22,45.26,517,42.15,506,42.07Z"/><path class="cls-27" d="M373.64,1.75c3.72,3.71,6.23,12.48,6.23,22.21,0,11.18-7.49,20.75-9.87,23.51-2.39-2.76-9.88-12.33-9.88-23.51,0-9.46,2.33-18,5.9-21.86l3.26,8.44,1.08,2.79.82-2.88,2.46-8.7M373.1,0l-2.88,10.18L366.42.35c-4.25,3.4-7.3,12.69-7.3,23.61,0,13.81,10.88,25,10.88,25s10.87-11.2,10.87-25c0-11.32-3.27-20.89-7.77-24Z"/><path class="cls-27" d="M330.78,24.67c5.26,0,12.35,2.28,19,6.1,9.68,5.59,14.22,16.87,15.42,20.31a46.89,46.89,0,0,1-8.59.8c-6.49,0-12.11-1.34-16.71-4-8.2-4.73-14.39-11-16-16.05l8.94,1.4,3,.46-2.09-2.15-6.29-6.48a13.14,13.14,0,0,1,3.38-.39m0-1a12.16,12.16,0,0,0-5.17,1L333,32.24l-10.41-1.62c.82,5.38,7.33,12.66,16.8,18.13,5.67,3.27,12.06,4.13,17.21,4.13a44.79,44.79,0,0,0,9.88-1.05s-4.26-15-16.21-21.93c-7.07-4.08-14.2-6.23-19.47-6.23Z"/><path class="cls-27" d="M357.29,56.26a45.78,45.78,0,0,1,8.59.81c-1.2,3.44-5.72,14.71-15.43,20.31-6.61,3.81-13.7,6.09-19,6.09a13.65,13.65,0,0,1-2.92-.28l5.67-7,1.88-2.33-2.9.73-8.76,2.22c1.35-5.08,7.69-11.64,16.12-16.5a33,33,0,0,1,16.71-4m0-1c-5.15,0-11.54.86-17.21,4.14-9.81,5.66-16.46,13.29-16.87,18.71l10.26-2.59-6.62,8.21a12.94,12.94,0,0,0,4.64.74c5.27,0,12.39-2.14,19.46-6.23,12-6.9,16.22-21.92,16.22-21.92a44.39,44.39,0,0,0-9.88-1.06Z"/><path class="cls-27" d="M371.41,59.45c2.39,2.76,9.88,12.32,9.88,23.51,0,9.46-2.33,18-5.9,21.86l-3.26-8.44-1.08-2.79-.82,2.88-2.46,8.7c-3.72-3.71-6.23-12.48-6.23-22.21,0-11.19,7.49-20.75,9.87-23.51m0-1.5s-10.87,11.2-10.87,25c0,11.32,3.27,20.89,7.77,24l2.88-10.18,3.8,9.83c4.25-3.4,7.3-12.69,7.3-23.61,0-13.81-10.88-25-10.88-25Z"/><path class="cls-27" d="M384.83,55c6.49,0,12.11,1.34,16.71,4,8.2,4.73,14.39,11,16,16l-8.94-1.39-3-.46,2.09,2.14L414,81.86a13.6,13.6,0,0,1-3.38.39c-5.26,0-12.35-2.28-19-6.1-9.69-5.59-14.23-16.87-15.42-20.31a46.65,46.65,0,0,1,8.58-.8m0-1A44.79,44.79,0,0,0,375,55.09s4.26,15,16.22,21.92c7.07,4.09,14.19,6.24,19.46,6.24a12,12,0,0,0,5.17-1l-7.37-7.58,10.41,1.62c-.82-5.38-7.33-12.66-16.8-18.13C396.37,54.9,390,54,384.83,54Z"/><path class="cls-27" d="M409.92,22.45v1a13.65,13.65,0,0,1,2.92.28l-5.67,7-1.88,2.33,2.9-.74L417,30.15c-1.35,5.08-7.69,11.64-16.12,16.5-4.6,2.66-10.22,4-16.71,4a46.65,46.65,0,0,1-8.58-.8c1.19-3.44,5.73-14.72,15.42-20.31,6.61-3.82,13.7-6.09,19-6.09v-1m0,0c-5.27,0-12.39,2.14-19.46,6.23-12,6.9-16.22,21.92-16.22,21.92a44.79,44.79,0,0,0,9.88,1c5.15,0,11.54-.86,17.21-4.13,9.81-5.67,16.46-13.29,16.87-18.71L408,31.4l6.61-8.21a12.94,12.94,0,0,0-4.64-.74Z"/></g></g></svg>