<svg xmlns="http://www.w3.org/2000/svg" viewBox="0 0 47.82 24.23"><defs><style>.cls-1{fill:#e97ea3;}</style></defs><g id="圖層_2" data-name="圖層 2"><g id="圖層_1-2" data-name="圖層 1"><path class="cls-1" d="M34.9,1a21.34,21.34,0,0,1,8.89,1.59L36.63,8.12,34.27,10l3,0,9-.11c-2.5,4.62-10.19,9.52-19.52,12.3a28.54,28.54,0,0,1-8.14,1.13,44.26,44.26,0,0,1-17.21-3.9c2-3.07,9-13,19.72-16.17A49.38,49.38,0,0,1,34.9,1m0-1a50.09,50.09,0,0,0-14,2.2C7.63,6.14,0,19.75,0,19.75a44.89,44.89,0,0,0,18.64,4.48,29.6,29.6,0,0,0,8.43-1.17C37.92,19.83,46.16,14,47.82,8.78l-10.58.13,8.34-6.44C43.25.85,39.47,0,34.9,0Z"/></g></g></svg>