<svg xmlns="http://www.w3.org/2000/svg" viewBox="0 0 96.27 106.92"><defs><style>.cls-1{fill:#e97ea3;}</style></defs><g id="圖層_2" data-name="圖層 2"><g id="圖層_1-2" data-name="圖層 1"><path class="cls-1" d="M50.53,0,47.65,10.18,43.85.35C39.6,3.75,36.55,13,36.55,24c0,13.81,10.88,25,10.88,25s10.88-11.2,10.88-25C58.31,12.64,55,3.07,50.53,0Z"/><path class="cls-1" d="M3,24.65l7.37,7.59L0,30.62C.82,36,7.34,43.28,16.8,48.75c12,6.9,27.09,3.08,27.09,3.08s-4.25-15-16.21-21.93C17.87,24.24,8,22.3,3,24.65Z"/><path class="cls-1" d="M.64,78.11,10.9,75.52,4.29,83.73c5.07,2,14.63,0,24.1-5.49,12-6.9,16.21-21.92,16.21-21.92S29.47,52.5,17.51,59.4C7.7,65.06,1.06,72.69.64,78.11Z"/><path class="cls-1" d="M45.74,106.92l2.89-10.18,3.79,9.83c4.25-3.4,7.31-12.69,7.31-23.61,0-13.81-10.88-25-10.88-25S38,69.15,38,83C38,94.28,41.25,103.85,45.74,106.92Z"/><path class="cls-1" d="M93.24,82.26l-7.37-7.58,10.4,1.62c-.82-5.38-7.33-12.66-16.79-18.13-12-6.9-27.1-3.08-27.1-3.08S56.64,70.11,68.6,77C78.41,82.68,88.33,84.62,93.24,82.26Z"/><path class="cls-1" d="M95.63,28.81,85.38,31.4,92,23.19c-5.07-2-14.64,0-24.1,5.49-12,6.9-16.22,21.92-16.22,21.92s15.14,3.82,27.1-3.08C88.58,41.85,95.22,34.23,95.63,28.81Z"/></g></g></svg>