<svg xmlns="http://www.w3.org/2000/svg" viewBox="0 0 538 563"><defs><style>.cls-1{fill:#9fd1d7;}.cls-2{fill:#f27e88;}.cls-3{fill:#8c4a69;}.cls-4{fill:#97a9ed;}.cls-5{fill:#cc5085;}.cls-6{fill:#889abc;}.cls-7{fill:#a49bda;}.cls-8{fill:#99adbf;}.cls-9{fill:#e7ff80;}.cls-10{fill:#266b8c;}.cls-11{fill:#b6d3fd;}.cls-12{fill:#56593f;}.cls-13{fill:#ab976b;}.cls-14{fill:#ef97d4;}.cls-15{fill:#ff4e96;}.cls-16{fill:#47d1c4;}.cls-17{fill:#c3e1d6;}.cls-18{fill:#4149df;}.cls-19{fill:#e5637f;}.cls-20{fill:#984a68;}.cls-21{fill:#74b1ab;}.cls-22{fill:#0476d9;}.cls-23{fill:#e83ccc;}.cls-24{fill:#8b425a;}.cls-25{fill:#d9bacb;}.cls-26{fill:#4e848d;}.cls-27{fill:#f28705;}.cls-28{fill:#1e9eb7;}</style></defs><g id="圖層_2" data-name="圖層 2"><g id="圖層_1-2" data-name="圖層 1"><rect class="cls-1" width="538" height="563"/><path class="cls-2" d="M83.85,233.87l-2.2,9.95-.16.73.57-.49,7.76-6.65c1.81,5.16-1,14.81-6.88,23.7-7,10.48-20.46,14.15-22.48,14.65-.33-2.06-2.18-15.93,4.77-26.4,5.72-8.62,13.15-14.78,18.62-15.49m.32-.29c-5.42.49-13.1,6.53-19.15,15.64-7.63,11.5-4.76,26.84-4.76,26.84s15.25-3.3,22.89-14.81C89.42,251.81,92,242,89.93,237l-8,6.88,2.27-10.29Z"/><path class="cls-2" d="M37,231.56c5.37,1,12.33,8.25,17.08,17.81,5.6,11.26,2,24.79,1.45,26.79-2-.74-14.89-6.07-20.48-17.33C30.48,249.57,28.86,240.06,31,235l7.52,6.88.55.5-.14-.73L37,231.56m-.32-.3,2,10.39-7.77-7.11c-2.3,4.94-.9,14.61,4,24.4,6.15,12.37,20.87,17.55,20.87,17.55s4.76-14.86-1.38-27.23c-5-10.15-12.23-17.25-17.63-18Z"/><path class="cls-2" d="M26,268.34c1.18,0,2.38,0,3.57.12,12.55.78,22.48,10.64,23.93,12.14-1.55,1.26-11.75,9.12-23.6,9.12-.55,0-1.11,0-1.65-.05-10.32-.64-19.37-4-22.72-8.38l9.71-3.07.71-.22-.7-.25-9.64-3.4c3.14-3.66,11.07-6,20.39-6m0-.25c-9.74,0-17.83,2.55-20.81,6.38l10,3.51-10,3.18c3.13,4.45,12.2,8.08,23.11,8.76.56,0,1.12.05,1.67.05,13.06,0,24-9.34,24-9.34s-10.49-11.56-24.27-12.42c-1.22-.08-2.42-.12-3.59-.12Z"/><path class="cls-2" d="M56.27,284.64c.32,2.06,2.18,15.93-4.78,26.4-5.72,8.62-13.14,14.78-18.61,15.49l2.19-9.95.16-.73-.56.49L26.9,323c-1.81-5.16,1-14.81,6.88-23.7,7-10.48,20.46-14.15,22.49-14.65m.2-.3s-15.26,3.3-22.89,14.81c-6.27,9.44-8.83,19.22-6.78,24.26l8-6.88-2.27,10.29c5.42-.49,13.1-6.53,19.14-15.64,7.64-11.5,4.77-26.84,4.77-26.84Z"/><path class="cls-2" d="M61.16,284.24c2,.74,14.89,6.07,20.48,17.33,4.6,9.26,6.22,18.77,4.1,23.87l-7.51-6.88-.56-.5.14.73,1.88,10c-5.37-1-12.34-8.25-17.09-17.81-5.59-11.26-2-24.79-1.44-26.79m-.16-.33s-4.76,14.86,1.38,27.23c5,10.15,12.23,17.25,17.62,18l-1.94-10.39,7.77,7.11c2.29-4.94.9-14.61-4-24.4C75.72,289.09,61,283.91,61,283.91Z"/><path class="cls-2" d="M86.85,270.68c.56,0,1.11,0,1.66.05,10.32.64,19.37,4,22.72,8.38l-9.71,3.07-.72.22.71.25,9.64,3.4c-3.14,3.66-11.07,6-20.39,6-1.18,0-2.38,0-3.58-.12-12.55-.78-22.48-10.64-23.92-12.14,1.55-1.26,11.74-9.12,23.59-9.12m0-.25c-13,0-24,9.34-24,9.34s10.49,11.56,24.28,12.42c1.21.08,2.41.12,3.59.12,9.74,0,17.82-2.55,20.81-6.38l-10-3.51,10-3.18c-3.13-4.45-12.21-8.08-23.11-8.76-.57,0-1.12-.05-1.68-.05Z"/><path class="cls-3" d="M272.4,227.15c4.36,3.3,7.38,12.88,7.38,23.55,0,12.58-9.22,23.1-10.63,24.64-1.41-1.54-10.63-12.06-10.63-24.64,0-10.34,2.78-19.58,7-23.19l3.67,9.5.27.7.21-.72,2.78-9.84m-.14-.41-2.89,10.18-3.79-9.83c-4.25,3.4-7.31,12.69-7.31,23.61,0,13.81,10.88,25,10.88,25s10.88-11.2,10.88-25c0-11.32-3.28-20.89-7.77-24Z"/><path class="cls-3" d="M229.94,250.66c5.47,0,12.52,2.26,19.34,6.2,10.89,6.29,15.39,19.54,16,21.53a46.37,46.37,0,0,1-9.57,1,33.77,33.77,0,0,1-17.08-4.1c-9-5.17-15.57-12.2-16.62-17.61l10.07,1.57.74.11-.53-.53-7.12-7.33a12.22,12.22,0,0,1,4.75-.82m0-.25a12.21,12.21,0,0,0-5.18,1l7.37,7.59-10.4-1.62c.82,5.38,7.33,12.66,16.79,18.13,5.68,3.27,12.07,4.13,17.21,4.13a44.83,44.83,0,0,0,9.89-1.05s-4.26-15-16.22-21.92c-7.07-4.09-14.2-6.24-19.46-6.24Z"/><path class="cls-3" d="M256.44,282.25a46.09,46.09,0,0,1,9.57,1c-.63,2-5.13,15.24-16,21.53-6.82,3.94-13.87,6.19-19.34,6.19a12.88,12.88,0,0,1-4.22-.61l6.39-7.93.47-.58-.73.18-9.91,2.5c.67-5.42,7.47-12.83,16.71-18.16a33.77,33.77,0,0,1,17.08-4.11m0-.25c-5.14,0-11.53.87-17.21,4.14-9.81,5.67-16.45,13.29-16.86,18.71l10.25-2.59L226,310.47a12.87,12.87,0,0,0,4.64.74c5.27,0,12.39-2.14,19.46-6.23,12-6.9,16.22-21.92,16.22-21.92a44.43,44.43,0,0,0-9.89-1.06Z"/><path class="cls-3" d="M270.57,285.06c1.41,1.54,10.63,12.06,10.63,24.64,0,10.34-2.78,19.58-6.94,23.19l-3.68-9.5-.27-.7-.2.72-2.79,9.84c-4.36-3.3-7.38-12.88-7.38-23.55,0-12.58,9.22-23.1,10.63-24.64m0-.37s-10.88,11.2-10.88,25c0,11.32,3.28,20.89,7.78,24l2.88-10.18,3.8,9.83c4.25-3.4,7.3-12.69,7.3-23.61,0-13.81-10.88-25-10.88-25Z"/><path class="cls-3" d="M284,281a33.83,33.83,0,0,1,17.09,4.1c8.95,5.17,15.56,12.2,16.61,17.61l-10.06-1.57-.74-.11.52.53,7.12,7.33a12.17,12.17,0,0,1-4.74.82c-5.47,0-12.52-2.26-19.34-6.2-10.89-6.29-15.4-19.54-16-21.53a46.34,46.34,0,0,1,9.56-1m0-.25a44.79,44.79,0,0,0-9.88,1.05s4.25,15,16.21,21.92c7.07,4.09,14.2,6.24,19.47,6.24a12.16,12.16,0,0,0,5.17-1l-7.37-7.59L318,303c-.82-5.38-7.34-12.66-16.8-18.13-5.67-3.27-12.06-4.13-17.21-4.13Z"/><path class="cls-3" d="M309.08,249.44a13,13,0,0,1,4.22.61L306.91,258l-.47.58.72-.18,9.91-2.5c-.67,5.42-7.46,12.83-16.7,18.16a33.83,33.83,0,0,1-17.09,4.11,46.06,46.06,0,0,1-9.56-1c.62-2,5.13-15.24,16-21.53,6.82-3.94,13.87-6.19,19.34-6.19m0-.25c-5.27,0-12.4,2.14-19.47,6.23-12,6.9-16.21,21.92-16.21,21.92a44.39,44.39,0,0,0,9.88,1.06c5.15,0,11.54-.87,17.21-4.14,9.81-5.67,16.45-13.29,16.87-18.71l-10.26,2.59,6.61-8.21a12.85,12.85,0,0,0-4.63-.74Z"/><path class="cls-4" d="M166.65,227.15C171,230.45,174,240,174,250.7c0,12.58-9.22,23.1-10.63,24.64-1.41-1.54-10.63-12.06-10.63-24.64,0-10.34,2.78-19.58,6.95-23.19l3.67,9.5.27.7.2-.72,2.79-9.84m-.14-.41-2.89,10.18-3.79-9.83c-4.25,3.4-7.31,12.69-7.31,23.61,0,13.81,10.88,25,10.88,25s10.88-11.2,10.88-25c0-11.32-3.28-20.89-7.77-24Z"/><path class="cls-4" d="M124.19,250.66c5.47,0,12.52,2.26,19.34,6.2,10.89,6.29,15.39,19.54,16,21.53a46.37,46.37,0,0,1-9.57,1,33.77,33.77,0,0,1-17.08-4.1c-9-5.17-15.57-12.2-16.62-17.61l10.07,1.57.74.11-.53-.53-7.12-7.33a12.22,12.22,0,0,1,4.75-.82m0-.25a12.21,12.21,0,0,0-5.18,1l7.37,7.59L116,257.36c.82,5.38,7.33,12.66,16.79,18.13,5.68,3.27,12.07,4.13,17.21,4.13a44.83,44.83,0,0,0,9.89-1.05s-4.26-15-16.22-21.92c-7.07-4.09-14.2-6.24-19.46-6.24Z"/><path class="cls-4" d="M150.69,282.25a46.09,46.09,0,0,1,9.57,1c-.63,2-5.13,15.24-16,21.53-6.82,3.94-13.87,6.19-19.34,6.19a12.88,12.88,0,0,1-4.22-.61l6.39-7.93.47-.58-.73.18-9.91,2.5c.67-5.42,7.47-12.83,16.71-18.16a33.77,33.77,0,0,1,17.08-4.11m0-.25c-5.14,0-11.53.87-17.21,4.14-9.81,5.67-16.45,13.29-16.86,18.71l10.25-2.59-6.61,8.21a12.91,12.91,0,0,0,4.64.74c5.27,0,12.39-2.14,19.46-6.23,12-6.9,16.22-21.92,16.22-21.92a44.43,44.43,0,0,0-9.89-1.06Z"/><path class="cls-4" d="M164.82,285.06c1.41,1.54,10.63,12.06,10.63,24.64,0,10.34-2.78,19.58-6.94,23.19l-3.68-9.5-.27-.7-.2.72-2.79,9.84c-4.36-3.3-7.38-12.88-7.38-23.55,0-12.58,9.22-23.1,10.63-24.64m0-.37s-10.88,11.2-10.88,25c0,11.32,3.28,20.89,7.78,24l2.88-10.18,3.8,9.83c4.25-3.4,7.3-12.69,7.3-23.61,0-13.81-10.88-25-10.88-25Z"/><path class="cls-4" d="M178.24,281a33.83,33.83,0,0,1,17.09,4.1c8.95,5.17,15.56,12.2,16.61,17.61l-10.06-1.57-.74-.11.52.53,7.12,7.33a12.17,12.17,0,0,1-4.74.82c-5.47,0-12.52-2.26-19.34-6.2-10.89-6.29-15.4-19.54-16-21.53a46.34,46.34,0,0,1,9.56-1m0-.25a44.79,44.79,0,0,0-9.88,1.05s4.25,15,16.21,21.92c7.07,4.09,14.2,6.24,19.47,6.24a12.16,12.16,0,0,0,5.17-1l-7.37-7.59L212.25,303c-.82-5.38-7.34-12.66-16.8-18.13-5.67-3.27-12.06-4.13-17.21-4.13Z"/><path class="cls-4" d="M203.33,249.44a13,13,0,0,1,4.22.61L201.16,258l-.47.58.72-.18,9.91-2.5c-.67,5.42-7.46,12.83-16.7,18.16a33.83,33.83,0,0,1-17.09,4.11,46.06,46.06,0,0,1-9.56-1c.62-2,5.13-15.24,16-21.53,6.82-3.94,13.87-6.19,19.34-6.19m0-.25c-5.27,0-12.4,2.14-19.47,6.23-12,6.9-16.21,21.92-16.21,21.92a44.39,44.39,0,0,0,9.88,1.06c5.15,0,11.54-.87,17.21-4.14,9.81-5.67,16.45-13.29,16.87-18.71l-10.26,2.59,6.61-8.21a12.85,12.85,0,0,0-4.63-.74Z"/><path class="cls-5" d="M508.79,235l-2.61,9.85-.2.72.59-.46,8-6.32c1.59,5.23-1.61,14.76-7.88,23.39-7.39,10.17-21,13.27-23.08,13.68-.24-2.07-1.51-16,5.88-26.18,6.08-8.36,13.77-14.2,19.26-14.68m.33-.27c-5.44.25-13.36,6-19.79,14.81-8.12,11.17-5.9,26.62-5.9,26.62s15.38-2.66,23.5-13.83c6.66-9.16,9.63-18.83,7.8-23.95l-8.31,6.53,2.7-10.18Z"/><path class="cls-5" d="M462.12,230.7c5.32,1.24,12,8.77,16.31,18.52,5.12,11.48,1,24.85.31,26.83-1.91-.83-14.61-6.7-19.73-18.19-4.2-9.45-5.42-19-3.08-24l7.21,7.19.53.53-.1-.74-1.45-10.12m-.3-.32,1.5,10.47-7.46-7.43c-2.5,4.83-1.52,14.56,2.92,24.54,5.62,12.62,20.11,18.42,20.11,18.42s5.39-14.65-.23-27.26c-4.6-10.35-11.48-17.76-16.84-18.74Z"/><path class="cls-5" d="M447.19,266.93a55.88,55.88,0,0,1,5.88.32c12.5,1.31,22,11.58,23.39,13.15-1.55,1.14-11.45,8.13-22.8,8.13-1,0-1.9,0-2.82-.14-10.28-1.09-19.18-4.82-22.34-9.34l9.83-2.66.72-.19-.69-.28-9.49-3.8c3-3.21,10-5.19,18.32-5.19m0-.25c-8.7,0-15.85,2.13-18.74,5.54l9.82,3.93L428.1,278.9c2.93,4.58,11.85,8.59,22.71,9.73a25,25,0,0,0,2.85.15c12.54,0,23.16-8.35,23.16-8.35s-10-12-23.73-13.43a54.62,54.62,0,0,0-5.9-.32Z"/><path class="cls-5" d="M479.08,284.55c.24,2.07,1.5,16-5.89,26.18-6.08,8.36-13.76,14.2-19.26,14.68l2.62-9.85.19-.72-.59.46-8,6.32c-1.59-5.23,1.6-14.76,7.88-23.39,7.39-10.17,21-13.27,23.08-13.68m.21-.3s-15.38,2.66-23.5,13.83c-6.66,9.16-9.63,18.83-7.8,23.95l8.32-6.53-2.71,10.18c5.44-.25,13.37-6,19.79-14.81,8.12-11.17,5.9-26.62,5.9-26.62Z"/><path class="cls-5" d="M484,284.35c1.91.83,14.61,6.7,19.72,18.19,4.21,9.45,5.42,19,3.09,24l-7.22-7.19-.53-.53.11.74,1.45,10.12c-5.32-1.24-12-8.77-16.32-18.52-5.11-11.48-1-24.85-.3-26.83m-.15-.33s-5.39,14.65.22,27.26c4.61,10.35,11.49,17.76,16.85,18.74l-1.51-10.47,7.47,7.43c2.5-4.83,1.51-14.56-2.93-24.54-5.61-12.62-20.1-18.42-20.1-18.42Z"/><path class="cls-5" d="M509.06,271.87c.95,0,1.9.05,2.82.14,10.29,1.09,19.19,4.82,22.35,9.34L524.39,284l-.72.19.7.28,9.48,3.8c-3,3.21-10,5.19-18.32,5.19a55.7,55.7,0,0,1-5.87-.32c-12.51-1.31-22-11.58-23.39-13.15,1.55-1.14,11.44-8.13,22.79-8.13m0-.25c-12.54,0-23.15,8.35-23.15,8.35s10,12,23.72,13.43a54.62,54.62,0,0,0,5.9.32c8.7,0,15.85-2.13,18.75-5.54l-9.82-3.93,10.17-2.75c-2.94-4.58-11.85-8.59-22.72-9.73a25,25,0,0,0-2.85-.15Z"/><path class="cls-6" d="M378.15,227.15c4.36,3.3,7.38,12.88,7.38,23.55,0,12.58-9.22,23.1-10.63,24.64-1.41-1.54-10.63-12.06-10.63-24.64,0-10.34,2.78-19.58,7-23.19l3.67,9.5.27.7.21-.72,2.78-9.84m-.14-.41-2.89,10.18-3.79-9.83c-4.25,3.4-7.31,12.69-7.31,23.61,0,13.81,10.88,25,10.88,25s10.88-11.2,10.88-25c0-11.32-3.28-20.89-7.77-24Z"/><path class="cls-6" d="M335.69,250.66c5.47,0,12.52,2.26,19.34,6.2,10.89,6.29,15.39,19.54,16,21.53a46.37,46.37,0,0,1-9.57,1,33.77,33.77,0,0,1-17.08-4.1c-9-5.17-15.57-12.2-16.62-17.61l10.07,1.57.74.11-.53-.53-7.12-7.33a12.22,12.22,0,0,1,4.75-.82m0-.25a12.21,12.21,0,0,0-5.18,1l7.37,7.59-10.4-1.62c.82,5.38,7.33,12.66,16.79,18.13,5.68,3.27,12.07,4.13,17.21,4.13a44.83,44.83,0,0,0,9.89-1.05s-4.26-15-16.22-21.92c-7.07-4.09-14.2-6.24-19.46-6.24Z"/><path class="cls-6" d="M362.19,282.25a46.09,46.09,0,0,1,9.57,1c-.63,2-5.13,15.24-16,21.53-6.82,3.94-13.87,6.19-19.34,6.19a12.88,12.88,0,0,1-4.22-.61l6.39-7.93.47-.58-.73.18-9.91,2.5c.67-5.42,7.47-12.83,16.71-18.16a33.77,33.77,0,0,1,17.08-4.11m0-.25c-5.14,0-11.53.87-17.21,4.14-9.81,5.67-16.45,13.29-16.86,18.71l10.25-2.59-6.61,8.21a12.87,12.87,0,0,0,4.64.74c5.27,0,12.39-2.14,19.46-6.23,12-6.9,16.22-21.92,16.22-21.92a44.43,44.43,0,0,0-9.89-1.06Z"/><path class="cls-6" d="M376.32,285.06C377.73,286.6,387,297.12,387,309.7c0,10.34-2.78,19.58-6.94,23.19l-3.68-9.5-.27-.7-.2.72-2.79,9.84c-4.36-3.3-7.38-12.88-7.38-23.55,0-12.58,9.22-23.1,10.63-24.64m0-.37s-10.88,11.2-10.88,25c0,11.32,3.28,20.89,7.78,24l2.88-10.18,3.8,9.83c4.25-3.4,7.3-12.69,7.3-23.61,0-13.81-10.88-25-10.88-25Z"/><path class="cls-6" d="M389.74,281a33.83,33.83,0,0,1,17.09,4.1c8.95,5.17,15.56,12.2,16.61,17.61l-10.06-1.57-.74-.11.52.53,7.12,7.33a12.17,12.17,0,0,1-4.74.82c-5.47,0-12.52-2.26-19.34-6.2-10.89-6.29-15.4-19.54-16-21.53a46.34,46.34,0,0,1,9.56-1m0-.25a44.79,44.79,0,0,0-9.88,1.05s4.25,15,16.21,21.92c7.07,4.09,14.2,6.24,19.47,6.24a12.16,12.16,0,0,0,5.17-1l-7.37-7.59L423.75,303c-.82-5.38-7.34-12.66-16.8-18.13-5.67-3.27-12.06-4.13-17.21-4.13Z"/><path class="cls-6" d="M414.83,249.44a13,13,0,0,1,4.22.61L412.66,258l-.47.58.72-.18,9.91-2.5c-.67,5.42-7.46,12.83-16.7,18.16A33.83,33.83,0,0,1,389,278.15a46.06,46.06,0,0,1-9.56-1c.62-2,5.13-15.24,16-21.53,6.82-3.94,13.87-6.19,19.34-6.19m0-.25c-5.27,0-12.4,2.14-19.47,6.23-12,6.9-16.21,21.92-16.21,21.92A44.39,44.39,0,0,0,389,278.4c5.15,0,11.54-.87,17.21-4.14,9.81-5.67,16.45-13.29,16.87-18.71l-10.26,2.59,6.61-8.21a12.85,12.85,0,0,0-4.63-.74Z"/><path class="cls-7" d="M60.9,338.65c4.36,3.3,7.38,12.88,7.38,23.55,0,12.58-9.22,23.1-10.63,24.64C56.24,385.3,47,374.78,47,362.2,47,351.86,49.8,342.62,54,339l3.67,9.5.27.7.2-.72,2.79-9.84m-.14-.41-2.89,10.18-3.79-9.83c-4.25,3.4-7.31,12.69-7.31,23.61,0,13.81,10.88,25,10.88,25s10.88-11.2,10.88-25c0-11.32-3.28-20.89-7.77-24Z"/><path class="cls-7" d="M18.44,362.16c5.47,0,12.52,2.26,19.34,6.2,10.89,6.29,15.39,19.54,16,21.53a46.37,46.37,0,0,1-9.57,1,33.77,33.77,0,0,1-17.08-4.1c-9-5.17-15.57-12.2-16.62-17.61l10.07,1.57.74.11-.53-.53L13.69,363a12.22,12.22,0,0,1,4.75-.82m0-.25a12.21,12.21,0,0,0-5.18,1l7.37,7.59-10.4-1.62c.82,5.38,7.33,12.66,16.79,18.13,5.68,3.27,12.07,4.13,17.21,4.13a44.83,44.83,0,0,0,9.89-1.05s-4.26-15-16.22-21.92c-7.07-4.09-14.2-6.24-19.46-6.24Z"/><path class="cls-7" d="M44.94,393.75a46.09,46.09,0,0,1,9.57,1c-.63,2-5.13,15.24-16,21.53-6.82,3.94-13.87,6.19-19.34,6.19a12.88,12.88,0,0,1-4.22-.61l6.39-7.93.47-.58-.73.18L11.15,416c.67-5.42,7.47-12.83,16.71-18.16a33.77,33.77,0,0,1,17.08-4.11m0-.25c-5.14,0-11.53.87-17.21,4.14-9.81,5.67-16.45,13.29-16.86,18.71l10.25-2.59L14.51,422a12.91,12.91,0,0,0,4.64.74c5.27,0,12.39-2.14,19.46-6.23,12-6.9,16.22-21.92,16.22-21.92a44.43,44.43,0,0,0-9.89-1.06Z"/><path class="cls-7" d="M59.07,396.56c1.41,1.54,10.63,12.06,10.63,24.64,0,10.34-2.78,19.58-6.94,23.19l-3.68-9.5-.27-.7-.2.72-2.79,9.84c-4.36-3.3-7.38-12.88-7.38-23.55,0-12.58,9.22-23.1,10.63-24.64m0-.37s-10.88,11.2-10.88,25c0,11.32,3.28,20.89,7.78,24L58.85,435l3.8,9.83c4.25-3.4,7.3-12.69,7.3-23.61,0-13.81-10.88-25-10.88-25Z"/><path class="cls-7" d="M72.49,392.53a33.83,33.83,0,0,1,17.09,4.1c9,5.17,15.56,12.2,16.61,17.61l-10.06-1.57-.74-.11.52.53,7.12,7.33a12.17,12.17,0,0,1-4.74.82c-5.47,0-12.52-2.26-19.34-6.2-10.89-6.29-15.4-19.54-16-21.53a46.24,46.24,0,0,1,9.56-1m0-.25a44.79,44.79,0,0,0-9.88,1.05s4.25,15,16.21,21.92c7.07,4.09,14.2,6.24,19.47,6.24a12.16,12.16,0,0,0,5.17-1l-7.37-7.59,10.41,1.62c-.82-5.38-7.34-12.66-16.8-18.13-5.67-3.27-12.06-4.13-17.21-4.13Z"/><path class="cls-7" d="M97.58,360.94a13,13,0,0,1,4.22.61l-6.39,7.93-.47.58.72-.18,9.91-2.5c-.67,5.42-7.46,12.83-16.7,18.16a33.83,33.83,0,0,1-17.09,4.11,46.06,46.06,0,0,1-9.56-1c.62-2,5.13-15.24,16-21.53,6.82-3.94,13.87-6.19,19.34-6.19m0-.25c-5.27,0-12.4,2.14-19.47,6.23-12,6.9-16.21,21.92-16.21,21.92a44.39,44.39,0,0,0,9.88,1.06c5.15,0,11.54-.87,17.21-4.14,9.81-5.67,16.45-13.29,16.87-18.71L95.6,369.64l6.61-8.21a12.85,12.85,0,0,0-4.63-.74Z"/><path class="cls-8" d="M272.4,338.65c4.36,3.3,7.38,12.88,7.38,23.55,0,12.58-9.22,23.1-10.63,24.64-1.41-1.54-10.63-12.06-10.63-24.64,0-10.34,2.78-19.58,7-23.19l3.67,9.5.27.7.21-.72,2.78-9.84m-.14-.41-2.89,10.18-3.79-9.83c-4.25,3.4-7.31,12.69-7.31,23.61,0,13.81,10.88,25,10.88,25S280,376,280,362.2c0-11.32-3.28-20.89-7.77-24Z"/><path class="cls-8" d="M229.94,362.16c5.47,0,12.52,2.26,19.34,6.2,10.89,6.29,15.39,19.54,16,21.53a46.37,46.37,0,0,1-9.57,1,33.77,33.77,0,0,1-17.08-4.1c-9-5.17-15.57-12.2-16.62-17.61l10.07,1.57.74.11-.53-.53L225.19,363a12.22,12.22,0,0,1,4.75-.82m0-.25a12.21,12.21,0,0,0-5.18,1l7.37,7.59-10.4-1.62c.82,5.38,7.33,12.66,16.79,18.13,5.68,3.27,12.07,4.13,17.21,4.13a44.83,44.83,0,0,0,9.89-1.05s-4.26-15-16.22-21.92c-7.07-4.09-14.2-6.24-19.46-6.24Z"/><path class="cls-8" d="M256.44,393.75a46.09,46.09,0,0,1,9.57,1c-.63,2-5.13,15.24-16,21.53-6.82,3.94-13.87,6.19-19.34,6.19a12.88,12.88,0,0,1-4.22-.61l6.39-7.93.47-.58-.73.18-9.91,2.5c.67-5.42,7.47-12.83,16.71-18.16a33.77,33.77,0,0,1,17.08-4.11m0-.25c-5.14,0-11.53.87-17.21,4.14-9.81,5.67-16.45,13.29-16.86,18.71l10.25-2.59L226,422a12.87,12.87,0,0,0,4.64.74c5.27,0,12.39-2.14,19.46-6.23,12-6.9,16.22-21.92,16.22-21.92a44.43,44.43,0,0,0-9.89-1.06Z"/><path class="cls-8" d="M270.57,396.56c1.41,1.54,10.63,12.06,10.63,24.64,0,10.34-2.78,19.58-6.94,23.19l-3.68-9.5-.27-.7-.2.72-2.79,9.84c-4.36-3.3-7.38-12.88-7.38-23.55,0-12.58,9.22-23.1,10.63-24.64m0-.37s-10.88,11.2-10.88,25c0,11.32,3.28,20.89,7.78,24L270.35,435l3.8,9.83c4.25-3.4,7.3-12.69,7.3-23.61,0-13.81-10.88-25-10.88-25Z"/><path class="cls-8" d="M284,392.53a33.83,33.83,0,0,1,17.09,4.1c8.95,5.17,15.56,12.2,16.61,17.61l-10.06-1.57-.74-.11.52.53,7.12,7.33a12.17,12.17,0,0,1-4.74.82c-5.47,0-12.52-2.26-19.34-6.2-10.89-6.29-15.4-19.54-16-21.53a46.34,46.34,0,0,1,9.56-1m0-.25a44.79,44.79,0,0,0-9.88,1.05s4.25,15,16.21,21.92c7.07,4.09,14.2,6.24,19.47,6.24a12.16,12.16,0,0,0,5.17-1l-7.37-7.59L318,414.54c-.82-5.38-7.34-12.66-16.8-18.13-5.67-3.27-12.06-4.13-17.21-4.13Z"/><path class="cls-8" d="M309.08,360.94a13,13,0,0,1,4.22.61l-6.39,7.93-.47.58.72-.18,9.91-2.5c-.67,5.42-7.46,12.83-16.7,18.16a33.83,33.83,0,0,1-17.09,4.11,46.06,46.06,0,0,1-9.56-1c.62-2,5.13-15.24,16-21.53,6.82-3.94,13.87-6.19,19.34-6.19m0-.25c-5.27,0-12.4,2.14-19.47,6.23-12,6.9-16.21,21.92-16.21,21.92a44.39,44.39,0,0,0,9.88,1.06c5.15,0,11.54-.87,17.21-4.14,9.81-5.67,16.45-13.29,16.87-18.71l-10.26,2.59,6.61-8.21a12.85,12.85,0,0,0-4.63-.74Z"/><path class="cls-9" d="M189,345l-2.06,10-.15.74.56-.5,7.68-6.75c1.88,5.13-.78,14.82-6.56,23.79-6.81,10.57-20.26,14.42-22.28,15-.35-2.05-2.4-15.89,4.41-26.47,5.6-8.69,12.94-14.95,18.4-15.73m.32-.29c-5.41.55-13,6.7-18.93,15.89-7.48,11.61-4.4,26.91-4.4,26.91s15.21-3.52,22.69-15.12c6.14-9.53,8.56-19.34,6.45-24.36l-7.94,7,2.13-10.31Z"/><path class="cls-10" d="M142.12,343.36c5.39.93,12.45,8.08,17.33,17.57,5.75,11.18,2.36,24.76,1.81,26.77-2-.72-15-5.87-20.71-17.05-4.73-9.2-6.48-18.69-4.43-23.81l7.61,6.77.56.5-.15-.73-2-10m-.31-.3,2.08,10.37-7.87-7c-2.22,5-.69,14.62,4.3,24.34C146.64,383,161.43,388,161.43,388s4.56-14.93-1.75-27.21c-5.18-10.08-12.47-17.08-17.87-17.76Z"/><path class="cls-9" d="M132.32,380.28c.93,0,1.88,0,2.82.07,12.55.62,22.62,10.34,24.08,11.82-1.54,1.29-11.82,9.44-23.83,9.44q-.64,0-1.29,0c-10.33-.5-19.42-3.73-22.83-8.07l9.67-3.2.71-.24-.71-.23-9.69-3.27c3.19-3.83,11.39-6.29,21.07-6.29m0-.25c-10.08,0-18.47,2.69-21.49,6.66l10,3.38-10,3.32c3.19,4.41,12.31,7.91,23.23,8.44.43,0,.87,0,1.3,0,13.22,0,24.2-9.67,24.2-9.67s-10.65-11.41-24.44-12.09c-1-.05-1.9-.07-2.83-.07Z"/><path class="cls-10" d="M162.08,396.17c.35,2.05,2.39,15.9-4.42,26.47-5.6,8.69-12.94,14.95-18.4,15.73l2.06-10,.15-.74-.56.5-7.67,6.75c-1.88-5.13.77-14.82,6.56-23.79,6.81-10.57,20.26-14.42,22.28-14.95m.19-.31s-15.2,3.52-22.68,15.12c-6.14,9.53-8.56,19.34-6.45,24.36l7.94-7L139,438.66c5.41-.55,13-6.7,18.92-15.89,7.48-11.61,4.4-26.91,4.4-26.91Z"/><path class="cls-9" d="M167,395.7c2,.72,15,5.87,20.72,17.05,4.73,9.2,6.48,18.69,4.43,23.81l-7.61-6.77-.56-.5.15.73,2,10c-5.38-.93-12.45-8.08-17.33-17.57-5.74-11.18-2.36-24.76-1.81-26.77m-.16-.33s-4.56,14.93,1.75,27.21c5.18,10.08,12.46,17.08,17.87,17.76L184.33,430l7.87,7c2.23-5,.7-14.62-4.3-24.34-6.31-12.28-21.1-17.27-21.1-17.27Z"/><path class="cls-10" d="M192.84,381.79l1.29,0c10.33.5,19.42,3.73,22.83,8.07l-9.67,3.2-.71.24.71.23,9.68,3.27c-3.19,3.83-11.39,6.29-21.07,6.29-.93,0-1.87,0-2.81-.07-12.56-.62-22.62-10.34-24.09-11.82,1.55-1.29,11.83-9.44,23.84-9.44m0-.25c-13.22,0-24.2,9.67-24.2,9.67s10.64,11.41,24.44,12.09c.95,0,1.89.07,2.82.07,10.08,0,18.48-2.69,21.49-6.66l-10-3.38,10-3.32c-3.19-4.41-12.32-7.91-23.23-8.44l-1.3,0Z"/><path class="cls-11" d="M483.9,338.65c4.36,3.3,7.38,12.88,7.38,23.55,0,12.58-9.22,23.1-10.63,24.64C479.24,385.3,470,374.78,470,362.2c0-10.34,2.78-19.58,7-23.19l3.67,9.5.27.7.21-.72,2.78-9.84m-.14-.41-2.89,10.18-3.79-9.83c-4.25,3.4-7.31,12.69-7.31,23.61,0,13.81,10.88,25,10.88,25s10.88-11.2,10.88-25c0-11.32-3.28-20.89-7.77-24Z"/><path class="cls-11" d="M441.44,362.16c5.47,0,12.52,2.26,19.34,6.2,10.89,6.29,15.39,19.54,16,21.53a46.37,46.37,0,0,1-9.57,1,33.77,33.77,0,0,1-17.08-4.1c-9-5.17-15.57-12.2-16.62-17.61l10.07,1.57.74.11-.53-.53L436.69,363a12.22,12.22,0,0,1,4.75-.82m0-.25a12.21,12.21,0,0,0-5.18,1l7.37,7.59-10.4-1.62c.82,5.38,7.33,12.66,16.79,18.13,5.68,3.27,12.07,4.13,17.21,4.13a44.83,44.83,0,0,0,9.89-1.05s-4.26-15-16.22-21.92c-7.07-4.09-14.2-6.24-19.46-6.24Z"/><path class="cls-11" d="M467.94,393.75a46.09,46.09,0,0,1,9.57,1c-.63,2-5.13,15.24-16,21.53-6.82,3.94-13.87,6.19-19.34,6.19a12.88,12.88,0,0,1-4.22-.61l6.39-7.93.47-.58-.73.18-9.91,2.5c.67-5.42,7.47-12.83,16.71-18.16a33.77,33.77,0,0,1,17.08-4.11m0-.25c-5.14,0-11.53.87-17.21,4.14-9.81,5.67-16.45,13.29-16.86,18.71l10.25-2.59L437.51,422a12.87,12.87,0,0,0,4.64.74c5.27,0,12.39-2.14,19.46-6.23,12-6.9,16.22-21.92,16.22-21.92a44.43,44.43,0,0,0-9.89-1.06Z"/><path class="cls-11" d="M482.07,396.56c1.41,1.54,10.63,12.06,10.63,24.64,0,10.34-2.78,19.58-6.94,23.19l-3.68-9.5-.27-.7-.2.72-2.79,9.84c-4.36-3.3-7.38-12.88-7.38-23.55,0-12.58,9.22-23.1,10.63-24.64m0-.37s-10.88,11.2-10.88,25c0,11.32,3.28,20.89,7.78,24L481.85,435l3.8,9.83c4.25-3.4,7.3-12.69,7.3-23.61,0-13.81-10.88-25-10.88-25Z"/><path class="cls-11" d="M495.49,392.53a33.83,33.83,0,0,1,17.09,4.1c8.95,5.17,15.56,12.2,16.61,17.61l-10.06-1.57-.74-.11.52.53,7.12,7.33a12.17,12.17,0,0,1-4.74.82c-5.47,0-12.52-2.26-19.34-6.2-10.89-6.29-15.4-19.54-16-21.53a46.34,46.34,0,0,1,9.56-1m0-.25a44.79,44.79,0,0,0-9.88,1.05s4.25,15,16.21,21.92c7.07,4.09,14.2,6.24,19.47,6.24a12.16,12.16,0,0,0,5.17-1l-7.37-7.59,10.41,1.62c-.82-5.38-7.34-12.66-16.8-18.13-5.67-3.27-12.06-4.13-17.21-4.13Z"/><path class="cls-11" d="M520.58,360.94a13,13,0,0,1,4.22.61l-6.39,7.93-.47.58.72-.18,9.91-2.5c-.67,5.42-7.46,12.83-16.7,18.16a33.83,33.83,0,0,1-17.09,4.11,46.06,46.06,0,0,1-9.56-1c.62-2,5.13-15.24,16-21.53,6.82-3.94,13.87-6.19,19.34-6.19m0-.25c-5.27,0-12.4,2.14-19.47,6.23-12,6.9-16.21,21.92-16.21,21.92a44.39,44.39,0,0,0,9.88,1.06c5.15,0,11.54-.87,17.21-4.14,9.81-5.67,16.45-13.29,16.87-18.71l-10.26,2.59,6.61-8.21a12.85,12.85,0,0,0-4.63-.74Z"/><path class="cls-12" d="M400.2,344.89l-2,10-.14.74.56-.5,7.63-6.8c1.91,5.12-.69,14.83-6.42,23.83-6.75,10.61-20.18,14.54-22.2,15.08-.36-2.05-2.49-15.89,4.26-26.49,5.56-8.73,12.86-15,18.32-15.84m.31-.3c-5.41.59-13,6.78-18.84,16-7.41,11.65-4.24,26.94-4.24,26.94s15.18-3.6,22.6-15.25c6.08-9.56,8.45-19.39,6.31-24.39l-7.9,7,2.07-10.33Z"/><path class="cls-13" d="M353.35,343.48c5.39.91,12.49,8,17.43,17.48,5.81,11.15,2.5,24.74,2,26.76-2-.71-15-5.78-20.81-16.94-4.78-9.17-6.59-18.65-4.57-23.78l7.65,6.73.56.49-.15-.73-2.07-10m-.32-.3,2.15,10.36-7.91-7c-2.2,5-.62,14.63,4.43,24.32,6.39,12.24,21.21,17.14,21.21,17.14s4.47-15-1.91-27.2c-5.24-10-12.56-17-18-17.66Z"/><path class="cls-12" d="M344.08,380.46q1.25,0,2.49.06c12.56.54,22.68,10.2,24.16,11.68-1.55,1.3-11.87,9.58-23.94,9.58l-1.14,0c-10.33-.44-19.44-3.62-22.87-7.93l9.65-3.26.71-.24-.71-.24-9.71-3.21c3.18-3.84,11.68-6.41,21.36-6.41m0-.25c-10.22,0-18.75,2.76-21.77,6.79l10,3.32-10,3.37c3.21,4.39,12.36,7.84,23.27,8.31l1.15,0c13.29,0,24.3-9.82,24.3-9.82s-10.71-11.35-24.51-11.94c-.84,0-1.67-.06-2.5-.06Z"/><path class="cls-13" d="M373.6,396.18c.37,2.05,2.49,15.89-4.26,26.49-5.55,8.73-12.86,15-18.31,15.84l2-10,.15-.74-.56.5-7.63,6.8c-1.91-5.12.69-14.83,6.42-23.83,6.75-10.61,20.18-14.54,22.19-15.08m.2-.31s-15.19,3.6-22.6,15.25c-6.08,9.56-8.45,19.39-6.31,24.39l7.9-7-2.08,10.33c5.42-.59,13-6.78,18.84-16,7.42-11.65,4.25-26.94,4.25-26.94Z"/><path class="cls-12" d="M378.49,395.68c2,.71,15,5.79,20.81,16.94,4.78,9.17,6.58,18.65,4.56,23.78l-7.65-6.73-.56-.49.15.73,2.08,10c-5.39-.91-12.5-8-17.43-17.48-5.81-11.15-2.5-24.74-2-26.76m-.17-.32s-4.47,14.95,1.91,27.2c5.23,10,12.56,17,18,17.66l-2.14-10.36,7.91,7c2.2-5,.61-14.63-4.44-24.32-6.38-12.24-21.2-17.14-21.2-17.14Z"/><path class="cls-13" d="M404.43,381.62l1.14,0c10.33.44,19.44,3.62,22.88,7.93l-9.65,3.26-.71.24.71.24,9.7,3.21c-3.18,3.84-11.68,6.41-21.36,6.41-.82,0-1.66,0-2.49-.06-12.56-.54-22.68-10.2-24.15-11.68,1.55-1.3,11.86-9.58,23.93-9.58m0-.25c-13.29,0-24.3,9.82-24.3,9.82s10.72,11.35,24.51,11.94c.85,0,1.68.06,2.5.06,10.23,0,18.76-2.76,21.78-6.79l-10-3.32,10-3.37c-3.22-4.39-12.36-7.84-23.28-8.31-.38,0-.77,0-1.15,0Z"/><path class="cls-14" d="M60.9,115.65c4.36,3.3,7.38,12.88,7.38,23.55,0,12.58-9.22,23.1-10.63,24.64C56.24,162.3,47,151.78,47,139.2,47,128.86,49.8,119.62,54,116l3.67,9.5.27.7.2-.72,2.79-9.84m-.14-.41-2.89,10.18-3.79-9.83c-4.25,3.4-7.31,12.69-7.31,23.61,0,13.81,10.88,25,10.88,25s10.88-11.2,10.88-25c0-11.32-3.28-20.89-7.77-24Z"/><path class="cls-14" d="M18.44,139.16c5.47,0,12.52,2.26,19.34,6.2,10.89,6.29,15.39,19.54,16,21.53a46.37,46.37,0,0,1-9.57,1,33.77,33.77,0,0,1-17.08-4.1c-9-5.17-15.57-12.2-16.62-17.61l10.07,1.57.74.11-.53-.53L13.69,140a12.22,12.22,0,0,1,4.75-.82m0-.25a12.21,12.21,0,0,0-5.18,1l7.37,7.59-10.4-1.62c.82,5.38,7.33,12.66,16.79,18.13,5.68,3.27,12.07,4.13,17.21,4.13a44.83,44.83,0,0,0,9.89-1.05s-4.26-15-16.22-21.92c-7.07-4.09-14.2-6.24-19.46-6.24Z"/><path class="cls-14" d="M44.94,170.75a46.09,46.09,0,0,1,9.57,1c-.63,2-5.13,15.24-16,21.53-6.82,3.94-13.87,6.19-19.34,6.19a12.88,12.88,0,0,1-4.22-.61l6.39-7.93.47-.58-.73.18L11.15,193c.67-5.42,7.47-12.83,16.71-18.16a33.77,33.77,0,0,1,17.08-4.11m0-.25c-5.14,0-11.53.87-17.21,4.14-9.81,5.67-16.45,13.29-16.86,18.71l10.25-2.59L14.51,199a12.91,12.91,0,0,0,4.64.74c5.27,0,12.39-2.14,19.46-6.23,12-6.9,16.22-21.92,16.22-21.92a44.43,44.43,0,0,0-9.89-1.06Z"/><path class="cls-14" d="M59.07,173.56c1.41,1.54,10.63,12.06,10.63,24.64,0,10.34-2.78,19.58-6.94,23.19l-3.68-9.5-.27-.7-.2.72-2.79,9.84c-4.36-3.3-7.38-12.88-7.38-23.55,0-12.58,9.22-23.1,10.63-24.64m0-.37s-10.88,11.2-10.88,25c0,11.32,3.28,20.89,7.78,24L58.85,212l3.8,9.83c4.25-3.4,7.3-12.69,7.3-23.61,0-13.81-10.88-25-10.88-25Z"/><path class="cls-14" d="M72.49,169.53a33.83,33.83,0,0,1,17.09,4.1c9,5.17,15.56,12.2,16.61,17.61l-10.06-1.57-.74-.11.52.53,7.12,7.33a12.17,12.17,0,0,1-4.74.82c-5.47,0-12.52-2.26-19.34-6.2-10.89-6.29-15.4-19.54-16-21.53a46.34,46.34,0,0,1,9.56-1m0-.25a44.79,44.79,0,0,0-9.88,1.05s4.25,15,16.21,21.92c7.07,4.09,14.2,6.24,19.47,6.24a12.16,12.16,0,0,0,5.17-1l-7.37-7.59,10.41,1.62c-.82-5.38-7.34-12.66-16.8-18.13-5.67-3.27-12.06-4.13-17.21-4.13Z"/><path class="cls-14" d="M97.58,137.94a13,13,0,0,1,4.22.61l-6.39,7.93-.47.58.72-.18,9.91-2.5c-.67,5.42-7.46,12.83-16.7,18.16a33.83,33.83,0,0,1-17.09,4.11,46.06,46.06,0,0,1-9.56-1c.62-2,5.13-15.24,16-21.53,6.82-3.94,13.87-6.19,19.34-6.19m0-.25c-5.27,0-12.4,2.14-19.47,6.23-12,6.9-16.21,21.92-16.21,21.92a44.39,44.39,0,0,0,9.88,1.06c5.15,0,11.54-.87,17.21-4.14,9.81-5.67,16.45-13.29,16.87-18.71L95.6,146.64l6.61-8.21a12.85,12.85,0,0,0-4.63-.74Z"/><path class="cls-15" d="M272.4,115.65c4.36,3.3,7.38,12.88,7.38,23.55,0,12.58-9.22,23.1-10.63,24.64-1.41-1.54-10.63-12.06-10.63-24.64,0-10.34,2.78-19.58,7-23.19l3.67,9.5.27.7.21-.72,2.78-9.84m-.14-.41-2.89,10.18-3.79-9.83c-4.25,3.4-7.31,12.69-7.31,23.61,0,13.81,10.88,25,10.88,25S280,153,280,139.2c0-11.32-3.28-20.89-7.77-24Z"/><path class="cls-15" d="M229.94,139.16c5.47,0,12.52,2.26,19.34,6.2,10.89,6.29,15.39,19.54,16,21.53a46.37,46.37,0,0,1-9.57,1,33.77,33.77,0,0,1-17.08-4.1c-9-5.17-15.57-12.2-16.62-17.61l10.07,1.57.74.11-.53-.53L225.19,140a12.22,12.22,0,0,1,4.75-.82m0-.25a12.21,12.21,0,0,0-5.18,1l7.37,7.59-10.4-1.62c.82,5.38,7.33,12.66,16.79,18.13,5.68,3.27,12.07,4.13,17.21,4.13a44.83,44.83,0,0,0,9.89-1.05s-4.26-15-16.22-21.92c-7.07-4.09-14.2-6.24-19.46-6.24Z"/><path class="cls-15" d="M256.44,170.75a46.09,46.09,0,0,1,9.57,1c-.63,2-5.13,15.24-16,21.53-6.82,3.94-13.87,6.19-19.34,6.19a12.88,12.88,0,0,1-4.22-.61l6.39-7.93.47-.58-.73.18-9.91,2.5c.67-5.42,7.47-12.83,16.71-18.16a33.77,33.77,0,0,1,17.08-4.11m0-.25c-5.14,0-11.53.87-17.21,4.14-9.81,5.67-16.45,13.29-16.86,18.71l10.25-2.59L226,199a12.91,12.91,0,0,0,4.64.74c5.27,0,12.39-2.14,19.46-6.23,12-6.9,16.22-21.92,16.22-21.92a44.43,44.43,0,0,0-9.89-1.06Z"/><path class="cls-15" d="M270.57,173.56c1.41,1.54,10.63,12.06,10.63,24.64,0,10.34-2.78,19.58-6.94,23.19l-3.68-9.5-.27-.7-.2.72-2.79,9.84c-4.36-3.3-7.38-12.88-7.38-23.55,0-12.58,9.22-23.1,10.63-24.64m0-.37s-10.88,11.2-10.88,25c0,11.32,3.28,20.89,7.78,24L270.35,212l3.8,9.83c4.25-3.4,7.3-12.69,7.3-23.61,0-13.81-10.88-25-10.88-25Z"/><path class="cls-15" d="M284,169.53a33.83,33.83,0,0,1,17.09,4.1c8.95,5.17,15.56,12.2,16.61,17.61l-10.06-1.57-.74-.11.52.53,7.12,7.33a12.17,12.17,0,0,1-4.74.82c-5.47,0-12.52-2.26-19.34-6.2-10.89-6.29-15.4-19.54-16-21.53a46.34,46.34,0,0,1,9.56-1m0-.25a44.79,44.79,0,0,0-9.88,1.05s4.25,15,16.21,21.92c7.07,4.09,14.2,6.24,19.47,6.24a12.16,12.16,0,0,0,5.17-1l-7.37-7.59L318,191.54c-.82-5.38-7.34-12.66-16.8-18.13-5.67-3.27-12.06-4.13-17.21-4.13Z"/><path class="cls-15" d="M309.08,137.94a13,13,0,0,1,4.22.61l-6.39,7.93-.47.58.72-.18,9.91-2.5c-.67,5.42-7.46,12.83-16.7,18.16a33.83,33.83,0,0,1-17.09,4.11,46.06,46.06,0,0,1-9.56-1c.62-2,5.13-15.24,16-21.53,6.82-3.94,13.87-6.19,19.34-6.19m0-.25c-5.27,0-12.4,2.14-19.47,6.23-12,6.9-16.21,21.92-16.21,21.92a44.39,44.39,0,0,0,9.88,1.06c5.15,0,11.54-.87,17.21-4.14,9.81-5.67,16.45-13.29,16.87-18.71l-10.26,2.59,6.61-8.21a12.85,12.85,0,0,0-4.63-.74Z"/><path class="cls-16" d="M187.13,121.1l-1.67,10.05-.12.73.54-.51,7.4-7.05c2.08,5.05-.2,14.84-5.62,24-6.4,10.82-19.69,15.2-21.69,15.81-.43-2-3-15.79,3.38-26.62,5.26-8.91,12.36-15.45,17.78-16.44m.31-.31c-5.39.77-12.74,7.21-18.3,16.62-7,11.89-3.35,27.06-3.35,27.06s15.06-4.1,22.08-16c5.76-9.76,7.81-19.66,5.5-24.59l-7.66,7.3,1.73-10.4Z"/><path class="cls-17" d="M140.26,121.25c5.42.72,12.76,7.59,18,16.89,6.18,11,3.32,24.64,2.85,26.68-2-.65-15.19-5.29-21.36-16.24-5.08-9-7.2-18.42-5.35-23.62l7.86,6.47.58.48-.17-.73-2.41-9.93m-.32-.29,2.48,10.28-8.13-6.69c-2,5-.13,14.63,5.24,24.15,6.78,12,21.76,16.43,21.76,16.43s4-15.09-2.81-27.12c-5.57-9.86-13.12-16.58-18.54-17Z"/><path class="cls-16" d="M134.13,158.48h.59c12.57.12,23,9.44,24.53,10.87-1.54,1.39-12,10.38-24.48,10.38h-.27c-10.34-.1-19.55-3-23.12-7.17l9.53-3.58.71-.26-.72-.22-9.81-2.88c3.3-4.29,12.47-7.15,23-7.15m0-.25c-11.07,0-20.39,3.15-23.45,7.54l10.15,3-9.87,3.7c3.36,4.29,12.61,7.43,23.54,7.54h.27c13.68,0,24.84-10.63,24.84-10.63s-11.08-11-24.89-11.12Z"/><path class="cls-17" d="M162.25,173.24c.43,2,3,15.8-3.38,26.62-5.26,8.91-12.35,15.45-17.78,16.44l1.67-10.05.13-.73-.55.51-7.4,7.05c-2.08-5.05.2-14.84,5.63-24,6.39-10.82,19.69-15.2,21.68-15.81m.19-.31s-15.06,4.1-22.09,16c-5.76,9.76-7.8,19.66-5.49,24.59l7.66-7.3-1.73,10.4c5.39-.77,12.74-7.21,18.3-16.62,7-11.89,3.35-27.06,3.35-27.06Z"/><path class="cls-16" d="M167.12,172.58c2,.65,15.18,5.29,21.36,16.24,5.08,9,7.2,18.42,5.35,23.62L186,206l-.58-.48.18.73,2.4,9.93c-5.41-.72-12.75-7.59-18-16.89-6.17-10.95-3.32-24.64-2.84-26.68m-.18-.31s-4,15.09,2.81,27.12c5.56,9.86,13.12,16.58,18.54,17.05l-2.49-10.28,8.14,6.69c2-5,.13-14.63-5.24-24.15-6.79-12-21.76-16.43-21.76-16.43Z"/><path class="cls-17" d="M193.46,157.66h.26c10.34.1,19.55,3,23.13,7.17l-9.54,3.58-.7.26.72.22,9.8,2.88c-3.29,4.29-12.47,7.15-23,7.15h-.58c-12.57-.12-23-9.44-24.53-10.87,1.54-1.39,12-10.38,24.48-10.38m0-.25c-13.69,0-24.85,10.63-24.85,10.63s11.09,11,24.9,11.12h.58c11.07,0,20.39-3.15,23.46-7.54l-10.15-3,9.86-3.7c-3.36-4.29-12.61-7.43-23.54-7.54Z"/><path class="cls-18" d="M483.9,115.65c4.36,3.3,7.38,12.88,7.38,23.55,0,12.58-9.22,23.1-10.63,24.64C479.24,162.3,470,151.78,470,139.2c0-10.34,2.78-19.58,7-23.19l3.67,9.5.27.7.21-.72,2.78-9.84m-.14-.41-2.89,10.18-3.79-9.83c-4.25,3.4-7.31,12.69-7.31,23.61,0,13.81,10.88,25,10.88,25s10.88-11.2,10.88-25c0-11.32-3.28-20.89-7.77-24Z"/><path class="cls-18" d="M441.44,139.16c5.47,0,12.52,2.26,19.34,6.2,10.89,6.29,15.39,19.54,16,21.53a46.37,46.37,0,0,1-9.57,1,33.77,33.77,0,0,1-17.08-4.1c-9-5.17-15.57-12.2-16.62-17.61l10.07,1.57.74.11-.53-.53L436.69,140a12.22,12.22,0,0,1,4.75-.82m0-.25a12.21,12.21,0,0,0-5.18,1l7.37,7.59-10.4-1.62c.82,5.38,7.33,12.66,16.79,18.13,5.68,3.27,12.07,4.13,17.21,4.13a44.83,44.83,0,0,0,9.89-1.05s-4.26-15-16.22-21.92c-7.07-4.09-14.2-6.24-19.46-6.24Z"/><path class="cls-18" d="M467.94,170.75a46.09,46.09,0,0,1,9.57,1c-.63,2-5.13,15.24-16,21.53-6.82,3.94-13.87,6.19-19.34,6.19a12.88,12.88,0,0,1-4.22-.61l6.39-7.93.47-.58-.73.18-9.91,2.5c.67-5.42,7.47-12.83,16.71-18.16a33.77,33.77,0,0,1,17.08-4.11m0-.25c-5.14,0-11.53.87-17.21,4.14-9.81,5.67-16.45,13.29-16.86,18.71l10.25-2.59L437.51,199a12.91,12.91,0,0,0,4.64.74c5.27,0,12.39-2.14,19.46-6.23,12-6.9,16.22-21.92,16.22-21.92a44.43,44.43,0,0,0-9.89-1.06Z"/><path class="cls-18" d="M482.07,173.56c1.41,1.54,10.63,12.06,10.63,24.64,0,10.34-2.78,19.58-6.94,23.19l-3.68-9.5-.27-.7-.2.72-2.79,9.84c-4.36-3.3-7.38-12.88-7.38-23.55,0-12.58,9.22-23.1,10.63-24.64m0-.37s-10.88,11.2-10.88,25c0,11.32,3.28,20.89,7.78,24L481.85,212l3.8,9.83c4.25-3.4,7.3-12.69,7.3-23.61,0-13.81-10.88-25-10.88-25Z"/><path class="cls-18" d="M495.49,169.53a33.83,33.83,0,0,1,17.09,4.1c8.95,5.17,15.56,12.2,16.61,17.61l-10.06-1.57-.74-.11.52.53,7.12,7.33a12.17,12.17,0,0,1-4.74.82c-5.47,0-12.52-2.26-19.34-6.2-10.89-6.29-15.4-19.54-16-21.53a46.34,46.34,0,0,1,9.56-1m0-.25a44.79,44.79,0,0,0-9.88,1.05s4.25,15,16.21,21.92c7.07,4.09,14.2,6.24,19.47,6.24a12.16,12.16,0,0,0,5.17-1l-7.37-7.59,10.41,1.62c-.82-5.38-7.34-12.66-16.8-18.13-5.67-3.27-12.06-4.13-17.21-4.13Z"/><path class="cls-18" d="M520.58,137.94a13,13,0,0,1,4.22.61l-6.39,7.93-.47.58.72-.18,9.91-2.5c-.67,5.42-7.46,12.83-16.7,18.16a33.83,33.83,0,0,1-17.09,4.11,46.06,46.06,0,0,1-9.56-1c.62-2,5.13-15.24,16-21.53,6.82-3.94,13.87-6.19,19.34-6.19m0-.25c-5.27,0-12.4,2.14-19.47,6.23-12,6.9-16.21,21.92-16.21,21.92a44.39,44.39,0,0,0,9.88,1.06c5.15,0,11.54-.87,17.21-4.14,9.81-5.67,16.45-13.29,16.87-18.71l-10.26,2.59,6.61-8.21a12.85,12.85,0,0,0-4.63-.74Z"/><path class="cls-19" d="M405.16,157.33c10.31,0,19.53,2.76,23.14,6.91l-9.5,3.69-.69.27.72.2,9.83,2.78c-3.28,4.36-12.87,7.39-23.57,7.4-12.56,0-23.08-9.19-24.62-10.6,1.54-1.41,12-10.64,24.63-10.65h.06m0-.25h-.06c-13.81,0-25,10.91-25,10.91s11.19,10.84,25,10.84h0c11.33,0,20.89-3.3,24-7.8l-10.18-2.87,9.82-3.81c-3.4-4.24-12.66-7.27-23.56-7.27Z"/><path class="cls-20" d="M398.1,120.84l-1.56,10.07-.11.74.53-.52,7.32-7.14c2.14,5,0,14.85-5.35,24.1-6.28,10.89-19.52,15.42-21.51,16-.45-2-3.19-15.75,3.09-26.65,5.15-9,12.17-15.58,17.59-16.64m.3-.3c-5.38.82-12.66,7.35-18.11,16.82-6.89,12-3.05,27.09-3.05,27.09s15-4.27,21.9-16.24c5.66-9.81,7.59-19.74,5.22-24.64L396.79,131l1.61-10.41Z"/><path class="cls-19" d="M351.23,121.52c5.43.66,12.84,7.45,18.19,16.68,6.3,10.88,3.6,24.61,3.14,26.65-2-.62-15.24-5.12-21.54-16-5.18-8.95-7.4-18.33-5.61-23.55l7.94,6.38.58.47-.18-.73-2.52-9.9m-.33-.29,2.6,10.26-8.21-6.6c-2,5.07,0,14.63,5.52,24.09,6.91,12,21.94,16.19,21.94,16.19s3.8-15.14-3.12-27.09c-5.67-9.81-13.3-16.44-18.73-16.85Z"/><path class="cls-20" d="M346.14,158.57v.25c12.55,0,23.08,9.19,24.61,10.6-1.53,1.41-12.05,10.64-24.62,10.65h-.07c-10.31,0-19.52-2.76-23.14-6.91l9.5-3.69.7-.27-.72-.2-9.84-2.78c3.29-4.36,12.87-7.39,23.55-7.4l0-.25m0,0h0c-11.32,0-20.88,3.3-24,7.8l10.18,2.87-9.82,3.81c3.4,4.24,12.65,7.27,23.55,7.27h.07c13.81,0,25-10.91,25-10.91s-11.19-10.84-25-10.84Z"/><path class="cls-19" d="M373.8,173.27c.46,2,3.19,15.75-3.08,26.65-5.16,9-12.18,15.58-17.59,16.64l1.56-10.07.11-.74-.54.52-7.32,7.14c-2.13-5,0-14.85,5.36-24.1,6.27-10.89,19.51-15.42,21.5-16M374,173s-15,4.27-21.91,16.24c-5.65,9.81-7.58,19.74-5.22,24.64l7.58-7.38-1.61,10.41c5.38-.82,12.65-7.35,18.11-16.82C377.83,188.08,374,173,374,173Z"/><path class="cls-20" d="M378.66,172.55c2,.62,15.24,5.12,21.54,16,5.18,8.95,7.41,18.33,5.62,23.55l-7.94-6.38-.59-.47.19.73,2.51,9.9c-5.42-.66-12.84-7.45-18.18-16.68-6.3-10.88-3.6-24.61-3.15-26.65m-.18-.32s-3.81,15.14,3.11,27.09c5.68,9.81,13.3,16.44,18.73,16.85l-2.6-10.26,8.21,6.6c2-5.07,0-14.63-5.51-24.09-6.92-11.95-21.94-16.19-21.94-16.19Z"/><path class="cls-21" d="M81,455.41,79.4,465.47l-.12.74.54-.52,7.34-7.11c2.12,5-.07,14.84-5.42,24.07-6.31,10.88-19.56,15.37-21.55,16-.45-2-3.15-15.77,3.16-26.65,5.18-8.94,12.22-15.54,17.64-16.58m.3-.31c-5.39.81-12.68,7.32-18.16,16.77C56.2,483.82,60,499,60,499s15-4.23,22-16.18c5.68-9.8,7.64-19.72,5.29-24.63l-7.59,7.36,1.64-10.41Z"/><path class="cls-21" d="M34.12,456c5.42.68,12.82,7.48,18.14,16.74,6.26,10.89,3.52,24.62,3.07,26.65-2-.63-15.23-5.16-21.5-16.06-5.16-9-7.35-18.36-5.55-23.57l7.92,6.41.59.47-.19-.73L34.12,456m-.33-.29,2.57,10.26-8.19-6.62c-2,5.06,0,14.63,5.44,24.11,6.89,12,21.9,16.25,21.9,16.25s3.85-15.13-3-27.1c-5.64-9.82-13.25-16.47-18.68-16.9Z"/><path class="cls-21" d="M28.78,493.23h.1c12.58,0,23.09,9.26,24.62,10.67-1.53,1.41-12.06,10.59-24.65,10.59-10.34,0-19.58-2.81-23.19-7l9.51-3.65.7-.27-.72-.21-9.83-2.8c3.29-4.34,12.84-7.34,23.46-7.34m0-.25C17.5,493,8,496.24,4.91,500.71l10.17,2.9L5.25,507.4c3.39,4.25,12.67,7.32,23.6,7.34h0c13.79,0,25-10.84,25-10.84S42.69,493,28.88,493Z"/><path class="cls-21" d="M56.54,507.76c.45,2,3.14,15.77-3.16,26.65C48.19,543.35,41.16,550,35.74,551l1.59-10.06.11-.74-.53.52-7.35,7.11c-2.12-5,.08-14.84,5.43-24.07,6.3-10.88,19.56-15.37,21.55-16m.18-.32s-15,4.23-21.95,16.18c-5.68,9.8-7.64,19.72-5.29,24.63l7.6-7.36L35.44,551.3c5.38-.81,12.68-7.32,18.16-16.77,6.92-11.95,3.12-27.09,3.12-27.09Z"/><path class="cls-21" d="M61.4,507.06c2,.63,15.23,5.16,21.5,16.06,5.15,9,7.35,18.36,5.54,23.57l-7.92-6.41-.58-.47.18.73,2.49,9.91c-5.42-.68-12.82-7.48-18.14-16.74-6.27-10.89-3.53-24.62-3.07-26.65m-.18-.32s-3.85,15.13,3,27.1c5.65,9.82,13.26,16.47,18.69,16.9l-2.58-10.26,8.19,6.62c2-5.06,0-14.63-5.44-24.11-6.88-12-21.89-16.25-21.89-16.25Z"/><path class="cls-21" d="M87.83,491.66l0,.25c10.34,0,19.57,2.81,23.18,7l-9.5,3.65-.7.27.72.21,9.83,2.8c-3.29,4.34-12.84,7.34-23.47,7.34h-.1c-12.57,0-23.08-9.26-24.62-10.67,1.54-1.41,12.06-10.59,24.61-10.59v-.25m0,0c-13.79,0-25,10.84-25,10.84s11.17,10.9,25,10.92h.1c11.29,0,20.81-3.26,23.88-7.73l-10.17-2.9,9.83-3.79c-3.39-4.25-12.67-7.32-23.6-7.34Z"/><path class="cls-19" d="M294.71,456.52l-2.06,10-.15.73.56-.49,7.67-6.76c1.88,5.13-.77,14.82-6.55,23.8-6.81,10.56-20.26,14.42-22.28,15-.36-2.05-2.41-15.89,4.41-26.47,5.6-8.69,12.94-14.95,18.4-15.74m.31-.29c-5.41.56-13,6.71-18.92,15.9-7.48,11.61-4.4,26.91-4.4,26.91s15.21-3.52,22.69-15.13c6.13-9.52,8.55-19.34,6.44-24.35l-7.94,7L295,456.23Z"/><path class="cls-19" d="M247.87,454.86c5.38.94,12.45,8.08,17.33,17.57,5.75,11.18,2.36,24.76,1.81,26.77-2-.72-15-5.87-20.72-17.05-4.73-9.19-6.48-18.68-4.43-23.8l7.61,6.77.56.49-.15-.73-2-10m-.32-.3,2.09,10.37-7.87-7c-2.23,5-.7,14.62,4.3,24.34,6.31,12.28,21.11,17.26,21.11,17.26s4.55-14.93-1.76-27.21c-5.18-10.08-12.47-17.08-17.87-17.76Z"/><path class="cls-19" d="M238.08,491.79c.93,0,1.87,0,2.8.07,12.56.61,22.63,10.33,24.09,11.81-1.54,1.29-11.82,9.45-23.83,9.45l-1.29,0c-10.33-.51-19.42-3.73-22.83-8.07l9.67-3.2.71-.24-.71-.24L217,498.08c3.19-3.83,11.4-6.29,21.08-6.29m0-.25c-10.08,0-18.48,2.69-21.5,6.66l10,3.38-10,3.32c3.19,4.41,12.31,7.91,23.23,8.44.43,0,.87,0,1.3,0,13.22,0,24.2-9.68,24.2-9.68s-10.65-11.41-24.44-12.08c-1-.05-1.89-.07-2.82-.07Z"/><path class="cls-19" d="M267.83,507.67c.35,2.06,2.4,15.9-4.41,26.47-5.6,8.69-12.94,15-18.4,15.74l2.06-10,.15-.73-.56.49L239,546.42c-1.88-5.13.77-14.82,6.55-23.8,6.81-10.56,20.26-14.42,22.28-14.95m.2-.31s-15.21,3.52-22.69,15.13c-6.14,9.52-8.56,19.34-6.44,24.35l7.93-7-2.13,10.32c5.42-.56,13-6.71,18.93-15.9,7.48-11.61,4.4-26.91,4.4-26.91Z"/><path class="cls-19" d="M272.72,507.2c1.95.72,15,5.87,20.71,17.05,4.73,9.19,6.49,18.68,4.43,23.8l-7.61-6.77-.56-.49.15.73,2,10c-5.38-.94-12.45-8.08-17.33-17.57-5.75-11.18-2.37-24.76-1.81-26.77m-.17-.33s-4.56,14.93,1.76,27.21c5.18,10.08,12.46,17.08,17.87,17.76l-2.09-10.37,7.87,7c2.22-5,.69-14.62-4.3-24.34-6.32-12.28-21.11-17.26-21.11-17.26Z"/><path class="cls-19" d="M298.59,493.28l1.29,0c10.32.51,19.42,3.73,22.83,8.07l-9.67,3.2-.71.24.71.24,9.68,3.26c-3.19,3.83-11.39,6.29-21.08,6.29-.92,0-1.86,0-2.8-.07-12.56-.61-22.62-10.33-24.09-11.81,1.55-1.29,11.83-9.45,23.84-9.45m0-.25c-13.22,0-24.2,9.68-24.2,9.68s10.65,11.41,24.44,12.08c.95.05,1.89.07,2.81.07,10.09,0,18.49-2.69,21.5-6.66l-10-3.38,10-3.32c-3.19-4.41-12.32-7.91-23.23-8.44l-1.3,0Z"/><path class="cls-22" d="M166.65,450.15C171,453.45,174,463,174,473.7c0,12.58-9.22,23.1-10.63,24.64-1.41-1.54-10.63-12.06-10.63-24.64,0-10.34,2.78-19.58,6.95-23.19l3.67,9.5.27.7.2-.72,2.79-9.84m-.14-.41-2.89,10.18-3.79-9.83c-4.25,3.4-7.31,12.69-7.31,23.61,0,13.81,10.88,25,10.88,25s10.88-11.2,10.88-25c0-11.32-3.28-20.89-7.77-24Z"/><path class="cls-22" d="M124.19,473.66c5.47,0,12.52,2.26,19.34,6.2,10.89,6.29,15.39,19.54,16,21.53a46.37,46.37,0,0,1-9.57,1,33.77,33.77,0,0,1-17.08-4.1c-9-5.17-15.57-12.2-16.62-17.61l10.07,1.57.74.11-.53-.53-7.12-7.33a12.22,12.22,0,0,1,4.75-.82m0-.25a12.21,12.21,0,0,0-5.18,1l7.37,7.59L116,480.36c.82,5.38,7.33,12.66,16.79,18.13,5.68,3.27,12.07,4.13,17.21,4.13a44.83,44.83,0,0,0,9.89-1.05s-4.26-15-16.22-21.92c-7.07-4.09-14.2-6.24-19.46-6.24Z"/><path class="cls-22" d="M150.69,505.25a46.09,46.09,0,0,1,9.57,1c-.63,2-5.13,15.24-16,21.53-6.82,3.94-13.87,6.19-19.34,6.19a12.88,12.88,0,0,1-4.22-.61l6.39-7.93.47-.58-.73.18-9.91,2.5c.67-5.42,7.47-12.83,16.71-18.16a33.77,33.77,0,0,1,17.08-4.11m0-.25c-5.14,0-11.53.87-17.21,4.14-9.81,5.67-16.45,13.29-16.86,18.71l10.25-2.59-6.61,8.21a12.91,12.91,0,0,0,4.64.74c5.27,0,12.39-2.14,19.46-6.23,12-6.9,16.22-21.92,16.22-21.92a44.43,44.43,0,0,0-9.89-1.06Z"/><path class="cls-22" d="M164.82,508.06c1.41,1.54,10.63,12.06,10.63,24.64,0,10.34-2.78,19.58-6.94,23.19l-3.68-9.5-.27-.7-.2.72-2.79,9.84c-4.36-3.3-7.38-12.88-7.38-23.55,0-12.58,9.22-23.1,10.63-24.64m0-.37s-10.88,11.2-10.88,25c0,11.32,3.28,20.89,7.78,24l2.88-10.18,3.8,9.83c4.25-3.4,7.3-12.69,7.3-23.61,0-13.81-10.88-25-10.88-25Z"/><path class="cls-22" d="M178.24,504a33.83,33.83,0,0,1,17.09,4.1c8.95,5.17,15.56,12.2,16.61,17.61l-10.06-1.57-.74-.11.52.53,7.12,7.33a12.17,12.17,0,0,1-4.74.82c-5.47,0-12.52-2.26-19.34-6.2-10.89-6.29-15.4-19.54-16-21.53a46.24,46.24,0,0,1,9.56-1m0-.25a44.79,44.79,0,0,0-9.88,1.05s4.25,15,16.21,21.92c7.07,4.09,14.2,6.24,19.47,6.24a12.16,12.16,0,0,0,5.17-1l-7.37-7.59L212.25,526c-.82-5.38-7.34-12.66-16.8-18.13-5.67-3.27-12.06-4.13-17.21-4.13Z"/><path class="cls-22" d="M203.33,472.44a13,13,0,0,1,4.22.61L201.16,481l-.47.58.72-.18,9.91-2.5c-.67,5.42-7.46,12.83-16.7,18.16a33.83,33.83,0,0,1-17.09,4.11,46.06,46.06,0,0,1-9.56-1c.62-2,5.13-15.24,16-21.53,6.82-3.94,13.87-6.19,19.34-6.19m0-.25c-5.27,0-12.4,2.14-19.47,6.23-12,6.9-16.21,21.92-16.21,21.92a44.39,44.39,0,0,0,9.88,1.06c5.15,0,11.54-.87,17.21-4.14,9.81-5.67,16.45-13.29,16.87-18.71l-10.26,2.59,6.61-8.21a12.85,12.85,0,0,0-4.63-.74Z"/><path class="cls-23" d="M505.74,456.28l-2,10-.14.74.55-.5,7.6-6.84c1.94,5.12-.62,14.83-6.31,23.86-6.7,10.64-20.11,14.63-22.13,15.18-.37-2-2.56-15.87,4.15-26.51,5.51-8.75,12.79-15.08,18.24-15.92m.31-.3c-5.41.61-12.94,6.84-18.77,16.09-7.36,11.68-4.12,26.95-4.12,26.95s15.17-3.67,22.53-15.35c6-9.59,8.37-19.42,6.2-24.42L504,466.32l2-10.34Z"/><path class="cls-23" d="M458.88,455.08c5.4.89,12.54,8,17.51,17.4,5.86,11.12,2.61,24.73,2.08,26.75-2-.7-15-5.72-20.89-16.84-4.82-9.15-6.67-18.62-4.67-23.76l7.68,6.69.57.49-.16-.73-2.12-10m-.31-.29,2.19,10.34-7.94-6.92c-2.18,5-.55,14.63,4.54,24.3,6.44,12.21,21.28,17.05,21.28,17.05s4.41-15-2-27.2c-5.28-10-12.64-16.95-18-17.57Z"/><path class="cls-23" d="M450,492.1c.74,0,1.49,0,2.23,0,12.56.48,22.73,10.1,24.21,11.57-1.55,1.31-11.89,9.69-24,9.69l-1,0c-10.33-.4-19.46-3.54-22.91-7.84l9.63-3.3.71-.24-.71-.23-9.72-3.17c3.2-3.9,11.79-6.51,21.59-6.51m0-.25c-10.34,0-19,2.81-22,6.89l10,3.27-10,3.42c3.23,4.38,12.39,7.78,23.31,8.21l1,0c13.34,0,24.38-9.92,24.38-9.92s-10.77-11.31-24.57-11.84c-.75,0-1.5,0-2.24,0Z"/><path class="cls-23" d="M479.37,507.69c.38,2.05,2.56,15.87-4.14,26.51-5.51,8.75-12.79,15.08-18.24,15.92l2-10,.14-.74-.56.5-7.6,6.84c-1.93-5.12.63-14.83,6.32-23.86,6.7-10.64,20.11-14.63,22.12-15.18m.2-.31S464.4,511.05,457,522.73c-6,9.59-8.36,19.42-6.2,24.42l7.87-7.07-2,10.34c5.41-.61,12.94-6.84,18.77-16.09,7.36-11.68,4.13-27,4.13-27Z"/><path class="cls-23" d="M484.26,507.17c2,.7,15,5.71,20.88,16.84,4.82,9.15,6.67,18.62,4.67,23.76l-7.68-6.69-.56-.49.15.73,2.12,10c-5.39-.89-12.53-8-17.5-17.4-5.86-11.12-2.62-24.73-2.08-26.75m-.18-.33s-4.4,15,2,27.2c5.28,10,12.64,17,18.05,17.57L502,541.27l7.94,6.92c2.17-5,.55-14.63-4.55-24.29-6.43-12.22-21.28-17.06-21.28-17.06Z"/><path class="cls-23" d="M510.26,493l1,0c10.33.4,19.45,3.54,22.91,7.84l-9.64,3.3-.71.24.71.24,9.72,3.16c-3.19,3.9-11.78,6.51-21.58,6.51-.74,0-1.49,0-2.24,0-12.56-.48-22.72-10.1-24.2-11.57,1.54-1.31,11.88-9.69,24-9.69m0-.25c-13.35,0-24.38,9.92-24.38,9.92S496.64,514,510.44,514.5c.76,0,1.51,0,2.25,0,10.34,0,19-2.81,22-6.89l-10.06-3.27,10-3.42c-3.24-4.38-12.4-7.78-23.31-8.21l-1,0Z"/><path class="cls-16" d="M378.15,450.15c4.36,3.3,7.38,12.88,7.38,23.55,0,12.58-9.22,23.1-10.63,24.64-1.41-1.54-10.63-12.06-10.63-24.64,0-10.34,2.78-19.58,7-23.19l3.67,9.5.27.7.21-.72,2.78-9.84m-.14-.41-2.89,10.18-3.79-9.83c-4.25,3.4-7.31,12.69-7.31,23.61,0,13.81,10.88,25,10.88,25s10.88-11.2,10.88-25c0-11.32-3.28-20.89-7.77-24Z"/><path class="cls-16" d="M335.69,473.66c5.47,0,12.52,2.26,19.34,6.2,10.89,6.29,15.39,19.54,16,21.53a46.37,46.37,0,0,1-9.57,1,33.77,33.77,0,0,1-17.08-4.1c-9-5.17-15.57-12.2-16.62-17.61l10.07,1.57.74.11-.53-.53-7.12-7.33a12.22,12.22,0,0,1,4.75-.82m0-.25a12.21,12.21,0,0,0-5.18,1l7.37,7.59-10.4-1.62c.82,5.38,7.33,12.66,16.79,18.13,5.68,3.27,12.07,4.13,17.21,4.13a44.83,44.83,0,0,0,9.89-1.05s-4.26-15-16.22-21.92c-7.07-4.09-14.2-6.24-19.46-6.24Z"/><path class="cls-16" d="M362.19,505.25a46.09,46.09,0,0,1,9.57,1c-.63,2-5.13,15.24-16,21.53-6.82,3.94-13.87,6.19-19.34,6.19a12.88,12.88,0,0,1-4.22-.61l6.39-7.93.47-.58-.73.18-9.91,2.5c.67-5.42,7.47-12.83,16.71-18.16a33.77,33.77,0,0,1,17.08-4.11m0-.25c-5.14,0-11.53.87-17.21,4.14-9.81,5.67-16.45,13.29-16.86,18.71l10.25-2.59-6.61,8.21a12.87,12.87,0,0,0,4.64.74c5.27,0,12.39-2.14,19.46-6.23,12-6.9,16.22-21.92,16.22-21.92a44.43,44.43,0,0,0-9.89-1.06Z"/><path class="cls-16" d="M376.32,508.06C377.73,509.6,387,520.12,387,532.7c0,10.34-2.78,19.58-6.94,23.19l-3.68-9.5-.27-.7-.2.72-2.79,9.84c-4.36-3.3-7.38-12.88-7.38-23.55,0-12.58,9.22-23.1,10.63-24.64m0-.37s-10.88,11.2-10.88,25c0,11.32,3.28,20.89,7.78,24l2.88-10.18,3.8,9.83c4.25-3.4,7.3-12.69,7.3-23.61,0-13.81-10.88-25-10.88-25Z"/><path class="cls-16" d="M389.74,504a33.83,33.83,0,0,1,17.09,4.1c8.95,5.17,15.56,12.2,16.61,17.61l-10.06-1.57-.74-.11.52.53,7.12,7.33a12.17,12.17,0,0,1-4.74.82c-5.47,0-12.52-2.26-19.34-6.2-10.89-6.29-15.4-19.54-16-21.53a46.34,46.34,0,0,1,9.56-1m0-.25a44.79,44.79,0,0,0-9.88,1.05s4.25,15,16.21,21.92c7.07,4.09,14.2,6.24,19.47,6.24a12.16,12.16,0,0,0,5.17-1l-7.37-7.59L423.75,526c-.82-5.38-7.34-12.66-16.8-18.13-5.67-3.27-12.06-4.13-17.21-4.13Z"/><path class="cls-16" d="M414.83,472.44a13,13,0,0,1,4.22.61L412.66,481l-.47.58.72-.18,9.91-2.5c-.67,5.42-7.46,12.83-16.7,18.16A33.83,33.83,0,0,1,389,501.15a46.06,46.06,0,0,1-9.56-1c.62-2,5.13-15.24,16-21.53,6.82-3.94,13.87-6.19,19.34-6.19m0-.25c-5.27,0-12.4,2.14-19.47,6.23-12,6.9-16.21,21.92-16.21,21.92A44.39,44.39,0,0,0,389,501.4c5.15,0,11.54-.87,17.21-4.14,9.81-5.67,16.45-13.29,16.87-18.71l-10.26,2.59,6.61-8.21a12.85,12.85,0,0,0-4.63-.74Z"/><path class="cls-24" d="M86.6,12.49l-2.79,9.8L83.6,23l.6-.45,8.15-6.17c1.49,5.25-1.87,14.72-8.3,23.24-7.57,10-21.27,12.89-23.33,13.26-.2-2.07-1.21-16,6.36-26.06,6.23-8.26,14-14,19.52-14.34m.34-.26c-5.45.15-13.47,5.72-20.06,14.45-8.32,11-6.38,26.51-6.38,26.51S75.93,50.8,84.25,39.78c6.82-9,10-18.65,8.23-23.81l-8.43,6.39,2.89-10.13Z"/><path class="cls-24" d="M40,7.36c5.3,1.34,11.82,9,16,18.81C60.9,37.75,56.51,51,55.81,53c-1.89-.86-14.49-7-19.39-18.54-4-9.52-5.08-19.11-2.66-24.07l7.09,7.32.52.54-.09-.75L40,7.36M39.72,7,41,17.54,33.7,10c-2.59,4.79-1.77,14.53,2.49,24.59C41.57,47.27,56,53.34,56,53.34s5.65-14.55.26-27.27c-4.42-10.43-11.16-18-16.5-19Z"/><path class="cls-24" d="M23.5,43.31a56.61,56.61,0,0,1,6.81.43c12.47,1.54,21.79,12,23.14,13.57C51.91,58.41,42.17,65,31,65a28,28,0,0,1-3.33-.2C17.44,63.57,8.61,59.68,5.53,55.1l9.88-2.48.72-.18-.69-.29L6,48.17c2.92-3,9.55-4.86,17.47-4.86m0-.25c-8.27,0-15,2-17.9,5.21l9.75,4.11L5.13,54.94C8,59.58,16.82,63.74,27.67,65.08a27.31,27.31,0,0,0,3.36.21c12.31,0,22.79-7.94,22.79-7.94S44,45.18,30.34,43.49a56.19,56.19,0,0,0-6.84-.43Z"/><path class="cls-24" d="M56,61.51c.2,2.07,1.22,16-6.36,26.06-6.23,8.26-14,14-19.51,14.34l2.79-9.8.2-.72-.59.45L24.38,98c-1.5-5.25,1.87-14.72,8.3-23.24C40.25,64.73,54,61.88,56,61.51m.22-.3S40.8,63.6,32.48,74.62c-6.83,9-10,18.65-8.24,23.81L32.68,92l-2.89,10.13c5.44-.15,13.47-5.72,20.05-14.45,8.32-11,6.38-26.51,6.38-26.51Z"/><path class="cls-24" d="M60.91,61.4c1.9.86,14.49,7,19.4,18.54,4,9.52,5.08,19.11,2.65,24.07l-7.09-7.32-.52-.54.1.75L76.71,107c-5.29-1.34-11.81-9-16-18.81-4.9-11.58-.52-24.87.18-26.83m-.14-.34s-5.65,14.55-.27,27.27c4.42,10.43,11.17,18,16.51,19l-1.32-10.5L83,104.43c2.59-4.79,1.78-14.53-2.48-24.59C75.15,67.13,60.77,61.06,60.77,61.06Z"/><path class="cls-24" d="M85.7,49.36a28.22,28.22,0,0,1,3.33.2c10.26,1.27,19.09,5.16,22.17,9.74l-9.88,2.48-.73.18.69.29,9.42,4c-2.92,3-9.56,4.86-17.47,4.86a56.61,56.61,0,0,1-6.81-.43c-12.48-1.54-21.8-12-23.15-13.57,1.55-1.1,11.29-7.73,22.43-7.73m0-.25c-12.31,0-22.79,7.94-22.79,7.94s9.77,12.17,23.48,13.86a56.07,56.07,0,0,0,6.84.43c8.27,0,15-2,17.89-5.21L101.38,62l10.22-2.56c-2.86-4.64-11.7-8.8-22.54-10.14a27.31,27.31,0,0,0-3.36-.21Z"/><path class="cls-25" d="M294.13,10.22l-1.93,10-.14.74.55-.5,7.59-6.85c1.94,5.1-.59,14.83-6.26,23.87-6.68,10.65-20.09,14.67-22.1,15.23-.38-2.06-2.59-15.87,4.09-26.52,5.49-8.76,12.75-15.12,18.2-16m.32-.29c-5.41.62-12.93,6.87-18.73,16.12-7.34,11.7-4.07,27-4.07,27s15.16-3.71,22.5-15.41c6-9.59,8.32-19.44,6.14-24.43l-7.85,7.09,2-10.34Z"/><path class="cls-25" d="M247.28,9.13c5.39.87,12.55,7.93,17.54,17.36,5.89,11.11,2.67,24.73,2.14,26.75-2-.7-15-5.69-20.92-16.8-4.84-9.14-6.71-18.6-4.72-23.75L249,19.37l.56.49-.15-.73-2.14-10M247,8.84l2.21,10.34-7.95-6.91c-2.17,5-.52,14.63,4.6,24.29,6.46,12.2,21.31,17,21.31,17s4.38-15-2.09-27.19c-5.3-10-12.67-16.92-18.08-17.53Z"/><path class="cls-25" d="M238.64,46.17c.7,0,1.41,0,2.11,0,12.56.46,22.75,10.06,24.23,11.52-1.55,1.32-11.9,9.74-24.05,9.74-.32,0-.64,0-1,0C229.64,67.08,220.51,64,217,59.67l9.63-3.32.71-.25-.71-.23-9.73-3.14c3.21-3.94,11.84-6.56,21.7-6.56m0-.25c-10.4,0-19.08,2.83-22.11,6.93l10.06,3.26-10,3.44C219.88,63.92,229,67.31,240,67.7c.33,0,.65,0,1,0,13.37,0,24.42-10,24.42-10S254.56,46.47,240.76,46c-.72,0-1.42,0-2.12,0Z"/><path class="cls-25" d="M267.88,61.69c.38,2.06,2.6,15.87-4.08,26.52-5.5,8.76-12.76,15.12-18.21,16l1.94-10,.14-.74-.56.5-7.58,6.85c-1.95-5.1.59-14.83,6.26-23.87,6.68-10.65,20.08-14.67,22.09-15.23m.2-.31s-15.17,3.71-22.5,15.41c-6,9.59-8.32,19.44-6.15,24.43l7.85-7.09-2,10.34c5.41-.62,12.92-6.87,18.73-16.12,7.34-11.7,4.07-27,4.07-27Z"/><path class="cls-25" d="M272.76,61.16c2,.7,15,5.69,20.93,16.8,4.84,9.14,6.71,18.6,4.72,23.75L290.72,95l-.57-.49.16.73,2.14,10c-5.4-.87-12.55-7.93-17.55-17.36-5.88-11.11-2.66-24.73-2.14-26.75m-.17-.32s-4.37,15,2.09,27.19c5.3,10,12.68,16.92,18.09,17.53l-2.22-10.34,8,6.91c2.16-5,.51-14.63-4.6-24.29-6.46-12.2-21.32-17-21.32-17Z"/><path class="cls-25" d="M298.79,46.93c.32,0,.64,0,1,0,10.34.37,19.47,3.49,22.93,7.78l-9.63,3.32-.7.25.71.23,9.72,3.14c-3.2,3.94-11.84,6.56-21.69,6.56-.7,0-1.41,0-2.11,0-12.57-.46-22.75-10.06-24.24-11.52,1.55-1.32,11.9-9.74,24.05-9.74m0-.25c-13.37,0-24.41,10-24.41,10S285.17,67.93,299,68.44c.71,0,1.42,0,2.12,0,10.39,0,19.08-2.83,22.11-6.93l-10.07-3.26,10-3.44c-3.24-4.37-12.41-7.76-23.33-8.15-.32,0-.65,0-1,0Z"/><path class="cls-26" d="M166.65,4.15C171,7.45,174,17,174,27.7c0,12.58-9.22,23.1-10.63,24.64C162,50.8,152.77,40.28,152.77,27.7c0-10.34,2.78-19.58,6.95-23.19l3.67,9.5.27.7.2-.72,2.79-9.84m-.14-.41-2.89,10.18-3.79-9.83c-4.25,3.4-7.31,12.69-7.31,23.61,0,13.81,10.88,25,10.88,25s10.88-11.2,10.88-25c0-11.32-3.28-20.89-7.77-24Z"/><path class="cls-26" d="M124.19,27.66c5.47,0,12.52,2.26,19.34,6.2,10.89,6.29,15.39,19.54,16,21.53a46.37,46.37,0,0,1-9.57,1,33.77,33.77,0,0,1-17.08-4.1c-9-5.17-15.57-12.2-16.62-17.61l10.07,1.57.74.11-.53-.53-7.12-7.33a12.22,12.22,0,0,1,4.75-.82m0-.25a12.21,12.21,0,0,0-5.18,1L126.38,36,116,34.36c.82,5.38,7.33,12.66,16.79,18.13,5.68,3.27,12.07,4.13,17.21,4.13a44.83,44.83,0,0,0,9.89-1s-4.26-15-16.22-21.92c-7.07-4.09-14.2-6.24-19.46-6.24Z"/><path class="cls-26" d="M150.69,59.25a46.09,46.09,0,0,1,9.57,1c-.63,2-5.13,15.24-16,21.53C137.42,85.71,130.37,88,124.9,88a12.88,12.88,0,0,1-4.22-.61l6.39-7.93.47-.58-.73.18-9.91,2.5c.67-5.42,7.47-12.83,16.71-18.16a33.77,33.77,0,0,1,17.08-4.11m0-.25c-5.14,0-11.53.87-17.21,4.14-9.81,5.67-16.45,13.29-16.86,18.71l10.25-2.59-6.61,8.21a12.91,12.91,0,0,0,4.64.74c5.27,0,12.39-2.14,19.46-6.23,12-6.9,16.22-21.92,16.22-21.92A44.43,44.43,0,0,0,150.69,59Z"/><path class="cls-26" d="M164.82,62.06c1.41,1.54,10.63,12.06,10.63,24.64,0,10.34-2.78,19.58-6.94,23.19l-3.68-9.5-.27-.7-.2.72-2.79,9.84c-4.36-3.3-7.38-12.88-7.38-23.55,0-12.58,9.22-23.1,10.63-24.64m0-.37s-10.88,11.2-10.88,25c0,11.32,3.28,20.89,7.78,24l2.88-10.18,3.8,9.83c4.25-3.4,7.3-12.69,7.3-23.61,0-13.81-10.88-25-10.88-25Z"/><path class="cls-26" d="M178.24,58a33.83,33.83,0,0,1,17.09,4.1c8.95,5.17,15.56,12.2,16.61,17.61l-10.06-1.57-.74-.11.52.53,7.12,7.33a12.17,12.17,0,0,1-4.74.82c-5.47,0-12.52-2.26-19.34-6.2C173.81,74.25,169.3,61,168.68,59a46.34,46.34,0,0,1,9.56-1m0-.25a44.79,44.79,0,0,0-9.88,1s4.25,15,16.21,21.92C191.64,84.84,198.77,87,204,87a12.16,12.16,0,0,0,5.17-1l-7.37-7.59L212.25,80c-.82-5.38-7.34-12.66-16.8-18.13-5.67-3.27-12.06-4.13-17.21-4.13Z"/><path class="cls-26" d="M203.33,26.19v.25a13,13,0,0,1,4.22.61L201.16,35l-.47.58.72-.18,9.91-2.5c-.67,5.42-7.46,12.83-16.7,18.16a33.83,33.83,0,0,1-17.09,4.11,46.06,46.06,0,0,1-9.56-1c.62-2,5.13-15.24,16-21.53,6.82-3.94,13.87-6.19,19.34-6.19v-.25m0,0c-5.27,0-12.4,2.14-19.47,6.23-12,6.9-16.21,21.92-16.21,21.92a44.39,44.39,0,0,0,9.88,1.06c5.15,0,11.54-.87,17.21-4.14,9.81-5.67,16.45-13.29,16.87-18.71l-10.26,2.59L208,26.93a12.85,12.85,0,0,0-4.63-.74Z"/><path class="cls-27" d="M504.23,9.52l-1.64,10.06-.12.73.54-.51,7.38-7.08c2.09,5-.15,14.85-5.55,24.05C498.48,47.62,485.2,52,483.21,52.65c-.44-2-3.07-15.78,3.29-26.63,5.23-8.92,12.3-15.49,17.73-16.5m.3-.3c-5.39.78-12.72,7.25-18.24,16.67C479.3,37.81,483,53,483,53s15.05-4.16,22-16.07c5.73-9.77,7.73-19.68,5.41-24.6l-7.63,7.32,1.69-10.4Z"/><path class="cls-27" d="M457.36,9.83c5.42.7,12.78,7.55,18.05,16.82,6.21,10.93,3.4,24.64,2.93,26.68-2-.64-15.2-5.24-21.41-16.17-5.11-9-7.26-18.4-5.43-23.6L459.39,20l.58.47-.18-.73-2.43-9.92M457,9.54l2.52,10.27-8.16-6.66c-2,5-.08,14.63,5.32,24.13,6.83,12,21.82,16.36,21.82,16.36s3.92-15.1-2.9-27.11C470,16.68,462.46,10,457,9.54Z"/><path class="cls-27" d="M451.54,47.08h.39c12.58.09,23,9.38,24.57,10.8-1.54,1.39-12,10.46-24.53,10.46h-.18c-10.34-.07-19.56-2.91-23.15-7.1l9.53-3.61.7-.27-.72-.2-9.82-2.86c3.28-4.27,12.72-7.22,23.21-7.22m0-.25c-11.15,0-20.55,3.19-23.62,7.61l10.16,3-9.85,3.73c3.37,4.27,12.63,7.38,23.56,7.46H452c13.72,0,24.89-10.71,24.89-10.71s-11.12-11-24.92-11.05Z"/><path class="cls-27" d="M479.52,61.75c.44,2,3.06,15.78-3.3,26.63-5.23,8.92-12.3,15.49-17.72,16.5l1.64-10.06.12-.73-.54.51-7.38,7.08c-2.1-5.05.15-14.85,5.55-24.05,6.36-10.85,19.63-15.27,21.63-15.88m.18-.32s-15,4.16-22,16.07c-5.73,9.77-7.74,19.68-5.42,24.6l7.64-7.32-1.69,10.4c5.38-.78,12.71-7.25,18.24-16.67,7-11.92,3.26-27.08,3.26-27.08Z"/><path class="cls-27" d="M484.38,61.07c2,.64,15.2,5.24,21.41,16.17,5.11,9,7.26,18.4,5.43,23.6l-7.89-6.45-.58-.47.18.73,2.44,9.92c-5.42-.7-12.78-7.55-18.06-16.82-6.21-10.93-3.4-24.64-2.93-26.68m-.18-.31s-3.93,15.1,2.9,27.11c5.59,9.85,13.17,16.54,18.6,17l-2.53-10.27,8.16,6.66c2-5,.08-14.63-5.32-24.13-6.82-12-21.81-16.36-21.81-16.36Z"/><path class="cls-27" d="M510.76,46.06h.18c10.34.07,19.56,2.91,23.15,7.1l-9.53,3.61-.7.27.72.2,9.81,2.86c-3.27,4.27-12.71,7.22-23.2,7.22h-.4c-12.57-.09-23-9.38-24.56-10.8,1.53-1.39,12-10.46,24.53-10.46m0-.25c-13.73,0-24.9,10.71-24.9,10.71s11.12,10.95,24.93,11h.4c11.15,0,20.55-3.19,23.61-7.61l-10.15-3,9.85-3.73c-3.37-4.27-12.64-7.38-23.56-7.46Z"/><path class="cls-28" d="M378.15,4.15c4.36,3.3,7.38,12.88,7.38,23.55,0,12.58-9.22,23.1-10.63,24.64-1.41-1.54-10.63-12.06-10.63-24.64,0-10.34,2.78-19.58,7-23.19l3.67,9.5.27.7.21-.72,2.78-9.84M378,3.74l-2.89,10.18-3.79-9.83C367.08,7.49,364,16.78,364,27.7c0,13.81,10.88,25,10.88,25s10.88-11.2,10.88-25c0-11.32-3.28-20.89-7.77-24Z"/><path class="cls-28" d="M335.69,27.66c5.47,0,12.52,2.26,19.34,6.2,10.89,6.29,15.39,19.54,16,21.53a46.37,46.37,0,0,1-9.57,1,33.77,33.77,0,0,1-17.08-4.1c-9-5.17-15.57-12.2-16.62-17.61l10.07,1.57.74.11-.53-.53-7.12-7.33a12.22,12.22,0,0,1,4.75-.82m0-.25a12.21,12.21,0,0,0-5.18,1L337.88,36l-10.4-1.62c.82,5.38,7.33,12.66,16.79,18.13,5.68,3.27,12.07,4.13,17.21,4.13a44.83,44.83,0,0,0,9.89-1s-4.26-15-16.22-21.92c-7.07-4.09-14.2-6.24-19.46-6.24Z"/><path class="cls-28" d="M362.19,59.25a46.09,46.09,0,0,1,9.57,1c-.63,2-5.13,15.24-16,21.53C348.92,85.71,341.87,88,336.4,88a12.88,12.88,0,0,1-4.22-.61l6.39-7.93.47-.58-.73.18-9.91,2.5c.67-5.42,7.47-12.83,16.71-18.16a33.77,33.77,0,0,1,17.08-4.11m0-.25c-5.14,0-11.53.87-17.21,4.14-9.81,5.67-16.45,13.29-16.86,18.71l10.25-2.59-6.61,8.21a12.91,12.91,0,0,0,4.64.74c5.27,0,12.39-2.14,19.46-6.23,12-6.9,16.22-21.92,16.22-21.92A44.43,44.43,0,0,0,362.19,59Z"/><path class="cls-28" d="M376.32,62.06C377.73,63.6,387,74.12,387,86.7c0,10.34-2.78,19.58-6.94,23.19l-3.68-9.5-.27-.7-.2.72-2.79,9.84c-4.36-3.3-7.38-12.88-7.38-23.55,0-12.58,9.22-23.1,10.63-24.64m0-.37s-10.88,11.2-10.88,25c0,11.32,3.28,20.89,7.78,24l2.88-10.18,3.8,9.83c4.25-3.4,7.3-12.69,7.3-23.61,0-13.81-10.88-25-10.88-25Z"/><path class="cls-28" d="M389.74,58a33.83,33.83,0,0,1,17.09,4.1c8.95,5.17,15.56,12.2,16.61,17.61l-10.06-1.57-.74-.11.52.53,7.12,7.33a12.17,12.17,0,0,1-4.74.82c-5.47,0-12.52-2.26-19.34-6.2C385.31,74.25,380.8,61,380.18,59a46.34,46.34,0,0,1,9.56-1m0-.25a44.79,44.79,0,0,0-9.88,1s4.25,15,16.21,21.92c7.07,4.09,14.2,6.24,19.47,6.24a12.16,12.16,0,0,0,5.17-1l-7.37-7.59L423.75,80c-.82-5.38-7.34-12.66-16.8-18.13-5.67-3.27-12.06-4.13-17.21-4.13Z"/><path class="cls-28" d="M414.83,26.19v.25a13,13,0,0,1,4.22.61L412.66,35l-.47.58.72-.18,9.91-2.5c-.67,5.42-7.46,12.83-16.7,18.16A33.83,33.83,0,0,1,389,55.15a46.06,46.06,0,0,1-9.56-1c.62-2,5.13-15.24,16-21.53,6.82-3.94,13.87-6.19,19.34-6.19v-.25m0,0c-5.27,0-12.4,2.14-19.47,6.23-12,6.9-16.21,21.92-16.21,21.92A44.39,44.39,0,0,0,389,55.4c5.15,0,11.54-.87,17.21-4.14,9.81-5.67,16.45-13.29,16.87-18.71l-10.26,2.59,6.61-8.21a12.85,12.85,0,0,0-4.63-.74Z"/></g></g></svg>